<?xml version="1.0" encoding="UTF-8" standalone="no"?>
<!-- Created with Inkscape (http://www.inkscape.org/) -->

<svg
   xmlns:dc="http://purl.org/dc/elements/1.1/"
   xmlns:cc="http://creativecommons.org/ns#"
   xmlns:rdf="http://www.w3.org/1999/02/22-rdf-syntax-ns#"
   xmlns:svg="http://www.w3.org/2000/svg"
   xmlns="http://www.w3.org/2000/svg"
   xmlns:sodipodi="http://sodipodi.sourceforge.net/DTD/sodipodi-0.dtd"
   xmlns:inkscape="http://www.inkscape.org/namespaces/inkscape"
   id="svg2"
   version="1.1"
   inkscape:version="0.48.4 r9939"
   width="800"
   height="562.02155"
   xml:space="preserve"
   sodipodi:docname="widely_used_mos_current_mirrors_1_simulation_analysis_dc.eps"><metadata
     id="metadata8"><rdf:RDF><cc:Work
         rdf:about=""><dc:format>image/svg+xml</dc:format><dc:type
           rdf:resource="http://purl.org/dc/dcmitype/StillImage" /><dc:title></dc:title></cc:Work></rdf:RDF></metadata><defs
     id="defs6" /><sodipodi:namedview
     pagecolor="#ffffff"
     bordercolor="#666666"
     borderopacity="1"
     objecttolerance="10"
     gridtolerance="10"
     guidetolerance="10"
     inkscape:pageopacity="0"
     inkscape:pageshadow="2"
     inkscape:window-width="1280"
     inkscape:window-height="750"
     id="namedview4"
     showgrid="false"
     fit-margin-top="0"
     fit-margin-left="0"
     fit-margin-right="0"
     fit-margin-bottom="0"
     inkscape:zoom="0.73777778"
     inkscape:cx="124.38016"
     inkscape:cy="323.00174"
     inkscape:window-x="0"
     inkscape:window-y="0"
     inkscape:window-maximized="1"
     inkscape:current-layer="g12" /><g
     id="g10"
     inkscape:groupmode="layer"
     inkscape:label="ink_ext_XXXXXX"
     transform="matrix(1.25,0,0,-1.25,-3.4962501,563.36407)"><g
       id="g12"
       transform="matrix(0.18489148,0,0,0.18489148,-2.3744146,-0.91173447)"><g
         id="g3937"><path
           inkscape:connector-curvature="0"
           id="path14"
           style="fill:none;stroke:#000000;stroke-width:1.25;stroke-linecap:butt;stroke-linejoin:miter;stroke-miterlimit:3.79999995;stroke-opacity:1;stroke-dasharray:5, 10;stroke-dashoffset:0"
           d="m 343,319 3130.5,0" /><path
           inkscape:connector-curvature="0"
           id="path16"
           style="fill:none;stroke:#000000;stroke-width:5;stroke-linecap:butt;stroke-linejoin:miter;stroke-miterlimit:3.79999995;stroke-opacity:1;stroke-dasharray:none"
           d="m 343,319 31.5,0 m 3099,0 -31.5,0" /><g
           transform="scale(10,10)"
           id="g18"><text
             id="text20"
             transform="matrix(1,0,0,-1,16.4789,29.6)"><tspan
               id="tspan22"
               sodipodi:role="line"
               y="0"
               x="0 3.892 7.7839999 9.7299995"
               style="font-size:7px;font-variant:normal;font-weight:normal;writing-mode:lr-tb;fill:#000000;fill-opacity:1;fill-rule:nonzero;stroke:none;font-family:Helvetica;-inkscape-font-specification:Helvetica">49.6</tspan></text>
</g><path
           inkscape:connector-curvature="0"
           id="path24"
           style="fill:none;stroke:#000000;stroke-width:1.25;stroke-linecap:butt;stroke-linejoin:miter;stroke-miterlimit:3.79999995;stroke-opacity:1;stroke-dasharray:5, 10;stroke-dashoffset:0"
           d="m 343,556 3130.5,0" /><path
           inkscape:connector-curvature="0"
           id="path26"
           style="fill:none;stroke:#000000;stroke-width:5;stroke-linecap:butt;stroke-linejoin:miter;stroke-miterlimit:3.79999995;stroke-opacity:1;stroke-dasharray:none"
           d="m 343,556 31.5,0 m 3099,0 -31.5,0" /><g
           transform="scale(10,10)"
           id="g28"><text
             id="text30"
             transform="matrix(1,0,0,-1,16.4789,53.3)"><tspan
               id="tspan32"
               sodipodi:role="line"
               y="0"
               x="0 3.892 7.7839999 9.7299995"
               style="font-size:7px;font-variant:normal;font-weight:normal;writing-mode:lr-tb;fill:#000000;fill-opacity:1;fill-rule:nonzero;stroke:none;font-family:Helvetica;-inkscape-font-specification:Helvetica">49.7</tspan></text>
</g><path
           inkscape:connector-curvature="0"
           id="path34"
           style="fill:none;stroke:#000000;stroke-width:1.25;stroke-linecap:butt;stroke-linejoin:miter;stroke-miterlimit:3.79999995;stroke-opacity:1;stroke-dasharray:5, 10;stroke-dashoffset:0"
           d="m 343,793 3130.5,0" /><path
           inkscape:connector-curvature="0"
           id="path36"
           style="fill:none;stroke:#000000;stroke-width:5;stroke-linecap:butt;stroke-linejoin:miter;stroke-miterlimit:3.79999995;stroke-opacity:1;stroke-dasharray:none"
           d="m 343,793 31.5,0 m 3099,0 -31.5,0" /><g
           transform="scale(10,10)"
           id="g38"><text
             id="text40"
             transform="matrix(1,0,0,-1,16.4789,77)"><tspan
               id="tspan42"
               sodipodi:role="line"
               y="0"
               x="0 3.892 7.7839999 9.7299995"
               style="font-size:7px;font-variant:normal;font-weight:normal;writing-mode:lr-tb;fill:#000000;fill-opacity:1;fill-rule:nonzero;stroke:none;font-family:Helvetica;-inkscape-font-specification:Helvetica">49.8</tspan></text>
</g><path
           inkscape:connector-curvature="0"
           id="path44"
           style="fill:none;stroke:#000000;stroke-width:1.25;stroke-linecap:butt;stroke-linejoin:miter;stroke-miterlimit:3.79999995;stroke-opacity:1;stroke-dasharray:5, 10;stroke-dashoffset:0"
           d="m 343,1030 3130.5,0" /><path
           inkscape:connector-curvature="0"
           id="path46"
           style="fill:none;stroke:#000000;stroke-width:5;stroke-linecap:butt;stroke-linejoin:miter;stroke-miterlimit:3.79999995;stroke-opacity:1;stroke-dasharray:none"
           d="m 343,1030 31.5,0 m 3099,0 -31.5,0" /><g
           transform="scale(10,10)"
           id="g48"><text
             id="text50"
             transform="matrix(1,0,0,-1,16.4789,100.7)"><tspan
               id="tspan52"
               sodipodi:role="line"
               y="0"
               x="0 3.892 7.7839999 9.7299995"
               style="font-size:7px;font-variant:normal;font-weight:normal;writing-mode:lr-tb;fill:#000000;fill-opacity:1;fill-rule:nonzero;stroke:none;font-family:Helvetica;-inkscape-font-specification:Helvetica">49.9</tspan></text>
</g><path
           inkscape:connector-curvature="0"
           id="path54"
           style="fill:none;stroke:#000000;stroke-width:1.25;stroke-linecap:butt;stroke-linejoin:miter;stroke-miterlimit:3.79999995;stroke-opacity:1;stroke-dasharray:5, 10;stroke-dashoffset:0"
           d="m 343,1267 3130.5,0" /><path
           inkscape:connector-curvature="0"
           id="path56"
           style="fill:none;stroke:#000000;stroke-width:5;stroke-linecap:butt;stroke-linejoin:miter;stroke-miterlimit:3.79999995;stroke-opacity:1;stroke-dasharray:none"
           d="m 343,1267 31.5,0 m 3099,0 -31.5,0" /><g
           transform="scale(10,10)"
           id="g58"><text
             id="text60"
             transform="matrix(1,0,0,-1,22.3164,124.4)"><tspan
               id="tspan62"
               sodipodi:role="line"
               y="0"
               x="0 3.892"
               style="font-size:7px;font-variant:normal;font-weight:normal;writing-mode:lr-tb;fill:#000000;fill-opacity:1;fill-rule:nonzero;stroke:none;font-family:Helvetica;-inkscape-font-specification:Helvetica">50</tspan></text>
</g><path
           inkscape:connector-curvature="0"
           id="path64"
           style="fill:none;stroke:#000000;stroke-width:1.25;stroke-linecap:butt;stroke-linejoin:miter;stroke-miterlimit:3.79999995;stroke-opacity:1;stroke-dasharray:5, 10;stroke-dashoffset:0"
           d="m 343,1503.5 3130.5,0" /><path
           inkscape:connector-curvature="0"
           id="path66"
           style="fill:none;stroke:#000000;stroke-width:5;stroke-linecap:butt;stroke-linejoin:miter;stroke-miterlimit:3.79999995;stroke-opacity:1;stroke-dasharray:none"
           d="m 343,1503.5 31.5,0 m 3099,0 -31.5,0" /><g
           transform="scale(10,10)"
           id="g68"><text
             id="text70"
             transform="matrix(1,0,0,-1,16.4789,148.05)"><tspan
               id="tspan72"
               sodipodi:role="line"
               y="0"
               x="0 3.892 7.7839999 9.7299995"
               style="font-size:7px;font-variant:normal;font-weight:normal;writing-mode:lr-tb;fill:#000000;fill-opacity:1;fill-rule:nonzero;stroke:none;font-family:Helvetica;-inkscape-font-specification:Helvetica">50.1</tspan></text>
</g><path
           inkscape:connector-curvature="0"
           id="path74"
           style="fill:none;stroke:#000000;stroke-width:1.25;stroke-linecap:butt;stroke-linejoin:miter;stroke-miterlimit:3.79999995;stroke-opacity:1;stroke-dasharray:5, 10;stroke-dashoffset:0"
           d="m 343,1740.5 3130.5,0" /><path
           inkscape:connector-curvature="0"
           id="path76"
           style="fill:none;stroke:#000000;stroke-width:5;stroke-linecap:butt;stroke-linejoin:miter;stroke-miterlimit:3.79999995;stroke-opacity:1;stroke-dasharray:none"
           d="m 343,1740.5 31.5,0 m 3099,0 -31.5,0" /><g
           transform="scale(10,10)"
           id="g78"><text
             id="text80"
             transform="matrix(1,0,0,-1,16.4789,171.75)"><tspan
               id="tspan82"
               sodipodi:role="line"
               y="0"
               x="0 3.892 7.7839999 9.7299995"
               style="font-size:7px;font-variant:normal;font-weight:normal;writing-mode:lr-tb;fill:#000000;fill-opacity:1;fill-rule:nonzero;stroke:none;font-family:Helvetica;-inkscape-font-specification:Helvetica">50.2</tspan></text>
</g><path
           inkscape:connector-curvature="0"
           id="path84"
           style="fill:none;stroke:#000000;stroke-width:1.25;stroke-linecap:butt;stroke-linejoin:miter;stroke-miterlimit:3.79999995;stroke-opacity:1;stroke-dasharray:5, 10;stroke-dashoffset:0"
           d="m 343,1977.5 3130.5,0" /><path
           inkscape:connector-curvature="0"
           id="path86"
           style="fill:none;stroke:#000000;stroke-width:5;stroke-linecap:butt;stroke-linejoin:miter;stroke-miterlimit:3.79999995;stroke-opacity:1;stroke-dasharray:none"
           d="m 343,1977.5 31.5,0 m 3099,0 -31.5,0" /><g
           transform="scale(10,10)"
           id="g88"><text
             id="text90"
             transform="matrix(1,0,0,-1,16.4789,195.45)"><tspan
               id="tspan92"
               sodipodi:role="line"
               y="0"
               x="0 3.892 7.7839999 9.7299995"
               style="font-size:7px;font-variant:normal;font-weight:normal;writing-mode:lr-tb;fill:#000000;fill-opacity:1;fill-rule:nonzero;stroke:none;font-family:Helvetica;-inkscape-font-specification:Helvetica">50.3</tspan></text>
</g><path
           inkscape:connector-curvature="0"
           id="path94"
           style="fill:none;stroke:#000000;stroke-width:1.25;stroke-linecap:butt;stroke-linejoin:miter;stroke-miterlimit:3.79999995;stroke-opacity:1;stroke-dasharray:5, 10;stroke-dashoffset:0"
           d="m 343,2214.5 2049,0 m 1039.5,0 42,0" /><path
           inkscape:connector-curvature="0"
           id="path96"
           style="fill:none;stroke:#000000;stroke-width:5;stroke-linecap:butt;stroke-linejoin:miter;stroke-miterlimit:3.79999995;stroke-opacity:1;stroke-dasharray:none"
           d="m 343,2214.5 31.5,0 m 3099,0 -31.5,0" /><g
           transform="scale(10,10)"
           id="g98"><text
             id="text100"
             transform="matrix(1,0,0,-1,16.4789,219.15)"><tspan
               id="tspan102"
               sodipodi:role="line"
               y="0"
               x="0 3.892 7.7839999 9.7299995"
               style="font-size:7px;font-variant:normal;font-weight:normal;writing-mode:lr-tb;fill:#000000;fill-opacity:1;fill-rule:nonzero;stroke:none;font-family:Helvetica;-inkscape-font-specification:Helvetica">50.4</tspan></text>
</g><path
           inkscape:connector-curvature="0"
           id="path104"
           style="fill:none;stroke:#000000;stroke-width:1.25;stroke-linecap:butt;stroke-linejoin:miter;stroke-miterlimit:3.79999995;stroke-opacity:1;stroke-dasharray:5, 10;stroke-dashoffset:0"
           d="m 343,224 0,2085.5" /><path
           inkscape:connector-curvature="0"
           id="path106"
           style="fill:none;stroke:#000000;stroke-width:5;stroke-linecap:butt;stroke-linejoin:miter;stroke-miterlimit:3.79999995;stroke-opacity:1;stroke-dasharray:none"
           d="m 343,224 0,31.5 m 0,2054 0,-31.5" /><g
           transform="scale(10,10)"
           id="g108"><text
             id="text110"
             transform="matrix(1,0,0,-1,32.3543,13.1)"><tspan
               id="tspan112"
               y="0"
               x="0"
               style="font-size:7px;font-variant:normal;font-weight:normal;writing-mode:lr-tb;fill:#000000;fill-opacity:1;fill-rule:nonzero;stroke:none;font-family:Helvetica;-inkscape-font-specification:Helvetica">0</tspan></text>
</g><path
           inkscape:connector-curvature="0"
           id="path114"
           style="fill:none;stroke:#000000;stroke-width:1.25;stroke-linecap:butt;stroke-linejoin:miter;stroke-miterlimit:3.79999995;stroke-opacity:1;stroke-dasharray:5, 10;stroke-dashoffset:0"
           d="m 865,224 0,2085.5" /><path
           inkscape:connector-curvature="0"
           id="path116"
           style="fill:none;stroke:#000000;stroke-width:5;stroke-linecap:butt;stroke-linejoin:miter;stroke-miterlimit:3.79999995;stroke-opacity:1;stroke-dasharray:none"
           d="m 865,224 0,31.5 m 0,2054 0,-31.5" /><g
           transform="scale(10,10)"
           id="g118"><text
             id="text120"
             transform="matrix(1,0,0,-1,81.6355,13.1)"><tspan
               id="tspan122"
               sodipodi:role="line"
               y="0"
               x="0 3.892 5.8379998"
               style="font-size:7px;font-variant:normal;font-weight:normal;writing-mode:lr-tb;fill:#000000;fill-opacity:1;fill-rule:nonzero;stroke:none;font-family:Helvetica;-inkscape-font-specification:Helvetica">0.5</tspan></text>
</g><path
           inkscape:connector-curvature="0"
           id="path124"
           style="fill:none;stroke:#000000;stroke-width:1.25;stroke-linecap:butt;stroke-linejoin:miter;stroke-miterlimit:3.79999995;stroke-opacity:1;stroke-dasharray:5, 10;stroke-dashoffset:0"
           d="m 1386.5,224 0,2085.5" /><path
           inkscape:connector-curvature="0"
           id="path126"
           style="fill:none;stroke:#000000;stroke-width:5;stroke-linecap:butt;stroke-linejoin:miter;stroke-miterlimit:3.79999995;stroke-opacity:1;stroke-dasharray:none"
           d="m 1386.5,224 0,31.5 m 0,2054 0,-31.5" /><g
           transform="scale(10,10)"
           id="g128"><text
             id="text130"
             transform="matrix(1,0,0,-1,136.704,13.1)"><tspan
               id="tspan132"
               y="0"
               x="0"
               style="font-size:7px;font-variant:normal;font-weight:normal;writing-mode:lr-tb;fill:#000000;fill-opacity:1;fill-rule:nonzero;stroke:none;font-family:Helvetica;-inkscape-font-specification:Helvetica">1</tspan></text>
</g><path
           inkscape:connector-curvature="0"
           id="path134"
           style="fill:none;stroke:#000000;stroke-width:1.25;stroke-linecap:butt;stroke-linejoin:miter;stroke-miterlimit:3.79999995;stroke-opacity:1;stroke-dasharray:5, 10;stroke-dashoffset:0"
           d="m 1908.5,224 0,2085.5" /><path
           inkscape:connector-curvature="0"
           id="path136"
           style="fill:none;stroke:#000000;stroke-width:5;stroke-linecap:butt;stroke-linejoin:miter;stroke-miterlimit:3.79999995;stroke-opacity:1;stroke-dasharray:none"
           d="m 1908.5,224 0,31.5 m 0,2054 0,-31.5" /><g
           transform="scale(10,10)"
           id="g138"><text
             id="text140"
             transform="matrix(1,0,0,-1,185.986,13.1)"><tspan
               id="tspan142"
               sodipodi:role="line"
               y="0"
               x="0 3.892 5.8379998"
               style="font-size:7px;font-variant:normal;font-weight:normal;writing-mode:lr-tb;fill:#000000;fill-opacity:1;fill-rule:nonzero;stroke:none;font-family:Helvetica;-inkscape-font-specification:Helvetica">1.5</tspan></text>
</g><path
           inkscape:connector-curvature="0"
           id="path144"
           style="fill:none;stroke:#000000;stroke-width:1.25;stroke-linecap:butt;stroke-linejoin:miter;stroke-miterlimit:3.79999995;stroke-opacity:1;stroke-dasharray:5, 10;stroke-dashoffset:0"
           d="m 2430,224 0,1984 m 0,70 0,31.5" /><path
           inkscape:connector-curvature="0"
           id="path146"
           style="fill:none;stroke:#000000;stroke-width:5;stroke-linecap:butt;stroke-linejoin:miter;stroke-miterlimit:3.79999995;stroke-opacity:1;stroke-dasharray:none"
           d="m 2430,224 0,31.5 m 0,2054 0,-31.5" /><g
           transform="scale(10,10)"
           id="g148"><text
             id="text150"
             transform="matrix(1,0,0,-1,241.054,13.1)"><tspan
               id="tspan152"
               y="0"
               x="0"
               style="font-size:7px;font-variant:normal;font-weight:normal;writing-mode:lr-tb;fill:#000000;fill-opacity:1;fill-rule:nonzero;stroke:none;font-family:Helvetica;-inkscape-font-specification:Helvetica">2</tspan></text>
</g><path
           inkscape:connector-curvature="0"
           id="path154"
           style="fill:none;stroke:#000000;stroke-width:1.25;stroke-linecap:butt;stroke-linejoin:miter;stroke-miterlimit:3.79999995;stroke-opacity:1;stroke-dasharray:5, 10;stroke-dashoffset:0"
           d="m 2952,224 0,1984 m 0,70 0,31.5" /><path
           inkscape:connector-curvature="0"
           id="path156"
           style="fill:none;stroke:#000000;stroke-width:5;stroke-linecap:butt;stroke-linejoin:miter;stroke-miterlimit:3.79999995;stroke-opacity:1;stroke-dasharray:none"
           d="m 2952,224 0,31.5 m 0,2054 0,-31.5" /><g
           transform="scale(10,10)"
           id="g158"><text
             id="text160"
             transform="matrix(1,0,0,-1,290.336,13.1)"><tspan
               id="tspan162"
               sodipodi:role="line"
               y="0"
               x="0 3.892 5.8379998"
               style="font-size:7px;font-variant:normal;font-weight:normal;writing-mode:lr-tb;fill:#000000;fill-opacity:1;fill-rule:nonzero;stroke:none;font-family:Helvetica;-inkscape-font-specification:Helvetica">2.5</tspan></text>
</g><path
           inkscape:connector-curvature="0"
           id="path164"
           style="fill:none;stroke:#000000;stroke-width:1.25;stroke-linecap:butt;stroke-linejoin:miter;stroke-miterlimit:3.79999995;stroke-opacity:1;stroke-dasharray:5, 10;stroke-dashoffset:0"
           d="m 3473.5,224 0,2085.5" /><path
           inkscape:connector-curvature="0"
           id="path166"
           style="fill:none;stroke:#000000;stroke-width:5;stroke-linecap:butt;stroke-linejoin:miter;stroke-miterlimit:3.79999995;stroke-opacity:1;stroke-dasharray:none"
           d="m 3473.5,224 0,31.5 m 0,2054 0,-31.5" /><g
           transform="scale(10,10)"
           id="g168"><text
             id="text170"
             transform="matrix(1,0,0,-1,345.404,13.1)"><tspan
               id="tspan172"
               y="0"
               x="0"
               style="font-size:7px;font-variant:normal;font-weight:normal;writing-mode:lr-tb;fill:#000000;fill-opacity:1;fill-rule:nonzero;stroke:none;font-family:Helvetica;-inkscape-font-specification:Helvetica">3</tspan></text>
</g><path
           inkscape:connector-curvature="0"
           id="path174"
           style="fill:none;stroke:#000000;stroke-width:5;stroke-linecap:butt;stroke-linejoin:miter;stroke-miterlimit:3.79999995;stroke-opacity:1;stroke-dasharray:none"
           d="m 343,224 3130.5,0 0,2085.5 -3130.5,0 0,-2085.5 z" /><g
           transform="scale(10,10)"
           id="g176"><text
             id="text178"
             transform="matrix(0,1,1,0,7.9,97.8609)"><tspan
               id="tspan180"
               sodipodi:role="line"
               y="0"
               x="0 3.5 7.3920002 9.7229996 12.054 15.946 19.837999 21.784 23.73 27.622 31.514 33.459999 37.352001 41.243999 43.189999 45.136002 47.466999 51.359001 55.250999"
               style="font-size:7px;font-variant:normal;font-weight:normal;writing-mode:lr-tb;fill:#000000;fill-opacity:1;fill-rule:nonzero;stroke:none;font-family:Helvetica;-inkscape-font-specification:Helvetica">current output (ua)</tspan></text>
<text
             id="text182"
             transform="matrix(1,0,0,-1,165.71,2.6)"><tspan
               id="tspan184"
               sodipodi:role="line"
               y="0"
               x="0 3.892 6.223 10.115 11.669 15.561 17.507 21.007 24.899 26.452999 28.399 32.291 36.182999 40.075001 42.021 44.352001 47.852001"
               style="font-size:7px;font-variant:normal;font-weight:normal;writing-mode:lr-tb;fill:#000000;fill-opacity:1;fill-rule:nonzero;stroke:none;font-family:Helvetica;-inkscape-font-specification:Helvetica">drain voltage (v)</tspan><tspan
               id="tspan186"
               sodipodi:role="line"
               y="-236.55"
               x="-41.241798 -37.3498 -33.8498 -31.903799 -28.011801 -24.119801 -20.2278 -18.6738 -15.1738 -11.6738 -10.1198 -6.6198001 -4.6738 -2.7277999 0.77219999 4.6641998 6.9952002 9.3261995 13.2182 17.110201 19.0562 21.002199 24.894199 28.7862 30.732201 34.624199 38.516201 40.4622 42.408199 45.908199 49.408199 51.354198 55.246201 57.577202 61.4692 63.023201 66.915199 68.861198 72.361198 76.253197 77.807198 79.753197 83.645203 87.537201"
               style="font-size:7px;font-variant:normal;font-weight:normal;writing-mode:lr-tb;fill:#000000;fill-opacity:1;fill-rule:nonzero;stroke:none;font-family:Helvetica;-inkscape-font-specification:Helvetica">dc analysis: current output vs drain voltage</tspan><tspan
               id="tspan188"
               sodipodi:role="line"
               y="-219.39999"
               x="87.0382 89.369202 92.869202 96.7612 100.6532 104.5452 106.8762 110.7682 114.6602 118.1602 122.0522 124.7752 127.1062 130.9982 134.8902 138.9782 142.87019 146.76221"
               style="font-size:7px;font-variant:normal;font-weight:normal;writing-mode:lr-tb;fill:#000000;fill-opacity:1;fill-rule:nonzero;stroke:none;font-family:Helvetica;-inkscape-font-specification:Helvetica">(v2#branch*-1e+06)</tspan></text>
</g><path
           inkscape:connector-curvature="0"
           id="path190"
           style="fill:none;stroke:#ff0000;stroke-width:6.4902935;stroke-linecap:butt;stroke-linejoin:miter;stroke-miterlimit:3.79999995;stroke-opacity:1;stroke-dasharray:none"
           d="m 3190,2243 199.5,0 M 864,224 l 1,34.5 104,800.5 104.5,70 104.5,47 104,28 104.5,24.5 104.5,23 104,22 104.5,21.5 104.5,21 104.5,20.5 104,20.5 104.5,20.5 104.5,20 104,20 104.5,19.5 104.5,19.5 104,19.5 104.5,19.5 104.5,19 104.5,19.5 104,19 104.5,18.5 104.5,19 104,18.5 104.5,19" /><path
           inkscape:connector-curvature="0"
           id="path192"
           style="fill:none;stroke:#000000;stroke-width:5;stroke-linecap:butt;stroke-linejoin:miter;stroke-miterlimit:3.79999995;stroke-opacity:1;stroke-dasharray:none"
           d="m 343,224 3130.5,0 0,2085.5 -3130.5,0 0,-2085.5 z" /></g></g></g></svg>