<?xml version="1.0" encoding="UTF-8" standalone="no"?>
<svg
   xmlns:dc="http://purl.org/dc/elements/1.1/"
   xmlns:cc="http://creativecommons.org/ns#"
   xmlns:rdf="http://www.w3.org/1999/02/22-rdf-syntax-ns#"
   xmlns:svg="http://www.w3.org/2000/svg"
   xmlns="http://www.w3.org/2000/svg"
   xmlns:sodipodi="http://sodipodi.sourceforge.net/DTD/sodipodi-0.dtd"
   xmlns:inkscape="http://www.inkscape.org/namespaces/inkscape"
   version="1.1"
   width="800"
   height="637.09772"
   viewBox="0 0 88888.951 70788.705"
   id="svg2"
   inkscape:version="0.48.4 r9939"
   sodipodi:docname="lateral_pnp_current_mirror.sch.svg">
  <metadata
     id="metadata356">
    <rdf:RDF>
      <cc:Work
         rdf:about="">
        <dc:format>image/svg+xml</dc:format>
        <dc:type
           rdf:resource="http://purl.org/dc/dcmitype/StillImage" />
      </cc:Work>
    </rdf:RDF>
  </metadata>
  <defs
     id="defs354" />
  <sodipodi:namedview
     pagecolor="#ffffff"
     bordercolor="#666666"
     borderopacity="1"
     objecttolerance="10"
     gridtolerance="10"
     guidetolerance="10"
     inkscape:pageopacity="0"
     inkscape:pageshadow="2"
     inkscape:window-width="1280"
     inkscape:window-height="750"
     id="namedview352"
     showgrid="false"
     fit-margin-top="0"
     fit-margin-left="0"
     fit-margin-right="0"
     fit-margin-bottom="0"
     inkscape:zoom="0.51502835"
     inkscape:cx="400.21885"
     inkscape:cy="395.29749"
     inkscape:window-x="0"
     inkscape:window-y="0"
     inkscape:window-maximized="1"
     inkscape:current-layer="svg2" />
  <title
     id="title4">SVG Picture created as lateral_pnp_current_mirror.sch.svg date 2017/09/13 10:30:59 </title>
  <desc
     id="desc6">Picture generated by Eeschema-SVG </desc>
  <g
     style="fill:#000000;fill-opacity:1;stroke:#000000;stroke-linecap:round;stroke-linejoin:round;stroke-opacity:1"
     id="g8"
     transform="translate(-41700.02,31738.705)" />
  <g
     style="fill:#000000;fill-opacity:0;stroke:#000000;stroke-width:0;stroke-linecap:round;stroke-linejoin:round;stroke-opacity:1"
     id="g10"
     transform="translate(-41700.02,31738.705)" />
  <g
     style="fill:#840000;fill-opacity:0;stroke:#840000;stroke-width:0;stroke-linecap:round;stroke-linejoin:round;stroke-opacity:1"
     id="g12"
     transform="translate(-41700.02,31738.705)" />
  <g
     style="fill:#840000;fill-opacity:0;stroke:#840000;stroke-width:100;stroke-linecap:round;stroke-linejoin:round;stroke-opacity:1"
     id="g14"
     transform="matrix(5.2012274,0,0,5.2012274,-216891.2,-132319.23)">
    <polyline
       fill="none;"
       points="48750,38500 50250,38500 "
       id="polyline16" />
    <polyline
       fill="none;"
       points="49000,38750 50000,38750 "
       id="polyline18" />
    <polyline
       fill="none;"
       points="49250,39000 49750,39000 "
       id="polyline20" />
    <polyline
       fill="none;"
       points="49500,37500 49500,38500 "
       id="polyline22" />
  </g>
  <g
     style="fill:#840000;fill-opacity:0;stroke:#840000;stroke-width:60;stroke-linecap:round;stroke-linejoin:round;stroke-opacity:1"
     id="g24"
     transform="matrix(5.2012274,0,0,5.2012274,-216891.2,-132319.23)">
    <path
       d="m 49500,37500 0,0"
       id="path26"
       inkscape:connector-curvature="0" />
  </g>
  <g
     style="fill:#840000;fill-opacity:0;stroke:#840000;stroke-width:0;stroke-linecap:round;stroke-linejoin:round;stroke-opacity:1"
     id="g28"
     transform="translate(-41700.02,31738.705)" />
  <g
     style="fill:#840000;fill-opacity:0;stroke:#840000;stroke-width:100;stroke-linecap:round;stroke-linejoin:round;stroke-opacity:1"
     id="g30"
     transform="matrix(5.2012274,0,0,5.2012274,-216891.2,-132319.23)">
    <circle
       cx="43000"
       cy="26000"
       r="500"
       id="circle32"
       d="m 43500,26000 c 0,276.142 -223.858,500 -500,500 -276.142,0 -500,-223.858 -500,-500 0,-276.142 223.858,-500 500,-500 276.142,0 500,223.858 500,500 z"
       sodipodi:cx="43000"
       sodipodi:cy="26000"
       sodipodi:rx="500"
       sodipodi:ry="500" />
    <polyline
       fill="none;"
       points="43000,26250 43000,25750 "
       id="polyline34" />
    <polyline
       fill="none;"
       points="44000,26000 43500,26000 "
       id="polyline36" />
    <polyline
       fill="none;"
       points="43250,26000 42750,26000 "
       id="polyline38" />
  </g>
  <g
     style="fill:#840000;fill-opacity:0;stroke:#840000;stroke-width:60;stroke-linecap:round;stroke-linejoin:round;stroke-opacity:1"
     id="g40"
     transform="matrix(5.2012274,0,0,5.2012274,-216891.2,-132319.23)">
    <path
       d="m 44000,26000 0,0"
       id="path42"
       inkscape:connector-curvature="0" />
  </g>
  <g
     style="fill:#008484;fill-opacity:0;stroke:#008484;stroke-width:60;stroke-linecap:round;stroke-linejoin:round;stroke-opacity:1"
     id="g44"
     transform="matrix(5.2012274,0,0,5.2012274,-216891.2,-132319.23)">
    <path
       d="m 41730,26460 500,-160 -500,-170"
       id="path46"
       inkscape:connector-curvature="0" />
    <path
       d="m 42040,25960 0,-380"
       id="path48"
       inkscape:connector-curvature="0" />
    <path
       d="m 42230,25770 -380,0"
       id="path50"
       inkscape:connector-curvature="0" />
  </g>
  <g
     style="fill:#008484;fill-opacity:0;stroke:#008484;stroke-width:0;stroke-linecap:round;stroke-linejoin:round;stroke-opacity:1"
     id="g52"
     transform="translate(-41700.02,31738.705)" />
  <g
     style="fill:#840000;fill-opacity:0;stroke:#840000;stroke-width:0;stroke-linecap:round;stroke-linejoin:round;stroke-opacity:1"
     id="g54"
     transform="translate(-41700.02,31738.705)" />
  <g
     style="fill:#840000;fill-opacity:0;stroke:#840000;stroke-width:100;stroke-linecap:round;stroke-linejoin:round;stroke-opacity:1"
     id="g56"
     transform="matrix(5.2012274,0,0,5.2012274,-216891.2,-132319.23)">
    <circle
       cx="48000"
       cy="33500"
       r="1000"
       id="circle58"
       d="m 49000,33500 c 0,552.285 -447.715,1000 -1000,1000 -552.285,0 -1000,-447.715 -1000,-1000 0,-552.285 447.715,-1000 1000,-1000 552.285,0 1000,447.715 1000,1000 z"
       sodipodi:cx="48000"
       sodipodi:cy="33500"
       sodipodi:rx="1000"
       sodipodi:ry="1000" />
  </g>
  <g
     style="fill:#840000;fill-opacity:1;stroke:#840000;stroke-width:100;stroke-linecap:round;stroke-linejoin:round;stroke-opacity:1"
     id="g60"
     transform="matrix(5.2012274,0,0,5.2012274,-216891.2,-132319.23)">
    <polyline
       style="fill-rule:evenodd"
       points="48000,32750 48000,34250 47750,33750 48250,33750 48000,34250 "
       id="polyline62" />
  </g>
  <g
     style="fill:#840000;fill-opacity:1;stroke:#840000;stroke-width:60;stroke-linecap:round;stroke-linejoin:round;stroke-opacity:1"
     id="g64"
     transform="translate(-41700.02,31738.705)" />
  <g
     style="fill:#840000;fill-opacity:0;stroke:#840000;stroke-width:60;stroke-linecap:round;stroke-linejoin:round;stroke-opacity:1"
     id="g66"
     transform="matrix(5.2012274,0,0,5.2012274,-216891.2,-132319.23)">
    <path
       d="m 48000,32500 0,0"
       id="path68"
       inkscape:connector-curvature="0" />
    <path
       d="m 48000,34500 0,0"
       id="path70"
       inkscape:connector-curvature="0" />
  </g>
  <g
     style="fill:#008484;fill-opacity:0;stroke:#008484;stroke-width:60;stroke-linecap:round;stroke-linejoin:round;stroke-opacity:1"
     id="g72"
     transform="matrix(5.2012274,0,0,5.2012274,-216891.2,-132319.23)">
    <path
       d="m 48370,32230 0,-500"
       id="path74"
       inkscape:connector-curvature="0" />
    <path
       d="m 48870,32230 -280,0"
       id="path76"
       inkscape:connector-curvature="0" />
    <path
       d="m 48730,32230 0,-500 -50,70 -50,50 -40,20"
       id="path78"
       inkscape:connector-curvature="0" />
    <path
       d="m 48610,34790 -240,0 -20,230 20,-20 50,-20 120,0 40,20 30,20 20,50 0,120 -20,50 -30,20 -40,30 -120,0 -50,-30 -20,-20"
       id="path80"
       inkscape:connector-curvature="0" />
    <path
       d="m 48940,34790 50,0 50,20 20,20 30,50 20,100 0,120 -20,90 -30,50 -20,20 -50,30 -50,0 -40,-30 -30,-20 -20,-50 -20,-90 0,-120 20,-100 20,-50 30,-20 40,-20"
       id="path82"
       inkscape:connector-curvature="0" />
    <path
       d="m 49540,34950 0,340"
       id="path84"
       inkscape:connector-curvature="0" />
    <path
       d="m 49330,34950 0,260 20,50 50,30 70,0 50,-30 20,-20"
       id="path86"
       inkscape:connector-curvature="0" />
    <path
       d="m 49760,35140 230,0"
       id="path88"
       inkscape:connector-curvature="0" />
    <path
       d="m 49710,35290 160,-500 170,500"
       id="path90"
       inkscape:connector-curvature="0" />
  </g>
  <g
     style="fill:#008400;fill-opacity:0;stroke:#008400;stroke-width:60;stroke-linecap:round;stroke-linejoin:round;stroke-opacity:1"
     id="g92"
     transform="matrix(5.2012274,0,0,5.2012274,-216891.2,-132319.23)">
    <path
       d="m 52500,28000 -500,0"
       id="path94"
       inkscape:connector-curvature="0" />
    <path
       d="m 52500,26000 0,2000"
       id="path96"
       inkscape:connector-curvature="0" />
  </g>
  <g
     style="fill:#008400;fill-opacity:0;stroke:#008400;stroke-width:0;stroke-linecap:round;stroke-linejoin:round;stroke-opacity:1"
     id="g98"
     transform="translate(-41700.02,31738.705)" />
  <g
     style="fill:#840000;fill-opacity:0;stroke:#840000;stroke-width:0;stroke-linecap:round;stroke-linejoin:round;stroke-opacity:1"
     id="g100"
     transform="translate(-41700.02,31738.705)" />
  <g
     style="fill:#840000;fill-opacity:0;stroke:#840000;stroke-width:100;stroke-linecap:round;stroke-linejoin:round;stroke-opacity:1"
     id="g102"
     transform="matrix(5.2012274,0,0,5.2012274,-216891.2,-132319.23)">
    <circle
       cx="54000"
       cy="33500"
       r="1000"
       id="circle104"
       d="m 55000,33500 c 0,552.285 -447.715,1000 -1000,1000 -552.285,0 -1000,-447.715 -1000,-1000 0,-552.285 447.715,-1000 1000,-1000 552.285,0 1000,447.715 1000,1000 z"
       sodipodi:cx="54000"
       sodipodi:cy="33500"
       sodipodi:rx="1000"
       sodipodi:ry="1000" />
    <polyline
       fill="none;"
       points="53750,34000 54250,34000 "
       id="polyline106" />
    <polyline
       fill="none;"
       points="54000,33250 54000,32750 "
       id="polyline108" />
    <polyline
       fill="none;"
       points="54250,33000 53750,33000 "
       id="polyline110" />
  </g>
  <g
     style="fill:#840000;fill-opacity:0;stroke:#840000;stroke-width:60;stroke-linecap:round;stroke-linejoin:round;stroke-opacity:1"
     id="g112"
     transform="matrix(5.2012274,0,0,5.2012274,-216891.2,-132319.23)">
    <path
       d="m 54000,32500 0,0"
       id="path114"
       inkscape:connector-curvature="0" />
    <path
       d="m 54000,34500 0,0"
       id="path116"
       inkscape:connector-curvature="0" />
  </g>
  <g
     style="fill:#008484;fill-opacity:0;stroke:#008484;stroke-width:60;stroke-linecap:round;stroke-linejoin:round;stroke-opacity:1"
     id="g118"
     transform="matrix(5.2012274,0,0,5.2012274,-216891.2,-132319.23)">
    <path
       d="m 54550,31980 160,500 170,-500"
       id="path120"
       inkscape:connector-curvature="0" />
    <path
       d="m 55030,32020 20,-20 50,-20 120,0 40,20 30,20 20,50 0,50 -20,70 -290,290 310,0"
       id="path122"
       inkscape:connector-curvature="0" />
    <path
       d="m 54830,34700 0,340"
       id="path124"
       inkscape:connector-curvature="0" />
    <path
       d="m 54710,34510 -110,360 300,0"
       id="path126"
       inkscape:connector-curvature="0" />
    <path
       d="m 55030,34540 160,500 170,-500"
       id="path128"
       inkscape:connector-curvature="0" />
  </g>
  <g
     style="fill:#008484;fill-opacity:0;stroke:#008484;stroke-width:0;stroke-linecap:round;stroke-linejoin:round;stroke-opacity:1"
     id="g130"
     transform="translate(-41700.02,31738.705)" />
  <g
     style="fill:#840000;fill-opacity:0;stroke:#840000;stroke-width:0;stroke-linecap:round;stroke-linejoin:round;stroke-opacity:1"
     id="g132"
     transform="translate(-41700.02,31738.705)" />
  <g
     style="fill:#840000;fill-opacity:0;stroke:#840000;stroke-width:100;stroke-linecap:round;stroke-linejoin:round;stroke-opacity:1"
     id="g134"
     transform="matrix(5.2012274,0,0,5.2012274,-216891.2,-132319.23)">
    <circle
       cx="45000"
       cy="33500"
       r="1000"
       id="circle136"
       d="m 46000,33500 c 0,552.285 -447.715,1000 -1000,1000 -552.285,0 -1000,-447.715 -1000,-1000 0,-552.285 447.715,-1000 1000,-1000 552.285,0 1000,447.715 1000,1000 z"
       sodipodi:cx="45000"
       sodipodi:cy="33500"
       sodipodi:rx="1000"
       sodipodi:ry="1000" />
    <polyline
       fill="none;"
       points="44750,34000 45250,34000 "
       id="polyline138" />
    <polyline
       fill="none;"
       points="45000,33250 45000,32750 "
       id="polyline140" />
    <polyline
       fill="none;"
       points="45250,33000 44750,33000 "
       id="polyline142" />
  </g>
  <g
     style="fill:#840000;fill-opacity:0;stroke:#840000;stroke-width:60;stroke-linecap:round;stroke-linejoin:round;stroke-opacity:1"
     id="g144"
     transform="matrix(5.2012274,0,0,5.2012274,-216891.2,-132319.23)">
    <path
       d="m 45000,32500 0,0"
       id="path146"
       inkscape:connector-curvature="0" />
    <path
       d="m 45000,34500 0,0"
       id="path148"
       inkscape:connector-curvature="0" />
  </g>
  <g
     style="fill:#008484;fill-opacity:0;stroke:#008484;stroke-width:60;stroke-linecap:round;stroke-linejoin:round;stroke-opacity:1"
     id="g150"
     transform="matrix(5.2012274,0,0,5.2012274,-216891.2,-132319.23)">
    <path
       d="m 43640,31980 160,500 170,-500"
       id="path152"
       inkscape:connector-curvature="0" />
    <path
       d="m 44400,32480 -280,0"
       id="path154"
       inkscape:connector-curvature="0" />
    <path
       d="m 44260,32480 0,-500 -50,70 -50,50 -40,20"
       id="path156"
       inkscape:connector-curvature="0" />
    <path
       d="m 43950,34540 -240,0 -20,230 20,-20 50,-20 120,0 40,20 30,20 20,50 0,120 -20,50 -30,20 -40,30 -120,0 -50,-30 -20,-20"
       id="path158"
       inkscape:connector-curvature="0" />
    <path
       d="m 44120,34540 160,500 170,-500"
       id="path160"
       inkscape:connector-curvature="0" />
  </g>
  <g
     style="fill:#008400;fill-opacity:0;stroke:#008400;stroke-width:60;stroke-linecap:round;stroke-linejoin:round;stroke-opacity:1"
     id="g162"
     transform="matrix(5.2012274,0,0,5.2012274,-216891.2,-132319.23)">
    <path
       d="m 52000,30000 2000,0"
       id="path164"
       inkscape:connector-curvature="0" />
    <path
       d="m 54000,30000 0,2500"
       id="path166"
       inkscape:connector-curvature="0" />
  </g>
  <g
     style="fill:#000000;fill-opacity:0;stroke:#000000;stroke-width:60;stroke-linecap:round;stroke-linejoin:round;stroke-opacity:1"
     id="g168"
     transform="matrix(5.2012274,0,0,5.2012274,-216891.2,-132319.23)">
    <path
       d="m 47140,25470 0,400"
       id="path170"
       inkscape:connector-curvature="0" />
    <path
       d="m 47140,25530 30,-30 60,-30 80,0 60,30 30,60 0,310"
       id="path172"
       inkscape:connector-curvature="0" />
    <path
       d="m 47540,25930 460,0"
       id="path174"
       inkscape:connector-curvature="0" />
    <path
       d="m 48140,25470 0,600"
       id="path176"
       inkscape:connector-curvature="0" />
    <path
       d="m 48140,25500 60,-30 110,0 60,30 30,30 30,60 0,170 -30,50 -30,30 -60,30 -110,0 -60,-30"
       id="path178"
       inkscape:connector-curvature="0" />
    <path
       d="m 48770,25870 -60,-30 -30,-30 -30,-50 0,-170 30,-60 30,-30 60,-30 80,0 60,30 30,30 30,60 0,170 -30,50 -30,30 -60,30 -80,0"
       id="path180"
       inkscape:connector-curvature="0" />
    <path
       d="m 49190,25840 60,30 120,0 50,-30 30,-50 0,-30 -30,-60 -50,-30 -90,0 -60,-30 -30,-50 0,-30 30,-60 60,-30 90,0 50,30"
       id="path182"
       inkscape:connector-curvature="0" />
  </g>
  <g
     style="fill:#008400;fill-opacity:0;stroke:#008400;stroke-width:60;stroke-linecap:round;stroke-linejoin:round;stroke-opacity:1"
     id="g184"
     transform="matrix(5.2012274,0,0,5.2012274,-216891.2,-132319.23)">
    <path
       d="m 52000,30500 500,0"
       id="path186"
       inkscape:connector-curvature="0" />
    <path
       d="m 52500,30500 0,1000"
       id="path188"
       inkscape:connector-curvature="0" />
    <path
       d="m 52500,31500 -4500,0"
       id="path190"
       inkscape:connector-curvature="0" />
    <path
       d="m 48000,29000 0,3500"
       id="path192"
       inkscape:connector-curvature="0" />
    <path
       d="m 45000,32500 0,-6500"
       id="path194"
       inkscape:connector-curvature="0" />
    <path
       d="m 44000,26000 8500,0"
       id="path196"
       inkscape:connector-curvature="0" />
  </g>
  <g
     style="fill:#008400;fill-opacity:0;stroke:#008400;stroke-width:0;stroke-linecap:round;stroke-linejoin:round;stroke-opacity:1"
     id="g198"
     transform="translate(-41700.02,31738.705)" />
  <g
     style="fill:#008400;fill-opacity:1;stroke:#008400;stroke-width:100;stroke-linecap:round;stroke-linejoin:round;stroke-opacity:1"
     id="g200"
     transform="matrix(5.2012274,0,0,5.2012274,-216891.2,-132319.23)">
    <circle
       cx="45000"
       cy="26000"
       r="200"
       id="circle202"
       d="m 45200,26000 c 0,110.457 -89.543,200 -200,200 -110.457,0 -200,-89.543 -200,-200 0,-110.457 89.543,-200 200,-200 110.457,0 200,89.543 200,200 z"
       sodipodi:cx="45000"
       sodipodi:cy="26000"
       sodipodi:rx="200"
       sodipodi:ry="200" />
  </g>
  <g
     style="fill:#008400;fill-opacity:1;stroke:#008400;stroke-width:60;stroke-linecap:round;stroke-linejoin:round;stroke-opacity:1"
     id="g204"
     transform="translate(-41700.02,31738.705)" />
  <g
     style="fill:#008400;fill-opacity:0;stroke:#008400;stroke-width:60;stroke-linecap:round;stroke-linejoin:round;stroke-opacity:1"
     id="g206"
     transform="matrix(5.2012274,0,0,5.2012274,-216891.2,-132319.23)">
    <path
       d="m 54000,36500 0,-2000"
       id="path208"
       inkscape:connector-curvature="0" />
    <path
       d="m 45000,36500 9000,0"
       id="path210"
       inkscape:connector-curvature="0" />
    <path
       d="m 48000,34500 0,2000"
       id="path212"
       inkscape:connector-curvature="0" />
  </g>
  <g
     style="fill:#008400;fill-opacity:0;stroke:#008400;stroke-width:0;stroke-linecap:round;stroke-linejoin:round;stroke-opacity:1"
     id="g214"
     transform="translate(-41700.02,31738.705)" />
  <g
     style="fill:#008400;fill-opacity:1;stroke:#008400;stroke-width:100;stroke-linecap:round;stroke-linejoin:round;stroke-opacity:1"
     id="g216"
     transform="matrix(5.2012274,0,0,5.2012274,-216891.2,-132319.23)">
    <circle
       cx="49500"
       cy="36500"
       r="200"
       id="circle218"
       d="m 49700,36500 c 0,110.457 -89.543,200 -200,200 -110.457,0 -200,-89.543 -200,-200 0,-110.457 89.543,-200 200,-200 110.457,0 200,89.543 200,200 z"
       sodipodi:cx="49500"
       sodipodi:cy="36500"
       sodipodi:rx="200"
       sodipodi:ry="200" />
  </g>
  <g
     style="fill:#008400;fill-opacity:1;stroke:#008400;stroke-width:60;stroke-linecap:round;stroke-linejoin:round;stroke-opacity:1"
     id="g220"
     transform="translate(-41700.02,31738.705)" />
  <g
     style="fill:#008400;fill-opacity:0;stroke:#008400;stroke-width:60;stroke-linecap:round;stroke-linejoin:round;stroke-opacity:1"
     id="g222"
     transform="matrix(5.2012274,0,0,5.2012274,-216891.2,-132319.23)">
    <path
       d="m 45000,34500 0,2000"
       id="path224"
       inkscape:connector-curvature="0" />
  </g>
  <g
     style="fill:#008400;fill-opacity:0;stroke:#008400;stroke-width:0;stroke-linecap:round;stroke-linejoin:round;stroke-opacity:1"
     id="g226"
     transform="translate(-41700.02,31738.705)" />
  <g
     style="fill:#008400;fill-opacity:1;stroke:#008400;stroke-width:100;stroke-linecap:round;stroke-linejoin:round;stroke-opacity:1"
     id="g228"
     transform="matrix(5.2012274,0,0,5.2012274,-216891.2,-132319.23)">
    <circle
       cx="48000"
       cy="36500"
       r="200"
       id="circle230"
       d="m 48200,36500 c 0,110.457 -89.543,200 -200,200 -110.457,0 -200,-89.543 -200,-200 0,-110.457 89.543,-200 200,-200 110.457,0 200,89.543 200,200 z"
       sodipodi:cx="48000"
       sodipodi:cy="36500"
       sodipodi:rx="200"
       sodipodi:ry="200" />
  </g>
  <g
     style="fill:#008400;fill-opacity:1;stroke:#008400;stroke-width:60;stroke-linecap:round;stroke-linejoin:round;stroke-opacity:1"
     id="g232"
     transform="translate(-41700.02,31738.705)" />
  <g
     style="fill:#008400;fill-opacity:0;stroke:#008400;stroke-width:60;stroke-linecap:round;stroke-linejoin:round;stroke-opacity:1"
     id="g234"
     transform="matrix(5.2012274,0,0,5.2012274,-216891.2,-132319.23)">
    <path
       d="m 50500,29000 -2500,0"
       id="path236"
       inkscape:connector-curvature="0" />
  </g>
  <g
     style="fill:#008400;fill-opacity:0;stroke:#008400;stroke-width:0;stroke-linecap:round;stroke-linejoin:round;stroke-opacity:1"
     id="g238"
     transform="translate(-41700.02,31738.705)" />
  <g
     style="fill:#008400;fill-opacity:1;stroke:#008400;stroke-width:100;stroke-linecap:round;stroke-linejoin:round;stroke-opacity:1"
     id="g240"
     transform="matrix(5.2012274,0,0,5.2012274,-216891.2,-132319.23)">
    <circle
       cx="48000"
       cy="31500"
       r="200"
       id="circle242"
       d="m 48200,31500 c 0,110.457 -89.543,200 -200,200 -110.457,0 -200,-89.543 -200,-200 0,-110.457 89.543,-200 200,-200 110.457,0 200,89.543 200,200 z"
       sodipodi:cx="48000"
       sodipodi:cy="31500"
       sodipodi:rx="200"
       sodipodi:ry="200" />
  </g>
  <g
     style="fill:#008400;fill-opacity:1;stroke:#008400;stroke-width:60;stroke-linecap:round;stroke-linejoin:round;stroke-opacity:1"
     id="g244"
     transform="translate(-41700.02,31738.705)" />
  <g
     style="fill:#000000;fill-opacity:0;stroke:#000000;stroke-width:60;stroke-linecap:round;stroke-linejoin:round;stroke-opacity:1"
     id="g246"
     transform="matrix(5.2012274,0,0,5.2012274,-216891.2,-132319.23)">
    <path
       d="m 49760,35770 50,0 60,30 30,30 30,60 30,110 0,140 -30,120 -30,50 -30,30 -60,30 -50,0 -60,-30 -30,-30 -30,-50 -30,-120 0,-140 30,-110 30,-60 30,-30 60,-30"
       id="path248"
       inkscape:connector-curvature="0" />
    <path
       d="m 48140,28470 0,400"
       id="path250"
       inkscape:connector-curvature="0" />
    <path
       d="m 48140,28530 30,-30 60,-30 80,0 60,30 30,60 0,310"
       id="path252"
       inkscape:connector-curvature="0" />
    <path
       d="m 49000,28870 -350,0"
       id="path254"
       inkscape:connector-curvature="0" />
    <path
       d="m 48830,28870 0,-600 -60,90 -60,50 -60,30"
       id="path256"
       inkscape:connector-curvature="0" />
    <path
       d="m 53140,29470 0,400"
       id="path258"
       inkscape:connector-curvature="0" />
    <path
       d="m 53140,29530 30,-30 60,-30 80,0 60,30 30,60 0,310"
       id="path260"
       inkscape:connector-curvature="0" />
    <path
       d="m 53650,29330 30,-30 60,-30 140,0 60,30 30,30 30,60 0,50 -30,90 -340,340 370,0"
       id="path262"
       inkscape:connector-curvature="0" />
  </g>
  <g
     style="fill:#000000;fill-opacity:0;stroke:#000000;stroke-width:0;stroke-linecap:round;stroke-linejoin:round;stroke-opacity:1"
     id="g264"
     transform="translate(-41700.02,31738.705)" />
  <g
     style="fill:#840000;fill-opacity:0;stroke:#840000;stroke-width:0;stroke-linecap:round;stroke-linejoin:round;stroke-opacity:1"
     id="g266"
     transform="translate(-41700.02,31738.705)" />
  <g
     style="fill:#840000;fill-opacity:0;stroke:#840000;stroke-width:100;stroke-linecap:round;stroke-linejoin:round;stroke-opacity:1"
     id="g268"
     transform="matrix(5.2012274,0,0,5.2012274,-216891.2,-132319.23)">
    <path
       d="m 50500,30251.3 a 750,750 0 0 0 1500,0"
       id="path270"
       inkscape:connector-curvature="0" />
    <path
       d="m 52000,28248.7 a 750,750 0 0 0 -1500,0"
       id="path272"
       inkscape:connector-curvature="0" />
    <polyline
       fill="none;"
       points="50500,28250 50500,30250 "
       id="polyline274" />
    <polyline
       fill="none;"
       points="51000,30250 51000,28250 "
       id="polyline276" />
    <polyline
       fill="none;"
       points="51000,29000 50500,29000 "
       id="polyline278" />
    <polyline
       fill="none;"
       points="52000,30500 51000,30000 "
       id="polyline280" />
    <polyline
       fill="none;"
       points="52000,30250 52000,28250 "
       id="polyline282" />
    <polyline
       fill="none;"
       points="52000,30000 51000,29500 "
       id="polyline284" />
    <polyline
       fill="none;"
       points="52000,28000 51000,28500 "
       id="polyline286" />
  </g>
  <g
     style="fill:#840000;fill-opacity:1;stroke:#840000;stroke-width:100;stroke-linecap:round;stroke-linejoin:round;stroke-opacity:1"
     id="g288"
     transform="matrix(5.2012274,0,0,5.2012274,-216891.2,-132319.23)">
    <polyline
       style="fill-rule:evenodd"
       points="51400,28300 51450,28400 51200,28400 51350,28200 51400,28300 "
       id="polyline290" />
  </g>
  <g
     style="fill:#840000;fill-opacity:1;stroke:#840000;stroke-width:60;stroke-linecap:round;stroke-linejoin:round;stroke-opacity:1"
     id="g292"
     transform="translate(-41700.02,31738.705)" />
  <g
     style="fill:#840000;fill-opacity:0;stroke:#840000;stroke-width:60;stroke-linecap:round;stroke-linejoin:round;stroke-opacity:1"
     id="g294"
     transform="matrix(5.2012274,0,0,5.2012274,-216891.2,-132319.23)">
    <path
       d="m 50500,29000 0,0"
       id="path296"
       inkscape:connector-curvature="0" />
    <path
       d="m 52000,28000 0,0"
       id="path298"
       inkscape:connector-curvature="0" />
    <path
       d="m 52000,30500 0,0"
       id="path300"
       inkscape:connector-curvature="0" />
    <path
       d="m 52000,30000 0,0"
       id="path302"
       inkscape:connector-curvature="0" />
  </g>
  <g
     style="fill:#008484;fill-opacity:0;stroke:#008484;stroke-width:60;stroke-linecap:round;stroke-linejoin:round;stroke-opacity:1"
     id="g304"
     transform="matrix(5.2012274,0,0,5.2012274,-216891.2,-132319.23)">
    <path
       d="m 51200,27270 -50,-20 -40,-50 -70,-70 -50,-20 -50,0"
       id="path306"
       inkscape:connector-curvature="0" />
    <path
       d="m 50960,27230 -40,-30 -50,-50 -20,-90 0,-170 20,-90 50,-50 40,-20 100,0 50,20 40,50 30,90 0,170 -30,90 -40,50 -50,30 -100,0"
       id="path308"
       inkscape:connector-curvature="0" />
    <path
       d="m 51650,27230 -280,0"
       id="path310"
       inkscape:connector-curvature="0" />
    <path
       d="m 51510,27230 0,-500 -50,70 -50,50 -40,20"
       id="path312"
       inkscape:connector-curvature="0" />
    <path
       d="m 52620,28760 0,-500 190,0 50,20 20,20 20,50 0,70 -20,50 -20,20 -50,30 -190,0"
       id="path314"
       inkscape:connector-curvature="0" />
    <path
       d="m 53120,28760 0,-500 280,500 0,-500"
       id="path316"
       inkscape:connector-curvature="0" />
    <path
       d="m 53640,28760 0,-500 190,0 50,20 20,20 20,50 0,70 -20,50 -20,20 -50,30 -190,0"
       id="path318"
       inkscape:connector-curvature="0" />
    <path
       d="m 54140,28570 380,0"
       id="path320"
       inkscape:connector-curvature="0" />
    <path
       d="m 54740,28730 70,30 120,0 40,-30 30,-20 20,-50 0,-50 -20,-40 -30,-30 -40,-20 -100,-30 -50,-20 -20,-20 -20,-50 0,-50 20,-50 20,-20 50,-20 120,0 70,20"
       id="path322"
       inkscape:connector-curvature="0" />
    <path
       d="m 55240,28420 0,500"
       id="path324"
       inkscape:connector-curvature="0" />
    <path
       d="m 55240,28450 50,-30 90,0 50,30 20,20 30,50 0,140 -30,50 -20,20 -50,30 -90,0 -50,-30"
       id="path326"
       inkscape:connector-curvature="0" />
    <path
       d="m 55760,28760 -50,-30 -20,-50 0,-420"
       id="path328"
       inkscape:connector-curvature="0" />
    <path
       d="m 55950,28760 0,-340"
       id="path330"
       inkscape:connector-curvature="0" />
    <path
       d="m 55950,28260 -20,20 20,20 20,-20 -20,-20 0,40"
       id="path332"
       inkscape:connector-curvature="0" />
    <path
       d="m 56120,28420 190,0"
       id="path334"
       inkscape:connector-curvature="0" />
    <path
       d="m 56190,28260 0,420 20,50 50,30 50,0"
       id="path336"
       inkscape:connector-curvature="0" />
    <path
       d="m 56480,28570 380,0"
       id="path338"
       inkscape:connector-curvature="0" />
    <path
       d="m 57380,28710 -20,20 -70,30 -50,0 -70,-30 -50,-50 -20,-40 -20,-100 0,-70 20,-90 20,-50 50,-50 70,-20 50,0 70,20 20,20"
       id="path340"
       inkscape:connector-curvature="0" />
    <path
       d="m 57690,28260 100,0 50,20 40,50 30,90 0,170 -30,90 -40,50 -50,30 -100,0 -40,-30 -50,-50 -20,-90 0,-170 20,-90 50,-50 40,-20"
       id="path342"
       inkscape:connector-curvature="0" />
    <path
       d="m 58360,28760 -240,0 0,-500"
       id="path344"
       inkscape:connector-curvature="0" />
    <path
       d="m 58760,28760 -240,0 0,-500"
       id="path346"
       inkscape:connector-curvature="0" />
  </g>
  <g
     style="fill:#008400;fill-opacity:0;stroke:#008400;stroke-width:60;stroke-linecap:round;stroke-linejoin:round;stroke-opacity:1"
     id="g348"
     transform="matrix(5.2012274,0,0,5.2012274,-216891.2,-132319.23)">
    <path
       d="m 49500,37500 0,-1000"
       id="path350"
       inkscape:connector-curvature="0" />
  </g>
</svg>
