<?xml version="1.0" encoding="UTF-8" standalone="no"?>
<!-- Created with Inkscape (http://www.inkscape.org/) -->

<svg
   xmlns:dc="http://purl.org/dc/elements/1.1/"
   xmlns:cc="http://creativecommons.org/ns#"
   xmlns:rdf="http://www.w3.org/1999/02/22-rdf-syntax-ns#"
   xmlns:svg="http://www.w3.org/2000/svg"
   xmlns="http://www.w3.org/2000/svg"
   xmlns:sodipodi="http://sodipodi.sourceforge.net/DTD/sodipodi-0.dtd"
   xmlns:inkscape="http://www.inkscape.org/namespaces/inkscape"
   id="svg2"
   version="1.1"
   inkscape:version="0.48.4 r9939"
   width="800"
   height="562.02161"
   xml:space="preserve"
   sodipodi:docname="mos_current_mirror_cascode_stage_simulation_analysis_dc.eps"><metadata
     id="metadata8"><rdf:RDF><cc:Work
         rdf:about=""><dc:format>image/svg+xml</dc:format><dc:type
           rdf:resource="http://purl.org/dc/dcmitype/StillImage" /><dc:title></dc:title></cc:Work></rdf:RDF></metadata><defs
     id="defs6" /><sodipodi:namedview
     pagecolor="#ffffff"
     bordercolor="#666666"
     borderopacity="1"
     objecttolerance="10"
     gridtolerance="10"
     guidetolerance="10"
     inkscape:pageopacity="0"
     inkscape:pageshadow="2"
     inkscape:window-width="1280"
     inkscape:window-height="750"
     id="namedview4"
     showgrid="false"
     fit-margin-top="0"
     fit-margin-left="0"
     fit-margin-right="0"
     fit-margin-bottom="0"
     inkscape:zoom="0.73777778"
     inkscape:cx="393.80427"
     inkscape:cy="268.79118"
     inkscape:window-x="0"
     inkscape:window-y="0"
     inkscape:window-maximized="1"
     inkscape:current-layer="g12" /><g
     id="g10"
     inkscape:groupmode="layer"
     inkscape:label="ink_ext_XXXXXX"
     transform="matrix(1.25,0,0,-1.25,-3.4962494,563.36408)"><g
       id="g12"
       transform="scale(0.1,0.1)"><path
         d="m 610.43362,580.68647 5788.02768,0"
         style="fill:none;stroke:#000000;stroke-width:2.3111434;stroke-linecap:butt;stroke-linejoin:miter;stroke-miterlimit:3.79999995;stroke-opacity:1;stroke-dasharray:9.24457387, 18.48914774;stroke-dashoffset:0"
         id="path14"
         inkscape:connector-curvature="0" /><path
         d="m 610.43362,580.68647 58.24082,0 m 5729.78686,0 -58.2408,0"
         style="fill:none;stroke:#000000;stroke-width:9.24457359;stroke-linecap:butt;stroke-linejoin:miter;stroke-miterlimit:3.79999995;stroke-opacity:1;stroke-dasharray:none"
         id="path16"
         inkscape:connector-curvature="0" /><g
         id="g18"
         transform="matrix(18.489148,0,0,18.489148,-23.744146,-9.1173447)"><text
           transform="matrix(1,0,0,-1,16.4789,29.6)"
           id="text20"><tspan
             style="font-size:7px;font-variant:normal;font-weight:normal;writing-mode:lr-tb;fill:#000000;fill-opacity:1;fill-rule:nonzero;stroke:none;font-family:Helvetica;-inkscape-font-specification:Helvetica"
             x="0 3.892 7.7839999 9.7299995"
             y="0"
             sodipodi:role="line"
             id="tspan22">49.1</tspan></text>
</g><path
         d="m 610.43362,1018.8793 5788.02768,0"
         style="fill:none;stroke:#000000;stroke-width:2.3111434;stroke-linecap:butt;stroke-linejoin:miter;stroke-miterlimit:3.79999995;stroke-opacity:1;stroke-dasharray:9.24457387, 18.48914774;stroke-dashoffset:0"
         id="path24"
         inkscape:connector-curvature="0" /><path
         d="m 610.43362,1018.8793 58.24082,0 m 5729.78686,0 -58.2408,0"
         style="fill:none;stroke:#000000;stroke-width:9.24457359;stroke-linecap:butt;stroke-linejoin:miter;stroke-miterlimit:3.79999995;stroke-opacity:1;stroke-dasharray:none"
         id="path26"
         inkscape:connector-curvature="0" /><g
         id="g28"
         transform="matrix(18.489148,0,0,18.489148,-23.744146,-9.1173447)"><text
           transform="matrix(1,0,0,-1,16.4789,53.3)"
           id="text30"><tspan
             style="font-size:7px;font-variant:normal;font-weight:normal;writing-mode:lr-tb;fill:#000000;fill-opacity:1;fill-rule:nonzero;stroke:none;font-family:Helvetica;-inkscape-font-specification:Helvetica"
             x="0 3.892 7.7839999 9.7299995"
             y="0"
             sodipodi:role="line"
             id="tspan32">49.2</tspan></text>
</g><path
         d="m 610.43362,1457.0721 5788.02768,0"
         style="fill:none;stroke:#000000;stroke-width:2.3111434;stroke-linecap:butt;stroke-linejoin:miter;stroke-miterlimit:3.79999995;stroke-opacity:1;stroke-dasharray:9.24457387, 18.48914774;stroke-dashoffset:0"
         id="path34"
         inkscape:connector-curvature="0" /><path
         d="m 610.43362,1457.0721 58.24082,0 m 5729.78686,0 -58.2408,0"
         style="fill:none;stroke:#000000;stroke-width:9.24457359;stroke-linecap:butt;stroke-linejoin:miter;stroke-miterlimit:3.79999995;stroke-opacity:1;stroke-dasharray:none"
         id="path36"
         inkscape:connector-curvature="0" /><g
         id="g38"
         transform="matrix(18.489148,0,0,18.489148,-23.744146,-9.1173447)"><text
           transform="matrix(1,0,0,-1,16.4789,77)"
           id="text40"><tspan
             style="font-size:7px;font-variant:normal;font-weight:normal;writing-mode:lr-tb;fill:#000000;fill-opacity:1;fill-rule:nonzero;stroke:none;font-family:Helvetica;-inkscape-font-specification:Helvetica"
             x="0 3.892 7.7839999 9.7299995"
             y="0"
             sodipodi:role="line"
             id="tspan42">49.3</tspan></text>
</g><path
         d="m 610.43362,1895.2649 5788.02768,0"
         style="fill:none;stroke:#000000;stroke-width:2.3111434;stroke-linecap:butt;stroke-linejoin:miter;stroke-miterlimit:3.79999995;stroke-opacity:1;stroke-dasharray:9.24457387, 18.48914774;stroke-dashoffset:0"
         id="path44"
         inkscape:connector-curvature="0" /><path
         d="m 610.43362,1895.2649 58.24082,0 m 5729.78686,0 -58.2408,0"
         style="fill:none;stroke:#000000;stroke-width:9.24457359;stroke-linecap:butt;stroke-linejoin:miter;stroke-miterlimit:3.79999995;stroke-opacity:1;stroke-dasharray:none"
         id="path46"
         inkscape:connector-curvature="0" /><g
         id="g48"
         transform="matrix(18.489148,0,0,18.489148,-23.744146,-9.1173447)"><text
           transform="matrix(1,0,0,-1,16.4789,100.7)"
           id="text50"><tspan
             style="font-size:7px;font-variant:normal;font-weight:normal;writing-mode:lr-tb;fill:#000000;fill-opacity:1;fill-rule:nonzero;stroke:none;font-family:Helvetica;-inkscape-font-specification:Helvetica"
             x="0 3.892 7.7839999 9.7299995"
             y="0"
             sodipodi:role="line"
             id="tspan52">49.4</tspan></text>
</g><path
         d="m 610.43362,2333.4577 5788.02768,0"
         style="fill:none;stroke:#000000;stroke-width:2.3111434;stroke-linecap:butt;stroke-linejoin:miter;stroke-miterlimit:3.79999995;stroke-opacity:1;stroke-dasharray:9.24457387, 18.48914774;stroke-dashoffset:0"
         id="path54"
         inkscape:connector-curvature="0" /><path
         d="m 610.43362,2333.4577 58.24082,0 m 5729.78686,0 -58.2408,0"
         style="fill:none;stroke:#000000;stroke-width:9.24457359;stroke-linecap:butt;stroke-linejoin:miter;stroke-miterlimit:3.79999995;stroke-opacity:1;stroke-dasharray:none"
         id="path56"
         inkscape:connector-curvature="0" /><g
         id="g58"
         transform="matrix(18.489148,0,0,18.489148,-23.744146,-9.1173447)"><text
           transform="matrix(1,0,0,-1,16.4789,124.4)"
           id="text60"><tspan
             style="font-size:7px;font-variant:normal;font-weight:normal;writing-mode:lr-tb;fill:#000000;fill-opacity:1;fill-rule:nonzero;stroke:none;font-family:Helvetica;-inkscape-font-specification:Helvetica"
             x="0 3.892 7.7839999 9.7299995"
             y="0"
             sodipodi:role="line"
             id="tspan62">49.5</tspan></text>
</g><path
         d="m 610.43362,2770.726 5788.02768,0"
         style="fill:none;stroke:#000000;stroke-width:2.3111434;stroke-linecap:butt;stroke-linejoin:miter;stroke-miterlimit:3.79999995;stroke-opacity:1;stroke-dasharray:9.24457387, 18.48914774;stroke-dashoffset:0"
         id="path64"
         inkscape:connector-curvature="0" /><path
         d="m 610.43362,2770.726 58.24082,0 m 5729.78686,0 -58.2408,0"
         style="fill:none;stroke:#000000;stroke-width:9.24457359;stroke-linecap:butt;stroke-linejoin:miter;stroke-miterlimit:3.79999995;stroke-opacity:1;stroke-dasharray:none"
         id="path66"
         inkscape:connector-curvature="0" /><g
         id="g68"
         transform="matrix(18.489148,0,0,18.489148,-23.744146,-9.1173447)"><text
           transform="matrix(1,0,0,-1,16.4789,148.05)"
           id="text70"><tspan
             style="font-size:7px;font-variant:normal;font-weight:normal;writing-mode:lr-tb;fill:#000000;fill-opacity:1;fill-rule:nonzero;stroke:none;font-family:Helvetica;-inkscape-font-specification:Helvetica"
             x="0 3.892 7.7839999 9.7299995"
             y="0"
             sodipodi:role="line"
             id="tspan72">49.6</tspan></text>
</g><path
         d="m 610.43362,3208.9188 5788.02768,0"
         style="fill:none;stroke:#000000;stroke-width:2.3111434;stroke-linecap:butt;stroke-linejoin:miter;stroke-miterlimit:3.79999995;stroke-opacity:1;stroke-dasharray:9.24457387, 18.48914774;stroke-dashoffset:0"
         id="path74"
         inkscape:connector-curvature="0" /><path
         d="m 610.43362,3208.9188 58.24082,0 m 5729.78686,0 -58.2408,0"
         style="fill:none;stroke:#000000;stroke-width:9.24457359;stroke-linecap:butt;stroke-linejoin:miter;stroke-miterlimit:3.79999995;stroke-opacity:1;stroke-dasharray:none"
         id="path76"
         inkscape:connector-curvature="0" /><g
         id="g78"
         transform="matrix(18.489148,0,0,18.489148,-23.744146,-9.1173447)"><text
           transform="matrix(1,0,0,-1,16.4789,171.75)"
           id="text80"><tspan
             style="font-size:7px;font-variant:normal;font-weight:normal;writing-mode:lr-tb;fill:#000000;fill-opacity:1;fill-rule:nonzero;stroke:none;font-family:Helvetica;-inkscape-font-specification:Helvetica"
             x="0 3.892 7.7839999 9.7299995"
             y="0"
             sodipodi:role="line"
             id="tspan82">49.7</tspan></text>
</g><path
         d="m 610.43362,3647.1116 5788.02768,0"
         style="fill:none;stroke:#000000;stroke-width:2.3111434;stroke-linecap:butt;stroke-linejoin:miter;stroke-miterlimit:3.79999995;stroke-opacity:1;stroke-dasharray:9.24457387, 18.48914774;stroke-dashoffset:0"
         id="path84"
         inkscape:connector-curvature="0" /><path
         d="m 610.43362,3647.1116 58.24082,0 m 5729.78686,0 -58.2408,0"
         style="fill:none;stroke:#000000;stroke-width:9.24457359;stroke-linecap:butt;stroke-linejoin:miter;stroke-miterlimit:3.79999995;stroke-opacity:1;stroke-dasharray:none"
         id="path86"
         inkscape:connector-curvature="0" /><g
         id="g88"
         transform="matrix(18.489148,0,0,18.489148,-23.744146,-9.1173447)"><text
           transform="matrix(1,0,0,-1,16.4789,195.45)"
           id="text90"><tspan
             style="font-size:7px;font-variant:normal;font-weight:normal;writing-mode:lr-tb;fill:#000000;fill-opacity:1;fill-rule:nonzero;stroke:none;font-family:Helvetica;-inkscape-font-specification:Helvetica"
             x="0 3.892 7.7839999 9.7299995"
             y="0"
             sodipodi:role="line"
             id="tspan92">49.8</tspan></text>
</g><path
         d="m 610.43362,4085.3044 3788.42638,0 m 1921.9469,0 77.6544,0"
         style="fill:none;stroke:#000000;stroke-width:2.3111434;stroke-linecap:butt;stroke-linejoin:miter;stroke-miterlimit:3.79999995;stroke-opacity:1;stroke-dasharray:9.24457387, 18.48914774;stroke-dashoffset:0"
         id="path94"
         inkscape:connector-curvature="0" /><path
         d="m 610.43362,4085.3044 58.24082,0 m 5729.78686,0 -58.2408,0"
         style="fill:none;stroke:#000000;stroke-width:9.24457359;stroke-linecap:butt;stroke-linejoin:miter;stroke-miterlimit:3.79999995;stroke-opacity:1;stroke-dasharray:none"
         id="path96"
         inkscape:connector-curvature="0" /><g
         id="g98"
         transform="matrix(18.489148,0,0,18.489148,-23.744146,-9.1173447)"><text
           transform="matrix(1,0,0,-1,16.4789,219.15)"
           id="text100"><tspan
             style="font-size:7px;font-variant:normal;font-weight:normal;writing-mode:lr-tb;fill:#000000;fill-opacity:1;fill-rule:nonzero;stroke:none;font-family:Helvetica;-inkscape-font-specification:Helvetica"
             x="0 3.892 7.7839999 9.7299995"
             y="0"
             sodipodi:role="line"
             id="tspan102">49.9</tspan></text>
</g><path
         d="m 610.43362,405.03956 0,3855.91174"
         style="fill:none;stroke:#000000;stroke-width:2.3111434;stroke-linecap:butt;stroke-linejoin:miter;stroke-miterlimit:3.79999995;stroke-opacity:1;stroke-dasharray:9.24457387, 18.48914774;stroke-dashoffset:0"
         id="path104"
         inkscape:connector-curvature="0" /><path
         d="m 610.43362,405.03956 0,58.24082 m 0,3797.67092 0,-58.2408"
         style="fill:none;stroke:#000000;stroke-width:9.24457359;stroke-linecap:butt;stroke-linejoin:miter;stroke-miterlimit:3.79999995;stroke-opacity:1;stroke-dasharray:none"
         id="path106"
         inkscape:connector-curvature="0" /><g
         id="g108"
         transform="matrix(18.489148,0,0,18.489148,-23.744146,-9.1173447)"><text
           transform="matrix(1,0,0,-1,32.3543,13.1)"
           id="text110"><tspan
             style="font-size:7px;font-variant:normal;font-weight:normal;writing-mode:lr-tb;fill:#000000;fill-opacity:1;fill-rule:nonzero;stroke:none;font-family:Helvetica;-inkscape-font-specification:Helvetica"
             x="0"
             y="0"
             id="tspan112">0</tspan></text>
</g><path
         d="m 1575.5671,405.03956 0,3855.91174"
         style="fill:none;stroke:#000000;stroke-width:2.3111434;stroke-linecap:butt;stroke-linejoin:miter;stroke-miterlimit:3.79999995;stroke-opacity:1;stroke-dasharray:9.24457387, 18.48914774;stroke-dashoffset:0"
         id="path114"
         inkscape:connector-curvature="0" /><path
         d="m 1575.5671,405.03956 0,58.24082 m 0,3797.67092 0,-58.2408"
         style="fill:none;stroke:#000000;stroke-width:9.24457359;stroke-linecap:butt;stroke-linejoin:miter;stroke-miterlimit:3.79999995;stroke-opacity:1;stroke-dasharray:none"
         id="path116"
         inkscape:connector-curvature="0" /><g
         id="g118"
         transform="matrix(18.489148,0,0,18.489148,-23.744146,-9.1173447)"><text
           transform="matrix(1,0,0,-1,81.6355,13.1)"
           id="text120"><tspan
             style="font-size:7px;font-variant:normal;font-weight:normal;writing-mode:lr-tb;fill:#000000;fill-opacity:1;fill-rule:nonzero;stroke:none;font-family:Helvetica;-inkscape-font-specification:Helvetica"
             x="0 3.892 5.8379998"
             y="0"
             sodipodi:role="line"
             id="tspan122">0.5</tspan></text>
</g><path
         d="m 2539.7762,405.03956 0,3855.91174"
         style="fill:none;stroke:#000000;stroke-width:2.3111434;stroke-linecap:butt;stroke-linejoin:miter;stroke-miterlimit:3.79999995;stroke-opacity:1;stroke-dasharray:9.24457387, 18.48914774;stroke-dashoffset:0"
         id="path124"
         inkscape:connector-curvature="0" /><path
         d="m 2539.7762,405.03956 0,58.24082 m 0,3797.67092 0,-58.2408"
         style="fill:none;stroke:#000000;stroke-width:9.24457359;stroke-linecap:butt;stroke-linejoin:miter;stroke-miterlimit:3.79999995;stroke-opacity:1;stroke-dasharray:none"
         id="path126"
         inkscape:connector-curvature="0" /><g
         id="g128"
         transform="matrix(18.489148,0,0,18.489148,-23.744146,-9.1173447)"><text
           transform="matrix(1,0,0,-1,136.704,13.1)"
           id="text130"><tspan
             style="font-size:7px;font-variant:normal;font-weight:normal;writing-mode:lr-tb;fill:#000000;fill-opacity:1;fill-rule:nonzero;stroke:none;font-family:Helvetica;-inkscape-font-specification:Helvetica"
             x="0"
             y="0"
             id="tspan132">1</tspan></text>
</g><path
         d="m 3504.9097,405.03956 0,3855.91174"
         style="fill:none;stroke:#000000;stroke-width:2.3111434;stroke-linecap:butt;stroke-linejoin:miter;stroke-miterlimit:3.79999995;stroke-opacity:1;stroke-dasharray:9.24457387, 18.48914774;stroke-dashoffset:0"
         id="path134"
         inkscape:connector-curvature="0" /><path
         d="m 3504.9097,405.03956 0,58.24082 m 0,3797.67092 0,-58.2408"
         style="fill:none;stroke:#000000;stroke-width:9.24457359;stroke-linecap:butt;stroke-linejoin:miter;stroke-miterlimit:3.79999995;stroke-opacity:1;stroke-dasharray:none"
         id="path136"
         inkscape:connector-curvature="0" /><g
         id="g138"
         transform="matrix(18.489148,0,0,18.489148,-23.744146,-9.1173447)"><text
           transform="matrix(1,0,0,-1,185.986,13.1)"
           id="text140"><tspan
             style="font-size:7px;font-variant:normal;font-weight:normal;writing-mode:lr-tb;fill:#000000;fill-opacity:1;fill-rule:nonzero;stroke:none;font-family:Helvetica;-inkscape-font-specification:Helvetica"
             x="0 3.892 5.8379998"
             y="0"
             sodipodi:role="line"
             id="tspan142">1.5</tspan></text>
</g><path
         d="m 4469.1188,405.03956 0,3668.24694 m 0,129.424 0,58.2408"
         style="fill:none;stroke:#000000;stroke-width:2.3111434;stroke-linecap:butt;stroke-linejoin:miter;stroke-miterlimit:3.79999995;stroke-opacity:1;stroke-dasharray:9.24457387, 18.48914774;stroke-dashoffset:0"
         id="path144"
         inkscape:connector-curvature="0" /><path
         d="m 4469.1188,405.03956 0,58.24082 m 0,3797.67092 0,-58.2408"
         style="fill:none;stroke:#000000;stroke-width:9.24457359;stroke-linecap:butt;stroke-linejoin:miter;stroke-miterlimit:3.79999995;stroke-opacity:1;stroke-dasharray:none"
         id="path146"
         inkscape:connector-curvature="0" /><g
         id="g148"
         transform="matrix(18.489148,0,0,18.489148,-23.744146,-9.1173447)"><text
           transform="matrix(1,0,0,-1,241.054,13.1)"
           id="text150"><tspan
             style="font-size:7px;font-variant:normal;font-weight:normal;writing-mode:lr-tb;fill:#000000;fill-opacity:1;fill-rule:nonzero;stroke:none;font-family:Helvetica;-inkscape-font-specification:Helvetica"
             x="0"
             y="0"
             id="tspan152">2</tspan></text>
</g><path
         d="m 5434.2523,405.03956 0,3668.24694 m 0,129.424 0,58.2408"
         style="fill:none;stroke:#000000;stroke-width:2.3111434;stroke-linecap:butt;stroke-linejoin:miter;stroke-miterlimit:3.79999995;stroke-opacity:1;stroke-dasharray:9.24457387, 18.48914774;stroke-dashoffset:0"
         id="path154"
         inkscape:connector-curvature="0" /><path
         d="m 5434.2523,405.03956 0,58.24082 m 0,3797.67092 0,-58.2408"
         style="fill:none;stroke:#000000;stroke-width:9.24457359;stroke-linecap:butt;stroke-linejoin:miter;stroke-miterlimit:3.79999995;stroke-opacity:1;stroke-dasharray:none"
         id="path156"
         inkscape:connector-curvature="0" /><g
         id="g158"
         transform="matrix(18.489148,0,0,18.489148,-23.744146,-9.1173447)"><text
           transform="matrix(1,0,0,-1,290.336,13.1)"
           id="text160"><tspan
             style="font-size:7px;font-variant:normal;font-weight:normal;writing-mode:lr-tb;fill:#000000;fill-opacity:1;fill-rule:nonzero;stroke:none;font-family:Helvetica;-inkscape-font-specification:Helvetica"
             x="0 3.892 5.8379998"
             y="0"
             sodipodi:role="line"
             id="tspan162">2.5</tspan></text>
</g><path
         d="m 6398.4613,405.03956 0,3855.91174"
         style="fill:none;stroke:#000000;stroke-width:2.3111434;stroke-linecap:butt;stroke-linejoin:miter;stroke-miterlimit:3.79999995;stroke-opacity:1;stroke-dasharray:9.24457387, 18.48914774;stroke-dashoffset:0"
         id="path164"
         inkscape:connector-curvature="0" /><path
         d="m 6398.4613,405.03956 0,58.24082 m 0,3797.67092 0,-58.2408"
         style="fill:none;stroke:#000000;stroke-width:9.24457359;stroke-linecap:butt;stroke-linejoin:miter;stroke-miterlimit:3.79999995;stroke-opacity:1;stroke-dasharray:none"
         id="path166"
         inkscape:connector-curvature="0" /><g
         id="g168"
         transform="matrix(18.489148,0,0,18.489148,-23.744146,-9.1173447)"><text
           transform="matrix(1,0,0,-1,345.404,13.1)"
           id="text170"><tspan
             style="font-size:7px;font-variant:normal;font-weight:normal;writing-mode:lr-tb;fill:#000000;fill-opacity:1;fill-rule:nonzero;stroke:none;font-family:Helvetica;-inkscape-font-specification:Helvetica"
             x="0"
             y="0"
             id="tspan172">3</tspan></text>
</g><path
         d="m 610.43362,405.03956 5788.02768,0 0,3855.91174 -5788.02768,0 0,-3855.91174 z"
         style="fill:none;stroke:#000000;stroke-width:9.24457359;stroke-linecap:butt;stroke-linejoin:miter;stroke-miterlimit:3.79999995;stroke-opacity:1;stroke-dasharray:none"
         id="path174"
         inkscape:connector-curvature="0" /><text
         id="text178"
         transform="matrix(0,1,1,0,0,0)"
         x="1800.2473"
         y="122.32012"
         style="font-size:221.86978149px"><tspan
           id="tspan180"
           sodipodi:role="line"
           y="122.32012"
           x="1800.2473 1864.9594 1936.9191 1980.0173 2023.1155 2095.0752 2167.0349 2203.0149 2238.9949 2310.9546 2382.9143 2418.8943 2490.854 2562.8137 2598.7935 2634.7734 2677.8716 2749.8315 2821.7913"
           style="font-size:129.42404175px;font-variant:normal;font-weight:normal;writing-mode:lr-tb;fill:#000000;fill-opacity:1;fill-rule:nonzero;stroke:none;font-family:Helvetica;-inkscape-font-specification:Helvetica">current output (ua)</tspan></text>
<text
         id="text182"
         transform="scale(1,-1)"
         x="3040.0925"
         y="-38.954441"
         style="font-size:221.86978149px"><tspan
           id="tspan184"
           sodipodi:role="line"
           y="-38.954441"
           x="3040.0925 3112.0522 3155.1506 3227.1104 3255.8425 3327.8022 3363.7822 3428.4941 3500.4539 3529.186 3565.166 3637.1257 3709.0854 3781.0452 3817.0251 3860.1233 3924.8354"
           style="font-size:129.42404175px;font-variant:normal;font-weight:normal;writing-mode:lr-tb;fill:#000000;fill-opacity:1;fill-rule:nonzero;stroke:none;font-family:Helvetica;-inkscape-font-specification:Helvetica">drain voltage (v)</tspan><tspan
           id="tspan186"
           sodipodi:role="line"
           y="-4412.5625"
           x="2277.5669 2349.5266 2414.2385 2450.2185 2522.1782 2594.1379 2666.0979 2694.8301 2759.542 2824.2539 2852.9861 2917.6982 2953.678 2989.658 3054.3699 3126.3296 3169.428 3212.5261 3284.4858 3356.4456 3392.4255 3428.4053 3500.3652 3572.325 3608.3047 3680.2646 3752.2244 3788.2041 3824.1841 3888.896 3953.6082 3989.5879 4061.5479 4104.646 4176.606 4205.3379 4277.2979 4313.2773 4377.9897 4449.9492 4478.6812 4514.6611 4586.6211 4658.5811"
           style="font-size:129.42404175px;font-variant:normal;font-weight:normal;writing-mode:lr-tb;fill:#000000;fill-opacity:1;fill-rule:nonzero;stroke:none;font-family:Helvetica;-inkscape-font-specification:Helvetica">dc analysis: current output vs drain voltage</tspan><tspan
           id="tspan188"
           sodipodi:role="line"
           y="-4095.4734"
           x="4649.355 4692.4531 4757.165 4829.1245 4901.0845 4973.0444 5016.1426 5088.1025 5160.062 5224.7739 5296.7339 5347.0796 5390.1777 5462.1377 5534.0977 5609.6812 5681.6406 5753.6006"
           style="font-size:129.42404175px;font-variant:normal;font-weight:normal;writing-mode:lr-tb;fill:#000000;fill-opacity:1;fill-rule:nonzero;stroke:none;font-family:Helvetica;-inkscape-font-specification:Helvetica">(v2#branch*-1e+06)</tspan></text>
<path
         d="m 5874.294,4137.9985 368.8585,0 M 1432.2762,405.03956 l 143.2909,1119.51794 192.2872,512.1494 193.2116,102.6147 193.2116,32.356 192.2871,23.1115 193.2116,18.4891 193.2116,17.5647 192.2871,14.7913 193.2116,14.7913 193.2116,14.7914 193.2116,12.9424 192.2871,13.8668 193.2116,12.018 193.2116,12.9424 192.2872,12.0179 193.2116,12.018 193.2115,12.0179 192.2872,12.018 193.2116,11.0934 193.2116,11.0935 193.2116,11.0935 192.2871,11.0935 193.2116,10.169 193.2116,10.1691 192.2871,10.169 193.2116,10.169"
         style="fill:none;stroke:#ff0000;stroke-width:12;stroke-linecap:butt;stroke-linejoin:miter;stroke-miterlimit:3.79999995;stroke-opacity:1;stroke-dasharray:none"
         id="path190"
         inkscape:connector-curvature="0" /><path
         d="m 610.43362,405.03956 5788.02768,0 0,3855.91174 -5788.02768,0 0,-3855.91174 z"
         style="fill:none;stroke:#000000;stroke-width:9.24457359;stroke-linecap:butt;stroke-linejoin:miter;stroke-miterlimit:3.79999995;stroke-opacity:1;stroke-dasharray:none"
         id="path192"
         inkscape:connector-curvature="0" /></g></g></svg>