<?xml version="1.0" encoding="UTF-8" standalone="no"?>
<!-- Created with Inkscape (http://www.inkscape.org/) -->

<svg
   xmlns:dc="http://purl.org/dc/elements/1.1/"
   xmlns:cc="http://creativecommons.org/ns#"
   xmlns:rdf="http://www.w3.org/1999/02/22-rdf-syntax-ns#"
   xmlns:svg="http://www.w3.org/2000/svg"
   xmlns="http://www.w3.org/2000/svg"
   xmlns:sodipodi="http://sodipodi.sourceforge.net/DTD/sodipodi-0.dtd"
   xmlns:inkscape="http://www.inkscape.org/namespaces/inkscape"
   id="svg2"
   version="1.1"
   inkscape:version="0.48.4 r9939"
   width="800"
   height="558.82343"
   xml:space="preserve"
   sodipodi:docname="ce_amplifier_simulation_dc_analysis.eps"><metadata
     id="metadata8"><rdf:RDF><cc:Work
         rdf:about=""><dc:format>image/svg+xml</dc:format><dc:type
           rdf:resource="http://purl.org/dc/dcmitype/StillImage" /><dc:title></dc:title></cc:Work></rdf:RDF></metadata><defs
     id="defs6" /><sodipodi:namedview
     pagecolor="#ffffff"
     bordercolor="#666666"
     borderopacity="1"
     objecttolerance="10"
     gridtolerance="10"
     guidetolerance="10"
     inkscape:pageopacity="0"
     inkscape:pageshadow="2"
     inkscape:window-width="1280"
     inkscape:window-height="750"
     id="namedview4"
     showgrid="false"
     fit-margin-top="0"
     fit-margin-left="0"
     fit-margin-right="0"
     fit-margin-bottom="0"
     inkscape:zoom="0.73777778"
     inkscape:cx="221.50375"
     inkscape:cy="156.1575"
     inkscape:window-x="0"
     inkscape:window-y="0"
     inkscape:window-maximized="1"
     inkscape:current-layer="g10" /><g
     id="g10"
     inkscape:groupmode="layer"
     inkscape:label="ink_ext_XXXXXX"
     transform="matrix(1.25,0,0,-1.25,-3.49625,560.16593)"><g
       id="g12"
       transform="matrix(0.18383937,0,0,0.18383937,-2.3449872,-0.90043484)"><path
         d="m 217,319 3256.5,0"
         style="fill:none;stroke:#000000;stroke-width:1.25;stroke-linecap:butt;stroke-linejoin:miter;stroke-miterlimit:3.79999995;stroke-opacity:1;stroke-dasharray:5, 10;stroke-dashoffset:0"
         id="path14"
         inkscape:connector-curvature="0" /><path
         d="m 217,319 31.5,0 m 3225,0 -31.5,0"
         style="fill:none;stroke:#000000;stroke-width:5;stroke-linecap:butt;stroke-linejoin:miter;stroke-miterlimit:3.79999995;stroke-opacity:1;stroke-dasharray:none"
         id="path16"
         inkscape:connector-curvature="0" /><g
         id="g18"
         transform="scale(10,10)"><text
           transform="matrix(1,0,0,-1,13.6082,29.6)"
           id="text20"><tspan
             style="font-size:7px;font-variant:normal;font-weight:normal;writing-mode:lr-tb;fill:#000000;fill-opacity:1;fill-rule:nonzero;stroke:none;font-family:Helvetica;-inkscape-font-specification:Helvetica"
             x="0"
             y="0"
             id="tspan22">0</tspan></text>
</g><path
         d="m 217,589.5 3256.5,0"
         style="fill:none;stroke:#000000;stroke-width:1.25;stroke-linecap:butt;stroke-linejoin:miter;stroke-miterlimit:3.79999995;stroke-opacity:1;stroke-dasharray:5, 10;stroke-dashoffset:0"
         id="path24"
         inkscape:connector-curvature="0" /><path
         d="m 217,589.5 31.5,0 m 3225,0 -31.5,0"
         style="fill:none;stroke:#000000;stroke-width:5;stroke-linecap:butt;stroke-linejoin:miter;stroke-miterlimit:3.79999995;stroke-opacity:1;stroke-dasharray:none"
         id="path26"
         inkscape:connector-curvature="0" /><g
         id="g28"
         transform="scale(10,10)"><text
           transform="matrix(1,0,0,-1,13.6082,56.65)"
           id="text30"><tspan
             style="font-size:7px;font-variant:normal;font-weight:normal;writing-mode:lr-tb;fill:#000000;fill-opacity:1;fill-rule:nonzero;stroke:none;font-family:Helvetica;-inkscape-font-specification:Helvetica"
             x="0"
             y="0"
             id="tspan32">1</tspan></text>
</g><path
         d="m 217,860 3256.5,0"
         style="fill:none;stroke:#000000;stroke-width:1.25;stroke-linecap:butt;stroke-linejoin:miter;stroke-miterlimit:3.79999995;stroke-opacity:1;stroke-dasharray:5, 10;stroke-dashoffset:0"
         id="path34"
         inkscape:connector-curvature="0" /><path
         d="m 217,860 31.5,0 m 3225,0 -31.5,0"
         style="fill:none;stroke:#000000;stroke-width:5;stroke-linecap:butt;stroke-linejoin:miter;stroke-miterlimit:3.79999995;stroke-opacity:1;stroke-dasharray:none"
         id="path36"
         inkscape:connector-curvature="0" /><g
         id="g38"
         transform="scale(10,10)"><text
           transform="matrix(1,0,0,-1,13.6082,83.7)"
           id="text40"><tspan
             style="font-size:7px;font-variant:normal;font-weight:normal;writing-mode:lr-tb;fill:#000000;fill-opacity:1;fill-rule:nonzero;stroke:none;font-family:Helvetica;-inkscape-font-specification:Helvetica"
             x="0"
             y="0"
             id="tspan42">2</tspan></text>
</g><path
         d="m 217,1131 3256.5,0"
         style="fill:none;stroke:#000000;stroke-width:1.25;stroke-linecap:butt;stroke-linejoin:miter;stroke-miterlimit:3.79999995;stroke-opacity:1;stroke-dasharray:5, 10;stroke-dashoffset:0"
         id="path44"
         inkscape:connector-curvature="0" /><path
         d="m 217,1131 31.5,0 m 3225,0 -31.5,0"
         style="fill:none;stroke:#000000;stroke-width:5;stroke-linecap:butt;stroke-linejoin:miter;stroke-miterlimit:3.79999995;stroke-opacity:1;stroke-dasharray:none"
         id="path46"
         inkscape:connector-curvature="0" /><g
         id="g48"
         transform="scale(10,10)"><text
           transform="matrix(1,0,0,-1,13.6082,110.8)"
           id="text50"><tspan
             style="font-size:7px;font-variant:normal;font-weight:normal;writing-mode:lr-tb;fill:#000000;fill-opacity:1;fill-rule:nonzero;stroke:none;font-family:Helvetica;-inkscape-font-specification:Helvetica"
             x="0"
             y="0"
             id="tspan52">3</tspan></text>
</g><path
         d="m 217,1401.5 3256.5,0"
         style="fill:none;stroke:#000000;stroke-width:1.25;stroke-linecap:butt;stroke-linejoin:miter;stroke-miterlimit:3.79999995;stroke-opacity:1;stroke-dasharray:5, 10;stroke-dashoffset:0"
         id="path54"
         inkscape:connector-curvature="0" /><path
         d="m 217,1401.5 31.5,0 m 3225,0 -31.5,0"
         style="fill:none;stroke:#000000;stroke-width:5;stroke-linecap:butt;stroke-linejoin:miter;stroke-miterlimit:3.79999995;stroke-opacity:1;stroke-dasharray:none"
         id="path56"
         inkscape:connector-curvature="0" /><g
         id="g58"
         transform="scale(10,10)"><text
           transform="matrix(1,0,0,-1,13.6082,137.85)"
           id="text60"><tspan
             style="font-size:7px;font-variant:normal;font-weight:normal;writing-mode:lr-tb;fill:#000000;fill-opacity:1;fill-rule:nonzero;stroke:none;font-family:Helvetica;-inkscape-font-specification:Helvetica"
             x="0"
             y="0"
             id="tspan62">4</tspan></text>
</g><path
         d="m 217,1672.5 3256.5,0"
         style="fill:none;stroke:#000000;stroke-width:1.25;stroke-linecap:butt;stroke-linejoin:miter;stroke-miterlimit:3.79999995;stroke-opacity:1;stroke-dasharray:5, 10;stroke-dashoffset:0"
         id="path64"
         inkscape:connector-curvature="0" /><path
         d="m 217,1672.5 31.5,0 m 3225,0 -31.5,0"
         style="fill:none;stroke:#000000;stroke-width:5;stroke-linecap:butt;stroke-linejoin:miter;stroke-miterlimit:3.79999995;stroke-opacity:1;stroke-dasharray:none"
         id="path66"
         inkscape:connector-curvature="0" /><g
         id="g68"
         transform="scale(10,10)"><text
           transform="matrix(1,0,0,-1,13.6082,164.95)"
           id="text70"><tspan
             style="font-size:7px;font-variant:normal;font-weight:normal;writing-mode:lr-tb;fill:#000000;fill-opacity:1;fill-rule:nonzero;stroke:none;font-family:Helvetica;-inkscape-font-specification:Helvetica"
             x="0"
             y="0"
             id="tspan72">5</tspan></text>
</g><path
         d="m 217,1943 3256.5,0"
         style="fill:none;stroke:#000000;stroke-width:1.25;stroke-linecap:butt;stroke-linejoin:miter;stroke-miterlimit:3.79999995;stroke-opacity:1;stroke-dasharray:5, 10;stroke-dashoffset:0"
         id="path74"
         inkscape:connector-curvature="0" /><path
         d="m 217,1943 31.5,0 m 3225,0 -31.5,0"
         style="fill:none;stroke:#000000;stroke-width:5;stroke-linecap:butt;stroke-linejoin:miter;stroke-miterlimit:3.79999995;stroke-opacity:1;stroke-dasharray:none"
         id="path76"
         inkscape:connector-curvature="0" /><g
         id="g78"
         transform="scale(10,10)"><text
           transform="matrix(1,0,0,-1,13.6082,192)"
           id="text80"><tspan
             style="font-size:7px;font-variant:normal;font-weight:normal;writing-mode:lr-tb;fill:#000000;fill-opacity:1;fill-rule:nonzero;stroke:none;font-family:Helvetica;-inkscape-font-specification:Helvetica"
             x="0"
             y="0"
             id="tspan82">6</tspan></text>
</g><path
         d="m 217,2214 2721,0 m 493.5,0 42,0"
         style="fill:none;stroke:#000000;stroke-width:1.25;stroke-linecap:butt;stroke-linejoin:miter;stroke-miterlimit:3.79999995;stroke-opacity:1;stroke-dasharray:5, 10;stroke-dashoffset:0"
         id="path84"
         inkscape:connector-curvature="0" /><path
         d="m 217,2214 31.5,0 m 3225,0 -31.5,0"
         style="fill:none;stroke:#000000;stroke-width:5;stroke-linecap:butt;stroke-linejoin:miter;stroke-miterlimit:3.79999995;stroke-opacity:1;stroke-dasharray:none"
         id="path86"
         inkscape:connector-curvature="0" /><g
         id="g88"
         transform="scale(10,10)"><text
           transform="matrix(1,0,0,-1,13.6082,219.1)"
           id="text90"><tspan
             style="font-size:7px;font-variant:normal;font-weight:normal;writing-mode:lr-tb;fill:#000000;fill-opacity:1;fill-rule:nonzero;stroke:none;font-family:Helvetica;-inkscape-font-specification:Helvetica"
             x="0"
             y="0"
             id="tspan92">7</tspan></text>
</g><path
         d="m 217,224 0,2085.5"
         style="fill:none;stroke:#000000;stroke-width:1.25;stroke-linecap:butt;stroke-linejoin:miter;stroke-miterlimit:3.79999995;stroke-opacity:1;stroke-dasharray:5, 10;stroke-dashoffset:0"
         id="path94"
         inkscape:connector-curvature="0" /><path
         d="m 217,224 0,31.5 m 0,2054 0,-31.5"
         style="fill:none;stroke:#000000;stroke-width:5;stroke-linecap:butt;stroke-linejoin:miter;stroke-miterlimit:3.79999995;stroke-opacity:1;stroke-dasharray:none"
         id="path96"
         inkscape:connector-curvature="0" /><g
         id="g98"
         transform="scale(10,10)"><text
           transform="matrix(1,0,0,-1,19.7543,13.1)"
           id="text100"><tspan
             style="font-size:7px;font-variant:normal;font-weight:normal;writing-mode:lr-tb;fill:#000000;fill-opacity:1;fill-rule:nonzero;stroke:none;font-family:Helvetica;-inkscape-font-specification:Helvetica"
             x="0"
             y="0"
             id="tspan102">0</tspan></text>
</g><path
         d="m 760,224 0,2085.5"
         style="fill:none;stroke:#000000;stroke-width:1.25;stroke-linecap:butt;stroke-linejoin:miter;stroke-miterlimit:3.79999995;stroke-opacity:1;stroke-dasharray:5, 10;stroke-dashoffset:0"
         id="path104"
         inkscape:connector-curvature="0" /><path
         d="m 760,224 0,31.5 m 0,2054 0,-31.5"
         style="fill:none;stroke:#000000;stroke-width:5;stroke-linecap:butt;stroke-linejoin:miter;stroke-miterlimit:3.79999995;stroke-opacity:1;stroke-dasharray:none"
         id="path106"
         inkscape:connector-curvature="0" /><g
         id="g108"
         transform="scale(10,10)"><text
           transform="matrix(1,0,0,-1,74.0543,13.1)"
           id="text110"><tspan
             style="font-size:7px;font-variant:normal;font-weight:normal;writing-mode:lr-tb;fill:#000000;fill-opacity:1;fill-rule:nonzero;stroke:none;font-family:Helvetica;-inkscape-font-specification:Helvetica"
             x="0"
             y="0"
             id="tspan112">2</tspan></text>
</g><path
         d="m 1302.5,224 0,2085.5"
         style="fill:none;stroke:#000000;stroke-width:1.25;stroke-linecap:butt;stroke-linejoin:miter;stroke-miterlimit:3.79999995;stroke-opacity:1;stroke-dasharray:5, 10;stroke-dashoffset:0"
         id="path114"
         inkscape:connector-curvature="0" /><path
         d="m 1302.5,224 0,31.5 m 0,2054 0,-31.5"
         style="fill:none;stroke:#000000;stroke-width:5;stroke-linecap:butt;stroke-linejoin:miter;stroke-miterlimit:3.79999995;stroke-opacity:1;stroke-dasharray:none"
         id="path116"
         inkscape:connector-curvature="0" /><g
         id="g118"
         transform="scale(10,10)"><text
           transform="matrix(1,0,0,-1,128.304,13.1)"
           id="text120"><tspan
             style="font-size:7px;font-variant:normal;font-weight:normal;writing-mode:lr-tb;fill:#000000;fill-opacity:1;fill-rule:nonzero;stroke:none;font-family:Helvetica;-inkscape-font-specification:Helvetica"
             x="0"
             y="0"
             id="tspan122">4</tspan></text>
</g><path
         d="m 1845.5,224 0,2085.5"
         style="fill:none;stroke:#000000;stroke-width:1.25;stroke-linecap:butt;stroke-linejoin:miter;stroke-miterlimit:3.79999995;stroke-opacity:1;stroke-dasharray:5, 10;stroke-dashoffset:0"
         id="path124"
         inkscape:connector-curvature="0" /><path
         d="m 1845.5,224 0,31.5 m 0,2054 0,-31.5"
         style="fill:none;stroke:#000000;stroke-width:5;stroke-linecap:butt;stroke-linejoin:miter;stroke-miterlimit:3.79999995;stroke-opacity:1;stroke-dasharray:none"
         id="path126"
         inkscape:connector-curvature="0" /><g
         id="g128"
         transform="scale(10,10)"><text
           transform="matrix(1,0,0,-1,182.604,13.1)"
           id="text130"><tspan
             style="font-size:7px;font-variant:normal;font-weight:normal;writing-mode:lr-tb;fill:#000000;fill-opacity:1;fill-rule:nonzero;stroke:none;font-family:Helvetica;-inkscape-font-specification:Helvetica"
             x="0"
             y="0"
             id="tspan132">6</tspan></text>
</g><path
         d="m 2388,224 0,2085.5"
         style="fill:none;stroke:#000000;stroke-width:1.25;stroke-linecap:butt;stroke-linejoin:miter;stroke-miterlimit:3.79999995;stroke-opacity:1;stroke-dasharray:5, 10;stroke-dashoffset:0"
         id="path134"
         inkscape:connector-curvature="0" /><path
         d="m 2388,224 0,31.5 m 0,2054 0,-31.5"
         style="fill:none;stroke:#000000;stroke-width:5;stroke-linecap:butt;stroke-linejoin:miter;stroke-miterlimit:3.79999995;stroke-opacity:1;stroke-dasharray:none"
         id="path136"
         inkscape:connector-curvature="0" /><g
         id="g138"
         transform="scale(10,10)"><text
           transform="matrix(1,0,0,-1,236.854,13.1)"
           id="text140"><tspan
             style="font-size:7px;font-variant:normal;font-weight:normal;writing-mode:lr-tb;fill:#000000;fill-opacity:1;fill-rule:nonzero;stroke:none;font-family:Helvetica;-inkscape-font-specification:Helvetica"
             x="0"
             y="0"
             id="tspan142">8</tspan></text>
</g><path
         d="m 2931,224 0,2085.5"
         style="fill:none;stroke:#000000;stroke-width:1.25;stroke-linecap:butt;stroke-linejoin:miter;stroke-miterlimit:3.79999995;stroke-opacity:1;stroke-dasharray:5, 10;stroke-dashoffset:0"
         id="path144"
         inkscape:connector-curvature="0" /><path
         d="m 2931,224 0,31.5 m 0,2054 0,-31.5"
         style="fill:none;stroke:#000000;stroke-width:5;stroke-linecap:butt;stroke-linejoin:miter;stroke-miterlimit:3.79999995;stroke-opacity:1;stroke-dasharray:none"
         id="path146"
         inkscape:connector-curvature="0" /><g
         id="g148"
         transform="scale(10,10)"><text
           transform="matrix(1,0,0,-1,289.208,13.1)"
           id="text150"><tspan
             style="font-size:7px;font-variant:normal;font-weight:normal;writing-mode:lr-tb;fill:#000000;fill-opacity:1;fill-rule:nonzero;stroke:none;font-family:Helvetica;-inkscape-font-specification:Helvetica"
             x="0 3.892"
             y="0"
             sodipodi:role="line"
             id="tspan152">10</tspan></text>
</g><path
         d="m 3473.5,224 0,2085.5"
         style="fill:none;stroke:#000000;stroke-width:1.25;stroke-linecap:butt;stroke-linejoin:miter;stroke-miterlimit:3.79999995;stroke-opacity:1;stroke-dasharray:5, 10;stroke-dashoffset:0"
         id="path154"
         inkscape:connector-curvature="0" /><path
         d="m 3473.5,224 0,31.5 m 0,2054 0,-31.5"
         style="fill:none;stroke:#000000;stroke-width:5;stroke-linecap:butt;stroke-linejoin:miter;stroke-miterlimit:3.79999995;stroke-opacity:1;stroke-dasharray:none"
         id="path156"
         inkscape:connector-curvature="0" /><g
         id="g158"
         transform="scale(10,10)"><text
           transform="matrix(1,0,0,-1,343.458,13.1)"
           id="text160"><tspan
             style="font-size:7px;font-variant:normal;font-weight:normal;writing-mode:lr-tb;fill:#000000;fill-opacity:1;fill-rule:nonzero;stroke:none;font-family:Helvetica;-inkscape-font-specification:Helvetica"
             x="0 3.892"
             y="0"
             sodipodi:role="line"
             id="tspan162">12</tspan></text>
</g><path
         d="m 217,224 3256.5,0 0,2085.5 -3256.5,0 0,-2085.5 z"
         style="fill:none;stroke:#000000;stroke-width:5;stroke-linecap:butt;stroke-linejoin:miter;stroke-miterlimit:3.79999995;stroke-opacity:1;stroke-dasharray:none"
         id="path164"
         inkscape:connector-curvature="0" /><g
         id="g166"
         transform="scale(10,10)"><text
           transform="matrix(0,1,1,0,7.9,99.6109)"
           id="text168"><tspan
             style="font-size:7px;font-variant:normal;font-weight:normal;writing-mode:lr-tb;fill:#000000;fill-opacity:1;fill-rule:nonzero;stroke:none;font-family:Helvetica;-inkscape-font-specification:Helvetica"
             x="0 3.892 7.7839999 9.7299995 13.622 17.514 19.459999 21.406 24.906 28.798 30.351999 32.298 36.189999 40.082001 43.973999 45.919998 48.250999 51.750999"
             y="0"
             sodipodi:role="line"
             id="tspan170">output voltage (v)</tspan></text>
<text
           transform="matrix(1,0,0,-1,158.048,2.6)"
           id="text172"><tspan
             style="font-size:7px;font-variant:normal;font-weight:normal;writing-mode:lr-tb;fill:#000000;fill-opacity:1;fill-rule:nonzero;stroke:none;font-family:Helvetica;-inkscape-font-specification:Helvetica"
             x="0 3.5 7.3920002 11.284 15.176 16.73 20.23 22.176001 25.676001 29.568001 31.122 35.014 38.905998 42.798 44.743999 47.075001 50.575001"
             y="0"
             sodipodi:role="line"
             id="tspan174">supply volage (v)</tspan><tspan
             style="font-size:7px;font-variant:normal;font-weight:normal;writing-mode:lr-tb;fill:#000000;fill-opacity:1;fill-rule:nonzero;stroke:none;font-family:Helvetica;-inkscape-font-specification:Helvetica"
             x="9.1414099 13.03341 16.533409 18.47941 22.37141 26.263411 30.155411 31.70941 35.209412 38.709412 40.263409"
             y="-236.55"
             sodipodi:role="line"
             id="tspan176">dc analysis</tspan><tspan
             style="font-size:7px;font-variant:normal;font-weight:normal;writing-mode:lr-tb;fill:#000000;fill-opacity:1;fill-rule:nonzero;stroke:none;font-family:Helvetica;-inkscape-font-specification:Helvetica"
             x="139.2384 143.13042 147.02242 150.91441 154.80641"
             y="-219.39999"
             sodipodi:role="line"
             id="tspan178">n_out</tspan></text>
</g><path
         d="m 3190,2243 199.5,0 M 217,319 l 27,27 27.5,27 27,27 27,27 27,27 27.5,27 27,27.5 27,27 27,27 27.5,27 27,27 27,27 27.5,27 27,27.5 27,27 27,27 27.5,27 27,27 27,27 27.5,27 27,27.5 27,27 27,27 27.5,27 27,27 27,27 27,27 27.5,27 27,27 27,27 27.5,26.5 27,25.5 27,25 27,23.5 27.5,21.5 27,20 27,18 27,17 27.5,15.5 27,15 27,14 27.5,14 27,13.5 27,13 27,12.5 27.5,12.5 27,12 27,12.5 27,12 27.5,11.5 27,12 27,11.5 27.5,11.5 27,11.5 27,11.5 27,11 27.5,11.5 27,11 27,11 27.5,11.5 27,11 27,11 27,11 27.5,11 27,11 27,10.5 27,11 27.5,11 27,11 27,10.5 27.5,11 27,10.5 27,11 27,10.5 27.5,11 27,10.5 27,10.5 27,11 27.5,10.5 27,10.5 27,11 27.5,10.5 27,10.5 27,10.5 27,10.5 27.5,11 27,10.5 27,10.5 27,10.5 27.5,10.5 27,10.5 27,10.5 27.5,10.5 27,10.5 27,10.5 27,10.5 27.5,10.5 27,10.5 27,10.5 27.5,10.5 27,10.5 27,10.5"
         style="fill:none;stroke:#ff0000;stroke-width:2.5;stroke-linecap:butt;stroke-linejoin:miter;stroke-miterlimit:3.79999995;stroke-opacity:1;stroke-dasharray:none"
         id="path180"
         inkscape:connector-curvature="0" /><path
         d="m 2985,2027.5 27,10.5 27.5,10 27,10.5 27,10.5 27,10.5 27.5,10.5 27,10.5 27,10.5 27.5,10 27,10.5 27,10.5 27,10.5 27.5,10.5 27,10 27,10.5 27,10.5 27.5,10.5 27,10"
         style="fill:none;stroke:#ff0000;stroke-width:2.5;stroke-linecap:butt;stroke-linejoin:miter;stroke-miterlimit:3.79999995;stroke-opacity:1;stroke-dasharray:none"
         id="path182"
         inkscape:connector-curvature="0" /><path
         d="m 217,224 3256.5,0 0,2085.5 -3256.5,0 0,-2085.5 z"
         style="fill:none;stroke:#000000;stroke-width:5;stroke-linecap:butt;stroke-linejoin:miter;stroke-miterlimit:3.79999995;stroke-opacity:1;stroke-dasharray:none"
         id="path184"
         inkscape:connector-curvature="0" /></g></g></svg>