<?xml version="1.0" encoding="UTF-8" standalone="no"?>
<!-- Created with Inkscape (http://www.inkscape.org/) -->

<svg
   xmlns:dc="http://purl.org/dc/elements/1.1/"
   xmlns:cc="http://creativecommons.org/ns#"
   xmlns:rdf="http://www.w3.org/1999/02/22-rdf-syntax-ns#"
   xmlns:svg="http://www.w3.org/2000/svg"
   xmlns="http://www.w3.org/2000/svg"
   xmlns:sodipodi="http://sodipodi.sourceforge.net/DTD/sodipodi-0.dtd"
   xmlns:inkscape="http://www.inkscape.org/namespaces/inkscape"
   id="svg2"
   version="1.1"
   inkscape:version="0.48.4 r9939"
   width="800"
   height="561.94202"
   xml:space="preserve"
   sodipodi:docname="wilson_current_mirror_simulation_dc_analysis.eps"><metadata
     id="metadata8"><rdf:RDF><cc:Work
         rdf:about=""><dc:format>image/svg+xml</dc:format><dc:type
           rdf:resource="http://purl.org/dc/dcmitype/StillImage" /><dc:title></dc:title></cc:Work></rdf:RDF></metadata><defs
     id="defs6" /><sodipodi:namedview
     pagecolor="#ffffff"
     bordercolor="#666666"
     borderopacity="1"
     objecttolerance="10"
     gridtolerance="10"
     guidetolerance="10"
     inkscape:pageopacity="0"
     inkscape:pageshadow="2"
     inkscape:window-width="1280"
     inkscape:window-height="750"
     id="namedview4"
     showgrid="false"
     fit-margin-top="0"
     fit-margin-left="0"
     fit-margin-right="0"
     fit-margin-bottom="0"
     inkscape:zoom="0.73777778"
     inkscape:cx="454.1623"
     inkscape:cy="218.95986"
     inkscape:window-x="0"
     inkscape:window-y="0"
     inkscape:window-maximized="1"
     inkscape:current-layer="g12" /><g
     id="g10"
     inkscape:groupmode="layer"
     inkscape:label="ink_ext_XXXXXX"
     transform="matrix(1.25,0,0,-1.25,-3.49625,563.28452)"><g
       id="g12"
       transform="matrix(0.18486531,0,0,0.18486531,-2.3736827,-0.91145341)"><path
         d="m 385,319 3088.5,0"
         style="fill:none;stroke:#000000;stroke-width:1.25;stroke-linecap:butt;stroke-linejoin:miter;stroke-miterlimit:3.79999995;stroke-opacity:1;stroke-dasharray:5, 10;stroke-dashoffset:0"
         id="path14"
         inkscape:connector-curvature="0" /><path
         d="m 385,319 31.5,0 m 3057,0 -31.5,0"
         style="fill:none;stroke:#000000;stroke-width:5;stroke-linecap:butt;stroke-linejoin:miter;stroke-miterlimit:3.79999995;stroke-opacity:1;stroke-dasharray:none"
         id="path16"
         inkscape:connector-curvature="0" /><g
         id="g18"
         transform="scale(10,10)"><text
           transform="matrix(1,0,0,-1,20.6789,29.6)"
           id="text20"><tspan
             style="font-size:7px;font-variant:normal;font-weight:normal;writing-mode:lr-tb;fill:#000000;fill-opacity:1;fill-rule:nonzero;stroke:none;font-family:Helvetica;-inkscape-font-specification:Helvetica"
             x="0 3.892 7.7839999 9.7299995"
             y="0"
             sodipodi:role="line"
             id="tspan22">49.2</tspan></text>
</g><path
         d="m 385,556 3088.5,0"
         style="fill:none;stroke:#000000;stroke-width:1.25;stroke-linecap:butt;stroke-linejoin:miter;stroke-miterlimit:3.79999995;stroke-opacity:1;stroke-dasharray:5, 10;stroke-dashoffset:0"
         id="path24"
         inkscape:connector-curvature="0" /><path
         d="m 385,556 31.5,0 m 3057,0 -31.5,0"
         style="fill:none;stroke:#000000;stroke-width:5;stroke-linecap:butt;stroke-linejoin:miter;stroke-miterlimit:3.79999995;stroke-opacity:1;stroke-dasharray:none"
         id="path26"
         inkscape:connector-curvature="0" /><g
         id="g28"
         transform="scale(10,10)"><text
           transform="matrix(1,0,0,-1,16.7871,53.3)"
           id="text30"><tspan
             style="font-size:7px;font-variant:normal;font-weight:normal;writing-mode:lr-tb;fill:#000000;fill-opacity:1;fill-rule:nonzero;stroke:none;font-family:Helvetica;-inkscape-font-specification:Helvetica"
             x="0 3.892 7.7839999 9.7299995 13.622"
             y="0"
             sodipodi:role="line"
             id="tspan32">49.25</tspan></text>
</g><path
         d="m 385,793 3088.5,0"
         style="fill:none;stroke:#000000;stroke-width:1.25;stroke-linecap:butt;stroke-linejoin:miter;stroke-miterlimit:3.79999995;stroke-opacity:1;stroke-dasharray:5, 10;stroke-dashoffset:0"
         id="path34"
         inkscape:connector-curvature="0" /><path
         d="m 385,793 31.5,0 m 3057,0 -31.5,0"
         style="fill:none;stroke:#000000;stroke-width:5;stroke-linecap:butt;stroke-linejoin:miter;stroke-miterlimit:3.79999995;stroke-opacity:1;stroke-dasharray:none"
         id="path36"
         inkscape:connector-curvature="0" /><g
         id="g38"
         transform="scale(10,10)"><text
           transform="matrix(1,0,0,-1,20.6789,77)"
           id="text40"><tspan
             style="font-size:7px;font-variant:normal;font-weight:normal;writing-mode:lr-tb;fill:#000000;fill-opacity:1;fill-rule:nonzero;stroke:none;font-family:Helvetica;-inkscape-font-specification:Helvetica"
             x="0 3.892 7.7839999 9.7299995"
             y="0"
             sodipodi:role="line"
             id="tspan42">49.3</tspan></text>
</g><path
         d="m 385,1030 3088.5,0"
         style="fill:none;stroke:#000000;stroke-width:1.25;stroke-linecap:butt;stroke-linejoin:miter;stroke-miterlimit:3.79999995;stroke-opacity:1;stroke-dasharray:5, 10;stroke-dashoffset:0"
         id="path44"
         inkscape:connector-curvature="0" /><path
         d="m 385,1030 31.5,0 m 3057,0 -31.5,0"
         style="fill:none;stroke:#000000;stroke-width:5;stroke-linecap:butt;stroke-linejoin:miter;stroke-miterlimit:3.79999995;stroke-opacity:1;stroke-dasharray:none"
         id="path46"
         inkscape:connector-curvature="0" /><g
         id="g48"
         transform="scale(10,10)"><text
           transform="matrix(1,0,0,-1,16.7871,100.7)"
           id="text50"><tspan
             style="font-size:7px;font-variant:normal;font-weight:normal;writing-mode:lr-tb;fill:#000000;fill-opacity:1;fill-rule:nonzero;stroke:none;font-family:Helvetica;-inkscape-font-specification:Helvetica"
             x="0 3.892 7.7839999 9.7299995 13.622"
             y="0"
             sodipodi:role="line"
             id="tspan52">49.35</tspan></text>
</g><path
         d="m 385,1266.5 3088.5,0"
         style="fill:none;stroke:#000000;stroke-width:1.25;stroke-linecap:butt;stroke-linejoin:miter;stroke-miterlimit:3.79999995;stroke-opacity:1;stroke-dasharray:5, 10;stroke-dashoffset:0"
         id="path54"
         inkscape:connector-curvature="0" /><path
         d="m 385,1266.5 31.5,0 m 3057,0 -31.5,0"
         style="fill:none;stroke:#000000;stroke-width:5;stroke-linecap:butt;stroke-linejoin:miter;stroke-miterlimit:3.79999995;stroke-opacity:1;stroke-dasharray:none"
         id="path56"
         inkscape:connector-curvature="0" /><g
         id="g58"
         transform="scale(10,10)"><text
           transform="matrix(1,0,0,-1,20.6789,124.35)"
           id="text60"><tspan
             style="font-size:7px;font-variant:normal;font-weight:normal;writing-mode:lr-tb;fill:#000000;fill-opacity:1;fill-rule:nonzero;stroke:none;font-family:Helvetica;-inkscape-font-specification:Helvetica"
             x="0 3.892 7.7839999 9.7299995"
             y="0"
             sodipodi:role="line"
             id="tspan62">49.4</tspan></text>
</g><path
         d="m 385,1503.5 3088.5,0"
         style="fill:none;stroke:#000000;stroke-width:1.25;stroke-linecap:butt;stroke-linejoin:miter;stroke-miterlimit:3.79999995;stroke-opacity:1;stroke-dasharray:5, 10;stroke-dashoffset:0"
         id="path64"
         inkscape:connector-curvature="0" /><path
         d="m 385,1503.5 31.5,0 m 3057,0 -31.5,0"
         style="fill:none;stroke:#000000;stroke-width:5;stroke-linecap:butt;stroke-linejoin:miter;stroke-miterlimit:3.79999995;stroke-opacity:1;stroke-dasharray:none"
         id="path66"
         inkscape:connector-curvature="0" /><g
         id="g68"
         transform="scale(10,10)"><text
           transform="matrix(1,0,0,-1,16.7871,148.05)"
           id="text70"><tspan
             style="font-size:7px;font-variant:normal;font-weight:normal;writing-mode:lr-tb;fill:#000000;fill-opacity:1;fill-rule:nonzero;stroke:none;font-family:Helvetica;-inkscape-font-specification:Helvetica"
             x="0 3.892 7.7839999 9.7299995 13.622"
             y="0"
             sodipodi:role="line"
             id="tspan72">49.45</tspan></text>
</g><path
         d="m 385,1740.5 3088.5,0"
         style="fill:none;stroke:#000000;stroke-width:1.25;stroke-linecap:butt;stroke-linejoin:miter;stroke-miterlimit:3.79999995;stroke-opacity:1;stroke-dasharray:5, 10;stroke-dashoffset:0"
         id="path74"
         inkscape:connector-curvature="0" /><path
         d="m 385,1740.5 31.5,0 m 3057,0 -31.5,0"
         style="fill:none;stroke:#000000;stroke-width:5;stroke-linecap:butt;stroke-linejoin:miter;stroke-miterlimit:3.79999995;stroke-opacity:1;stroke-dasharray:none"
         id="path76"
         inkscape:connector-curvature="0" /><g
         id="g78"
         transform="scale(10,10)"><text
           transform="matrix(1,0,0,-1,20.6789,171.75)"
           id="text80"><tspan
             style="font-size:7px;font-variant:normal;font-weight:normal;writing-mode:lr-tb;fill:#000000;fill-opacity:1;fill-rule:nonzero;stroke:none;font-family:Helvetica;-inkscape-font-specification:Helvetica"
             x="0 3.892 7.7839999 9.7299995"
             y="0"
             sodipodi:role="line"
             id="tspan82">49.5</tspan></text>
</g><path
         d="m 385,1977.5 3088.5,0"
         style="fill:none;stroke:#000000;stroke-width:1.25;stroke-linecap:butt;stroke-linejoin:miter;stroke-miterlimit:3.79999995;stroke-opacity:1;stroke-dasharray:5, 10;stroke-dashoffset:0"
         id="path84"
         inkscape:connector-curvature="0" /><path
         d="m 385,1977.5 31.5,0 m 3057,0 -31.5,0"
         style="fill:none;stroke:#000000;stroke-width:5;stroke-linecap:butt;stroke-linejoin:miter;stroke-miterlimit:3.79999995;stroke-opacity:1;stroke-dasharray:none"
         id="path86"
         inkscape:connector-curvature="0" /><g
         id="g88"
         transform="scale(10,10)"><text
           transform="matrix(1,0,0,-1,16.7871,195.45)"
           id="text90"><tspan
             style="font-size:7px;font-variant:normal;font-weight:normal;writing-mode:lr-tb;fill:#000000;fill-opacity:1;fill-rule:nonzero;stroke:none;font-family:Helvetica;-inkscape-font-specification:Helvetica"
             x="0 3.892 7.7839999 9.7299995 13.622"
             y="0"
             sodipodi:role="line"
             id="tspan92">49.55</tspan></text>
</g><path
         d="m 385,2214.5 2007,0 m 1039.5,0 42,0"
         style="fill:none;stroke:#000000;stroke-width:1.25;stroke-linecap:butt;stroke-linejoin:miter;stroke-miterlimit:3.79999995;stroke-opacity:1;stroke-dasharray:5, 10;stroke-dashoffset:0"
         id="path94"
         inkscape:connector-curvature="0" /><path
         d="m 385,2214.5 31.5,0 m 3057,0 -31.5,0"
         style="fill:none;stroke:#000000;stroke-width:5;stroke-linecap:butt;stroke-linejoin:miter;stroke-miterlimit:3.79999995;stroke-opacity:1;stroke-dasharray:none"
         id="path96"
         inkscape:connector-curvature="0" /><g
         id="g98"
         transform="scale(10,10)"><text
           transform="matrix(1,0,0,-1,20.6789,219.15)"
           id="text100"><tspan
             style="font-size:7px;font-variant:normal;font-weight:normal;writing-mode:lr-tb;fill:#000000;fill-opacity:1;fill-rule:nonzero;stroke:none;font-family:Helvetica;-inkscape-font-specification:Helvetica"
             x="0 3.892 7.7839999 9.7299995"
             y="0"
             sodipodi:role="line"
             id="tspan102">49.6</tspan></text>
</g><path
         d="m 385,224 0,2085.5"
         style="fill:none;stroke:#000000;stroke-width:1.25;stroke-linecap:butt;stroke-linejoin:miter;stroke-miterlimit:3.79999995;stroke-opacity:1;stroke-dasharray:5, 10;stroke-dashoffset:0"
         id="path104"
         inkscape:connector-curvature="0" /><path
         d="m 385,224 0,31.5 m 0,2054 0,-31.5"
         style="fill:none;stroke:#000000;stroke-width:5;stroke-linecap:butt;stroke-linejoin:miter;stroke-miterlimit:3.79999995;stroke-opacity:1;stroke-dasharray:none"
         id="path106"
         inkscape:connector-curvature="0" /><g
         id="g108"
         transform="scale(10,10)"><text
           transform="matrix(1,0,0,-1,36.5543,13.1)"
           id="text110"><tspan
             style="font-size:7px;font-variant:normal;font-weight:normal;writing-mode:lr-tb;fill:#000000;fill-opacity:1;fill-rule:nonzero;stroke:none;font-family:Helvetica;-inkscape-font-specification:Helvetica"
             x="0"
             y="0"
             id="tspan112">0</tspan></text>
</g><path
         d="m 1002.5,224 0,2085.5"
         style="fill:none;stroke:#000000;stroke-width:1.25;stroke-linecap:butt;stroke-linejoin:miter;stroke-miterlimit:3.79999995;stroke-opacity:1;stroke-dasharray:5, 10;stroke-dashoffset:0"
         id="path114"
         inkscape:connector-curvature="0" /><path
         d="m 1002.5,224 0,31.5 m 0,2054 0,-31.5"
         style="fill:none;stroke:#000000;stroke-width:5;stroke-linecap:butt;stroke-linejoin:miter;stroke-miterlimit:3.79999995;stroke-opacity:1;stroke-dasharray:none"
         id="path116"
         inkscape:connector-curvature="0" /><g
         id="g118"
         transform="scale(10,10)"><text
           transform="matrix(1,0,0,-1,98.3043,13.1)"
           id="text120"><tspan
             style="font-size:7px;font-variant:normal;font-weight:normal;writing-mode:lr-tb;fill:#000000;fill-opacity:1;fill-rule:nonzero;stroke:none;font-family:Helvetica;-inkscape-font-specification:Helvetica"
             x="0"
             y="0"
             id="tspan122">1</tspan></text>
</g><path
         d="m 1620.5,224 0,2085.5"
         style="fill:none;stroke:#000000;stroke-width:1.25;stroke-linecap:butt;stroke-linejoin:miter;stroke-miterlimit:3.79999995;stroke-opacity:1;stroke-dasharray:5, 10;stroke-dashoffset:0"
         id="path124"
         inkscape:connector-curvature="0" /><path
         d="m 1620.5,224 0,31.5 m 0,2054 0,-31.5"
         style="fill:none;stroke:#000000;stroke-width:5;stroke-linecap:butt;stroke-linejoin:miter;stroke-miterlimit:3.79999995;stroke-opacity:1;stroke-dasharray:none"
         id="path126"
         inkscape:connector-curvature="0" /><g
         id="g128"
         transform="scale(10,10)"><text
           transform="matrix(1,0,0,-1,160.104,13.1)"
           id="text130"><tspan
             style="font-size:7px;font-variant:normal;font-weight:normal;writing-mode:lr-tb;fill:#000000;fill-opacity:1;fill-rule:nonzero;stroke:none;font-family:Helvetica;-inkscape-font-specification:Helvetica"
             x="0"
             y="0"
             id="tspan132">2</tspan></text>
</g><path
         d="m 2238,224 0,2085.5"
         style="fill:none;stroke:#000000;stroke-width:1.25;stroke-linecap:butt;stroke-linejoin:miter;stroke-miterlimit:3.79999995;stroke-opacity:1;stroke-dasharray:5, 10;stroke-dashoffset:0"
         id="path134"
         inkscape:connector-curvature="0" /><path
         d="m 2238,224 0,31.5 m 0,2054 0,-31.5"
         style="fill:none;stroke:#000000;stroke-width:5;stroke-linecap:butt;stroke-linejoin:miter;stroke-miterlimit:3.79999995;stroke-opacity:1;stroke-dasharray:none"
         id="path136"
         inkscape:connector-curvature="0" /><g
         id="g138"
         transform="scale(10,10)"><text
           transform="matrix(1,0,0,-1,221.854,13.1)"
           id="text140"><tspan
             style="font-size:7px;font-variant:normal;font-weight:normal;writing-mode:lr-tb;fill:#000000;fill-opacity:1;fill-rule:nonzero;stroke:none;font-family:Helvetica;-inkscape-font-specification:Helvetica"
             x="0"
             y="0"
             id="tspan142">3</tspan></text>
</g><path
         d="m 2856,224 0,1984 m 0,70 0,31.5"
         style="fill:none;stroke:#000000;stroke-width:1.25;stroke-linecap:butt;stroke-linejoin:miter;stroke-miterlimit:3.79999995;stroke-opacity:1;stroke-dasharray:5, 10;stroke-dashoffset:0"
         id="path144"
         inkscape:connector-curvature="0" /><path
         d="m 2856,224 0,31.5 m 0,2054 0,-31.5"
         style="fill:none;stroke:#000000;stroke-width:5;stroke-linecap:butt;stroke-linejoin:miter;stroke-miterlimit:3.79999995;stroke-opacity:1;stroke-dasharray:none"
         id="path146"
         inkscape:connector-curvature="0" /><g
         id="g148"
         transform="scale(10,10)"><text
           transform="matrix(1,0,0,-1,283.654,13.1)"
           id="text150"><tspan
             style="font-size:7px;font-variant:normal;font-weight:normal;writing-mode:lr-tb;fill:#000000;fill-opacity:1;fill-rule:nonzero;stroke:none;font-family:Helvetica;-inkscape-font-specification:Helvetica"
             x="0"
             y="0"
             id="tspan152">4</tspan></text>
</g><path
         d="m 3473.5,224 0,2085.5"
         style="fill:none;stroke:#000000;stroke-width:1.25;stroke-linecap:butt;stroke-linejoin:miter;stroke-miterlimit:3.79999995;stroke-opacity:1;stroke-dasharray:5, 10;stroke-dashoffset:0"
         id="path154"
         inkscape:connector-curvature="0" /><path
         d="m 3473.5,224 0,31.5 m 0,2054 0,-31.5"
         style="fill:none;stroke:#000000;stroke-width:5;stroke-linecap:butt;stroke-linejoin:miter;stroke-miterlimit:3.79999995;stroke-opacity:1;stroke-dasharray:none"
         id="path156"
         inkscape:connector-curvature="0" /><g
         id="g158"
         transform="scale(10,10)"><text
           transform="matrix(1,0,0,-1,345.404,13.1)"
           id="text160"><tspan
             style="font-size:7px;font-variant:normal;font-weight:normal;writing-mode:lr-tb;fill:#000000;fill-opacity:1;fill-rule:nonzero;stroke:none;font-family:Helvetica;-inkscape-font-specification:Helvetica"
             x="0"
             y="0"
             id="tspan162">5</tspan></text>
</g><path
         d="m 385,224 3088.5,0 0,2085.5 -3088.5,0 0,-2085.5 z"
         style="fill:none;stroke:#000000;stroke-width:5;stroke-linecap:butt;stroke-linejoin:miter;stroke-miterlimit:3.79999995;stroke-opacity:1;stroke-dasharray:none"
         id="path164"
         inkscape:connector-curvature="0" /><g
         id="g166"
         transform="scale(10,10)"><text
           transform="matrix(0,1,1,0,7.9,97.8609)"
           id="text168"><tspan
             style="font-size:7px;font-variant:normal;font-weight:normal;writing-mode:lr-tb;fill:#000000;fill-opacity:1;fill-rule:nonzero;stroke:none;font-family:Helvetica;-inkscape-font-specification:Helvetica"
             x="0 3.5 7.3920002 9.7229996 12.054 15.946 19.837999 21.784 23.73 27.622 31.514 33.459999 37.352001 41.243999 43.189999 45.136002 47.466999 51.359001 55.250999"
             y="0"
             sodipodi:role="line"
             id="tspan170">current output (ua)</tspan></text>
<text
           transform="matrix(1,0,0,-1,163.533,2.6)"
           id="text172"><tspan
             style="font-size:7px;font-variant:normal;font-weight:normal;writing-mode:lr-tb;fill:#000000;fill-opacity:1;fill-rule:nonzero;stroke:none;font-family:Helvetica;-inkscape-font-specification:Helvetica"
             x="0 3.5 7.3920002 8.9460001 10.5 14.392 17.892 19.837999 23.73 26.061001 28.007 31.507 35.398998 36.952999 40.845001 44.737 48.629002 50.575001 52.905998 56.405998"
             y="0"
             sodipodi:role="line"
             id="tspan174">collector volage (v)</tspan><tspan
             style="font-size:7px;font-variant:normal;font-weight:normal;writing-mode:lr-tb;fill:#000000;fill-opacity:1;fill-rule:nonzero;stroke:none;font-family:Helvetica;-inkscape-font-specification:Helvetica"
             x="-42.2145 -38.322498 -34.822498 -32.876499 -28.984501 -25.092501 -21.2005 -19.6465 -16.1465 -12.6465 -11.0925 -7.5925002 -5.6465001 -3.7005 -0.2005 3.6914999 6.0225 8.3535004 12.2455 16.137501 18.0835 20.029499 23.921499 27.813499 29.759501 33.651501 37.543499 39.489498 41.435501 44.935501 48.435501 50.3815 53.8815 57.773499 59.327499 60.8815 64.773499 68.273499 70.219498 74.111504 76.442497 78.388496 81.888496 85.780502 87.334503 89.280502 93.172501 97.064499"
             y="-236.55"
             sodipodi:role="line"
             id="tspan176">dc analysis: current output vs collector voltage</tspan><tspan
             style="font-size:7px;font-variant:normal;font-weight:normal;writing-mode:lr-tb;fill:#000000;fill-opacity:1;fill-rule:nonzero;stroke:none;font-family:Helvetica;-inkscape-font-specification:Helvetica"
             x="89.2145 91.545502 95.045502 98.9375 102.8295 106.7215 109.0525 112.9445 116.8365 120.3365 124.2285 126.9515 129.2825 133.1745 137.0665 141.1545 145.04649 148.93851"
             y="-219.39999"
             sodipodi:role="line"
             id="tspan178">(v2#branch*-1e+06)</tspan></text>
</g><path
         d="m 3190,2243 199.5,0 m -2453,-2019 4.5,687.5 61.5,362.5 62,37.5 61.5,11 62,8 62,7.5 61.5,7 62,7.5 61.5,7 62,7.5 61.5,7 62,7 61.5,7.5 62,7 61.5,7 62,7 62,7 61.5,7 62,7 61.5,7 62,7 61.5,7 62,7 61.5,7 62,6.5 61.5,7 62,7 61.5,6.5 62,7 62,6.5 61.5,7 62,6.5 61.5,6.5 62,7 61.5,6.5 62,6.5 61.5,6.5 62,6.5 61.5,6.5 62,6.5 61.5,6.5 62,6.5"
         style="fill:none;stroke:#ff0000;stroke-width:6.49121244;stroke-linecap:butt;stroke-linejoin:miter;stroke-miterlimit:3.79999995;stroke-opacity:1;stroke-dasharray:none"
         id="path180"
         inkscape:connector-curvature="0" /><path
         d="m 385,224 3088.5,0 0,2085.5 -3088.5,0 0,-2085.5 z"
         style="fill:none;stroke:#000000;stroke-width:5;stroke-linecap:butt;stroke-linejoin:miter;stroke-miterlimit:3.79999995;stroke-opacity:1;stroke-dasharray:none"
         id="path182"
         inkscape:connector-curvature="0" /></g></g></svg>