<?xml version="1.0" encoding="UTF-8" standalone="no"?>
<svg
   xmlns:dc="http://purl.org/dc/elements/1.1/"
   xmlns:cc="http://creativecommons.org/ns#"
   xmlns:rdf="http://www.w3.org/1999/02/22-rdf-syntax-ns#"
   xmlns:svg="http://www.w3.org/2000/svg"
   xmlns="http://www.w3.org/2000/svg"
   xmlns:sodipodi="http://sodipodi.sourceforge.net/DTD/sodipodi-0.dtd"
   xmlns:inkscape="http://www.inkscape.org/namespaces/inkscape"
   version="1.1"
   width="800"
   height="701.55377"
   viewBox="0 0 88888.951 77950.496"
   id="svg2"
   inkscape:version="0.48.4 r9939"
   sodipodi:docname="pnp_wilson_current_mirror.sch.svg">
  <metadata
     id="metadata400">
    <rdf:RDF>
      <cc:Work
         rdf:about="">
        <dc:format>image/svg+xml</dc:format>
        <dc:type
           rdf:resource="http://purl.org/dc/dcmitype/StillImage" />
      </cc:Work>
    </rdf:RDF>
  </metadata>
  <defs
     id="defs398" />
  <sodipodi:namedview
     pagecolor="#ffffff"
     bordercolor="#666666"
     borderopacity="1"
     objecttolerance="10"
     gridtolerance="10"
     guidetolerance="10"
     inkscape:pageopacity="0"
     inkscape:pageshadow="2"
     inkscape:window-width="1280"
     inkscape:window-height="750"
     id="namedview396"
     showgrid="false"
     fit-margin-top="0"
     fit-margin-left="0"
     fit-margin-right="0"
     fit-margin-bottom="0"
     inkscape:zoom="0.51502835"
     inkscape:cx="369.50618"
     inkscape:cy="336.04017"
     inkscape:window-x="0"
     inkscape:window-y="0"
     inkscape:window-maximized="1"
     inkscape:current-layer="svg2" />
  <title
     id="title4">SVG Picture created as pnp_wilson_current_mirror.sch.svg date 2017/09/21 12:41:15 </title>
  <desc
     id="desc6">Picture generated by Eeschema-SVG </desc>
  <g
     style="fill:#000000;fill-opacity:1;stroke:#000000;stroke-linecap:round;stroke-linejoin:round;stroke-opacity:1"
     id="g8"
     transform="translate(-42700.021,36400.5)" />
  <g
     style="fill:#000000;fill-opacity:0;stroke:#000000;stroke-width:0;stroke-linecap:round;stroke-linejoin:round;stroke-opacity:1"
     id="g10"
     transform="translate(-42700.021,36400.5)" />
  <g
     style="fill:#840000;fill-opacity:0;stroke:#840000;stroke-width:0;stroke-linecap:round;stroke-linejoin:round;stroke-opacity:1"
     id="g12"
     transform="translate(-42700.021,36400.5)" />
  <g
     style="fill:#840000;fill-opacity:0;stroke:#840000;stroke-width:100;stroke-linecap:round;stroke-linejoin:round;stroke-opacity:1"
     id="g14"
     transform="matrix(5.5244858,0,0,5.5244858,-235895.56,-151591.89)">
    <polyline
       fill="none;"
       points="48250,41000 49750,41000 "
       id="polyline16" />
    <polyline
       fill="none;"
       points="48500,41250 49500,41250 "
       id="polyline18" />
    <polyline
       fill="none;"
       points="48750,41500 49250,41500 "
       id="polyline20" />
    <polyline
       fill="none;"
       points="49000,40000 49000,41000 "
       id="polyline22" />
  </g>
  <g
     style="fill:#840000;fill-opacity:0;stroke:#840000;stroke-width:60;stroke-linecap:round;stroke-linejoin:round;stroke-opacity:1"
     id="g24"
     transform="matrix(5.5244858,0,0,5.5244858,-235895.56,-151591.89)">
    <path
       d="m 49000,40000 0,0"
       id="path26"
       inkscape:connector-curvature="0" />
  </g>
  <g
     style="fill:#840000;fill-opacity:0;stroke:#840000;stroke-width:0;stroke-linecap:round;stroke-linejoin:round;stroke-opacity:1"
     id="g28"
     transform="translate(-42700.021,36400.5)" />
  <g
     style="fill:#840000;fill-opacity:0;stroke:#840000;stroke-width:100;stroke-linecap:round;stroke-linejoin:round;stroke-opacity:1"
     id="g30"
     transform="matrix(5.5244858,0,0,5.5244858,-235895.56,-151591.89)">
    <circle
       cx="44000"
       cy="28000"
       r="500"
       id="circle32"
       sodipodi:cx="44000"
       sodipodi:cy="28000"
       sodipodi:rx="500"
       sodipodi:ry="500"
       d="m 44500,28000 c 0,276.142 -223.858,500 -500,500 -276.142,0 -500,-223.858 -500,-500 0,-276.142 223.858,-500 500,-500 276.142,0 500,223.858 500,500 z" />
    <polyline
       fill="none;"
       points="44000,28250 44000,27750 "
       id="polyline34" />
    <polyline
       fill="none;"
       points="45000,28000 44500,28000 "
       id="polyline36" />
    <polyline
       fill="none;"
       points="44250,28000 43750,28000 "
       id="polyline38" />
  </g>
  <g
     style="fill:#840000;fill-opacity:0;stroke:#840000;stroke-width:60;stroke-linecap:round;stroke-linejoin:round;stroke-opacity:1"
     id="g40"
     transform="matrix(5.5244858,0,0,5.5244858,-235895.56,-151591.89)">
    <path
       d="m 45000,28000 0,0"
       id="path42"
       inkscape:connector-curvature="0" />
  </g>
  <g
     style="fill:#008484;fill-opacity:0;stroke:#008484;stroke-width:60;stroke-linecap:round;stroke-linejoin:round;stroke-opacity:1"
     id="g44"
     transform="matrix(5.5244858,0,0,5.5244858,-235895.56,-151591.89)">
    <path
       d="m 42730,28460 500,-160 -500,-170"
       id="path46"
       inkscape:connector-curvature="0" />
    <path
       d="m 43040,27960 0,-380"
       id="path48"
       inkscape:connector-curvature="0" />
    <path
       d="m 43230,27770 -380,0"
       id="path50"
       inkscape:connector-curvature="0" />
  </g>
  <g
     style="fill:#008484;fill-opacity:0;stroke:#008484;stroke-width:0;stroke-linecap:round;stroke-linejoin:round;stroke-opacity:1"
     id="g52"
     transform="translate(-42700.021,36400.5)" />
  <g
     style="fill:#840000;fill-opacity:0;stroke:#840000;stroke-width:0;stroke-linecap:round;stroke-linejoin:round;stroke-opacity:1"
     id="g54"
     transform="translate(-42700.021,36400.5)" />
  <g
     style="fill:#840000;fill-opacity:0;stroke:#840000;stroke-width:100;stroke-linecap:round;stroke-linejoin:round;stroke-opacity:1"
     id="g56"
     transform="matrix(5.5244858,0,0,5.5244858,-235895.56,-151591.89)">
    <circle
       cx="49000"
       cy="37000"
       r="1000"
       id="circle58"
       sodipodi:cx="49000"
       sodipodi:cy="37000"
       sodipodi:rx="1000"
       sodipodi:ry="1000"
       d="m 50000,37000 c 0,552.285 -447.715,1000 -1000,1000 -552.285,0 -1000,-447.715 -1000,-1000 0,-552.285 447.715,-1000 1000,-1000 552.285,0 1000,447.715 1000,1000 z" />
  </g>
  <g
     style="fill:#840000;fill-opacity:1;stroke:#840000;stroke-width:100;stroke-linecap:round;stroke-linejoin:round;stroke-opacity:1"
     id="g60"
     transform="matrix(5.5244858,0,0,5.5244858,-235895.56,-151591.89)">
    <polyline
       style="fill-rule:evenodd"
       points="49000,36250 49000,37750 48750,37250 49250,37250 49000,37750 "
       id="polyline62" />
  </g>
  <g
     style="fill:#840000;fill-opacity:1;stroke:#840000;stroke-width:60;stroke-linecap:round;stroke-linejoin:round;stroke-opacity:1"
     id="g64"
     transform="translate(-42700.021,36400.5)" />
  <g
     style="fill:#840000;fill-opacity:0;stroke:#840000;stroke-width:60;stroke-linecap:round;stroke-linejoin:round;stroke-opacity:1"
     id="g66"
     transform="matrix(5.5244858,0,0,5.5244858,-235895.56,-151591.89)">
    <path
       d="m 49000,36000 0,0"
       id="path68"
       inkscape:connector-curvature="0" />
    <path
       d="m 49000,38000 0,0"
       id="path70"
       inkscape:connector-curvature="0" />
  </g>
  <g
     style="fill:#008484;fill-opacity:0;stroke:#008484;stroke-width:60;stroke-linecap:round;stroke-linejoin:round;stroke-opacity:1"
     id="g72"
     transform="matrix(5.5244858,0,0,5.5244858,-235895.56,-151591.89)">
    <path
       d="m 50120,36480 0,-500"
       id="path74"
       inkscape:connector-curvature="0" />
    <path
       d="m 50620,36480 -280,0"
       id="path76"
       inkscape:connector-curvature="0" />
    <path
       d="m 50480,36480 0,-500 -50,70 -50,50 -40,20"
       id="path78"
       inkscape:connector-curvature="0" />
    <path
       d="m 50360,37540 -240,0 -20,230 20,-20 50,-20 120,0 40,20 30,20 20,50 0,120 -20,50 -30,20 -40,30 -120,0 -50,-30 -20,-20"
       id="path80"
       inkscape:connector-curvature="0" />
    <path
       d="m 50690,37540 50,0 50,20 20,20 30,50 20,100 0,120 -20,90 -30,50 -20,20 -50,30 -50,0 -40,-30 -30,-20 -20,-50 -20,-90 0,-120 20,-100 20,-50 30,-20 40,-20"
       id="path82"
       inkscape:connector-curvature="0" />
    <path
       d="m 51290,37700 0,340"
       id="path84"
       inkscape:connector-curvature="0" />
    <path
       d="m 51080,37700 0,260 20,50 50,30 70,0 50,-30 20,-20"
       id="path86"
       inkscape:connector-curvature="0" />
    <path
       d="m 51510,37890 230,0"
       id="path88"
       inkscape:connector-curvature="0" />
    <path
       d="m 51460,38040 160,-500 170,500"
       id="path90"
       inkscape:connector-curvature="0" />
  </g>
  <g
     style="fill:#008484;fill-opacity:0;stroke:#008484;stroke-width:0;stroke-linecap:round;stroke-linejoin:round;stroke-opacity:1"
     id="g92"
     transform="translate(-42700.021,36400.5)" />
  <g
     style="fill:#840000;fill-opacity:0;stroke:#840000;stroke-width:0;stroke-linecap:round;stroke-linejoin:round;stroke-opacity:1"
     id="g94"
     transform="translate(-42700.021,36400.5)" />
  <g
     style="fill:#840000;fill-opacity:0;stroke:#840000;stroke-width:100;stroke-linecap:round;stroke-linejoin:round;stroke-opacity:1"
     id="g96"
     transform="matrix(5.5244858,0,0,5.5244858,-235895.56,-151591.89)">
    <circle
       cx="53500"
       cy="37000"
       r="1000"
       id="circle98"
       sodipodi:cx="53500"
       sodipodi:cy="37000"
       sodipodi:rx="1000"
       sodipodi:ry="1000"
       d="m 54500,37000 c 0,552.285 -447.715,1000 -1000,1000 -552.285,0 -1000,-447.715 -1000,-1000 0,-552.285 447.715,-1000 1000,-1000 552.285,0 1000,447.715 1000,1000 z" />
    <polyline
       fill="none;"
       points="53250,37500 53750,37500 "
       id="polyline100" />
    <polyline
       fill="none;"
       points="53500,36750 53500,36250 "
       id="polyline102" />
    <polyline
       fill="none;"
       points="53750,36500 53250,36500 "
       id="polyline104" />
  </g>
  <g
     style="fill:#840000;fill-opacity:0;stroke:#840000;stroke-width:60;stroke-linecap:round;stroke-linejoin:round;stroke-opacity:1"
     id="g106"
     transform="matrix(5.5244858,0,0,5.5244858,-235895.56,-151591.89)">
    <path
       d="m 53500,36000 0,0"
       id="path108"
       inkscape:connector-curvature="0" />
    <path
       d="m 53500,38000 0,0"
       id="path110"
       inkscape:connector-curvature="0" />
  </g>
  <g
     style="fill:#008484;fill-opacity:0;stroke:#008484;stroke-width:60;stroke-linecap:round;stroke-linejoin:round;stroke-opacity:1"
     id="g112"
     transform="matrix(5.5244858,0,0,5.5244858,-235895.56,-151591.89)">
    <path
       d="m 54550,35980 160,500 170,-500"
       id="path114"
       inkscape:connector-curvature="0" />
    <path
       d="m 55030,36020 20,-20 50,-20 120,0 40,20 30,20 20,50 0,50 -20,70 -290,290 310,0"
       id="path116"
       inkscape:connector-curvature="0" />
    <path
       d="m 54830,37700 0,340"
       id="path118"
       inkscape:connector-curvature="0" />
    <path
       d="m 54710,37510 -110,360 300,0"
       id="path120"
       inkscape:connector-curvature="0" />
    <path
       d="m 55030,37540 160,500 170,-500"
       id="path122"
       inkscape:connector-curvature="0" />
  </g>
  <g
     style="fill:#008484;fill-opacity:0;stroke:#008484;stroke-width:0;stroke-linecap:round;stroke-linejoin:round;stroke-opacity:1"
     id="g124"
     transform="translate(-42700.021,36400.5)" />
  <g
     style="fill:#840000;fill-opacity:0;stroke:#840000;stroke-width:0;stroke-linecap:round;stroke-linejoin:round;stroke-opacity:1"
     id="g126"
     transform="translate(-42700.021,36400.5)" />
  <g
     style="fill:#840000;fill-opacity:0;stroke:#840000;stroke-width:100;stroke-linecap:round;stroke-linejoin:round;stroke-opacity:1"
     id="g128"
     transform="matrix(5.5244858,0,0,5.5244858,-235895.56,-151591.89)">
    <circle
       cx="46000"
       cy="34000"
       r="1000"
       id="circle130"
       sodipodi:cx="46000"
       sodipodi:cy="34000"
       sodipodi:rx="1000"
       sodipodi:ry="1000"
       d="m 47000,34000 c 0,552.285 -447.715,1000 -1000,1000 -552.285,0 -1000,-447.715 -1000,-1000 0,-552.285 447.715,-1000 1000,-1000 552.285,0 1000,447.715 1000,1000 z" />
    <polyline
       fill="none;"
       points="45750,34500 46250,34500 "
       id="polyline132" />
    <polyline
       fill="none;"
       points="46000,33750 46000,33250 "
       id="polyline134" />
    <polyline
       fill="none;"
       points="46250,33500 45750,33500 "
       id="polyline136" />
  </g>
  <g
     style="fill:#840000;fill-opacity:0;stroke:#840000;stroke-width:60;stroke-linecap:round;stroke-linejoin:round;stroke-opacity:1"
     id="g138"
     transform="matrix(5.5244858,0,0,5.5244858,-235895.56,-151591.89)">
    <path
       d="m 46000,33000 0,0"
       id="path140"
       inkscape:connector-curvature="0" />
    <path
       d="m 46000,35000 0,0"
       id="path142"
       inkscape:connector-curvature="0" />
  </g>
  <g
     style="fill:#008484;fill-opacity:0;stroke:#008484;stroke-width:60;stroke-linecap:round;stroke-linejoin:round;stroke-opacity:1"
     id="g144"
     transform="matrix(5.5244858,0,0,5.5244858,-235895.56,-151591.89)">
    <path
       d="m 44140,32980 160,500 170,-500"
       id="path146"
       inkscape:connector-curvature="0" />
    <path
       d="m 44900,33480 -280,0"
       id="path148"
       inkscape:connector-curvature="0" />
    <path
       d="m 44760,33480 0,-500 -50,70 -50,50 -40,20"
       id="path150"
       inkscape:connector-curvature="0" />
    <path
       d="m 44450,34540 -240,0 -20,230 20,-20 50,-20 120,0 40,20 30,20 20,50 0,120 -20,50 -30,20 -40,30 -120,0 -50,-30 -20,-20"
       id="path152"
       inkscape:connector-curvature="0" />
    <path
       d="m 44620,34540 160,500 170,-500"
       id="path154"
       inkscape:connector-curvature="0" />
  </g>
  <g
     style="fill:#000000;fill-opacity:0;stroke:#000000;stroke-width:60;stroke-linecap:round;stroke-linejoin:round;stroke-opacity:1"
     id="g156"
     transform="matrix(5.5244858,0,0,5.5244858,-235895.56,-151591.89)">
    <path
       d="m 47140,27470 0,400"
       id="path158"
       inkscape:connector-curvature="0" />
    <path
       d="m 47140,27530 30,-30 60,-30 80,0 60,30 30,60 0,310"
       id="path160"
       inkscape:connector-curvature="0" />
    <path
       d="m 47540,27930 460,0"
       id="path162"
       inkscape:connector-curvature="0" />
    <path
       d="m 48140,27470 0,600"
       id="path164"
       inkscape:connector-curvature="0" />
    <path
       d="m 48140,27500 60,-30 110,0 60,30 30,30 30,60 0,170 -30,50 -30,30 -60,30 -110,0 -60,-30"
       id="path166"
       inkscape:connector-curvature="0" />
    <path
       d="m 48770,27870 -60,-30 -30,-30 -30,-50 0,-170 30,-60 30,-30 60,-30 80,0 60,30 30,30 30,60 0,170 -30,50 -30,30 -60,30 -80,0"
       id="path168"
       inkscape:connector-curvature="0" />
    <path
       d="m 49190,27840 60,30 120,0 50,-30 30,-50 0,-30 -30,-60 -50,-30 -90,0 -60,-30 -30,-50 0,-30 30,-60 60,-30 90,0 50,30"
       id="path170"
       inkscape:connector-curvature="0" />
    <path
       d="m 49260,38270 50,0 60,30 30,30 30,60 30,110 0,140 -30,120 -30,50 -30,30 -60,30 -50,0 -60,-30 -30,-30 -30,-50 -30,-120 0,-140 30,-110 30,-60 30,-30 60,-30"
       id="path172"
       inkscape:connector-curvature="0" />
    <path
       d="m 52530,31470 0,400"
       id="path174"
       inkscape:connector-curvature="0" />
    <path
       d="m 52530,31530 30,-30 60,-30 80,0 60,30 30,60 0,310"
       id="path176"
       inkscape:connector-curvature="0" />
    <path
       d="m 53390,31870 -350,0"
       id="path178"
       inkscape:connector-curvature="0" />
    <path
       d="m 53220,31870 0,-600 -60,90 -60,50 -60,30"
       id="path180"
       inkscape:connector-curvature="0" />
    <path
       d="m 52530,35470 0,400"
       id="path182"
       inkscape:connector-curvature="0" />
    <path
       d="m 52530,35530 30,-30 60,-30 80,0 60,30 30,60 0,310"
       id="path184"
       inkscape:connector-curvature="0" />
    <path
       d="m 53040,35330 30,-30 60,-30 140,0 60,30 30,30 30,60 0,50 -30,90 -340,340 370,0"
       id="path186"
       inkscape:connector-curvature="0" />
  </g>
  <g
     style="fill:#000000;fill-opacity:0;stroke:#000000;stroke-width:0;stroke-linecap:round;stroke-linejoin:round;stroke-opacity:1"
     id="g188"
     transform="translate(-42700.021,36400.5)" />
  <g
     style="fill:#840000;fill-opacity:0;stroke:#840000;stroke-width:0;stroke-linecap:round;stroke-linejoin:round;stroke-opacity:1"
     id="g190"
     transform="translate(-42700.021,36400.5)" />
  <g
     style="fill:#840000;fill-opacity:0;stroke:#840000;stroke-width:100;stroke-linecap:round;stroke-linejoin:round;stroke-opacity:1"
     id="g192"
     transform="matrix(5.5244858,0,0,5.5244858,-235895.56,-151591.89)">
    <path
       d="m 51000,30251.3 a 750,750 0 0 0 1500,0"
       id="path194"
       inkscape:connector-curvature="0" />
    <path
       d="m 52500,28248.7 a 750,750 0 0 0 -1500,0"
       id="path196"
       inkscape:connector-curvature="0" />
    <polyline
       fill="none;"
       points="52500,28250 52500,30250 "
       id="polyline198" />
    <polyline
       fill="none;"
       points="52000,30250 52000,28250 "
       id="polyline200" />
    <polyline
       fill="none;"
       points="52000,29000 52500,29000 "
       id="polyline202" />
    <polyline
       fill="none;"
       points="51000,30500 52000,30000 "
       id="polyline204" />
    <polyline
       fill="none;"
       points="51000,30250 51000,28250 "
       id="polyline206" />
    <polyline
       fill="none;"
       points="51000,30000 52000,29500 "
       id="polyline208" />
    <polyline
       fill="none;"
       points="51000,28000 52000,28500 "
       id="polyline210" />
  </g>
  <g
     style="fill:#840000;fill-opacity:1;stroke:#840000;stroke-width:100;stroke-linecap:round;stroke-linejoin:round;stroke-opacity:1"
     id="g212"
     transform="matrix(5.5244858,0,0,5.5244858,-235895.56,-151591.89)">
    <polyline
       style="fill-rule:evenodd"
       points="51600,28300 51550,28400 51800,28400 51650,28200 51600,28300 "
       id="polyline214" />
  </g>
  <g
     style="fill:#840000;fill-opacity:1;stroke:#840000;stroke-width:60;stroke-linecap:round;stroke-linejoin:round;stroke-opacity:1"
     id="g216"
     transform="translate(-42700.021,36400.5)" />
  <g
     style="fill:#840000;fill-opacity:0;stroke:#840000;stroke-width:60;stroke-linecap:round;stroke-linejoin:round;stroke-opacity:1"
     id="g218"
     transform="matrix(5.5244858,0,0,5.5244858,-235895.56,-151591.89)">
    <path
       d="m 52500,29000 0,0"
       id="path220"
       inkscape:connector-curvature="0" />
    <path
       d="m 51000,28000 0,0"
       id="path222"
       inkscape:connector-curvature="0" />
    <path
       d="m 51000,30500 0,0"
       id="path224"
       inkscape:connector-curvature="0" />
    <path
       d="m 51000,30000 0,0"
       id="path226"
       inkscape:connector-curvature="0" />
  </g>
  <g
     style="fill:#008484;fill-opacity:0;stroke:#008484;stroke-width:60;stroke-linecap:round;stroke-linejoin:round;stroke-opacity:1"
     id="g228"
     transform="matrix(5.5244858,0,0,5.5244858,-235895.56,-151591.89)">
    <path
       d="m 50450,29300 -50,-20 -40,-50 -70,-70 -50,-20 -50,0"
       id="path230"
       inkscape:connector-curvature="0" />
    <path
       d="m 50210,29260 -40,-30 -50,-50 -20,-90 0,-170 20,-90 50,-50 40,-20 100,0 50,20 40,50 30,90 0,170 -30,90 -40,50 -50,30 -100,0"
       id="path232"
       inkscape:connector-curvature="0" />
    <path
       d="m 50900,29260 -280,0"
       id="path234"
       inkscape:connector-curvature="0" />
    <path
       d="m 50760,29260 0,-500 -50,70 -50,50 -40,20"
       id="path236"
       inkscape:connector-curvature="0" />
    <path
       d="m 52620,28760 0,-500 190,0 50,20 20,20 20,50 0,70 -20,50 -20,20 -50,30 -190,0"
       id="path238"
       inkscape:connector-curvature="0" />
    <path
       d="m 53120,28760 0,-500 280,500 0,-500"
       id="path240"
       inkscape:connector-curvature="0" />
    <path
       d="m 53640,28760 0,-500 190,0 50,20 20,20 20,50 0,70 -20,50 -20,20 -50,30 -190,0"
       id="path242"
       inkscape:connector-curvature="0" />
    <path
       d="m 54140,28570 380,0"
       id="path244"
       inkscape:connector-curvature="0" />
    <path
       d="m 54740,28730 70,30 120,0 40,-30 30,-20 20,-50 0,-50 -20,-40 -30,-30 -40,-20 -100,-30 -50,-20 -20,-20 -20,-50 0,-50 20,-50 20,-20 50,-20 120,0 70,20"
       id="path246"
       inkscape:connector-curvature="0" />
    <path
       d="m 55240,28420 0,500"
       id="path248"
       inkscape:connector-curvature="0" />
    <path
       d="m 55240,28450 50,-30 90,0 50,30 20,20 30,50 0,140 -30,50 -20,20 -50,30 -90,0 -50,-30"
       id="path250"
       inkscape:connector-curvature="0" />
    <path
       d="m 55760,28760 -50,-30 -20,-50 0,-420"
       id="path252"
       inkscape:connector-curvature="0" />
    <path
       d="m 55950,28760 0,-340"
       id="path254"
       inkscape:connector-curvature="0" />
    <path
       d="m 55950,28260 -20,20 20,20 20,-20 -20,-20 0,40"
       id="path256"
       inkscape:connector-curvature="0" />
    <path
       d="m 56120,28420 190,0"
       id="path258"
       inkscape:connector-curvature="0" />
    <path
       d="m 56190,28260 0,420 20,50 50,30 50,0"
       id="path260"
       inkscape:connector-curvature="0" />
    <path
       d="m 56480,28570 380,0"
       id="path262"
       inkscape:connector-curvature="0" />
    <path
       d="m 57380,28710 -20,20 -70,30 -50,0 -70,-30 -50,-50 -20,-40 -20,-100 0,-70 20,-90 20,-50 50,-50 70,-20 50,0 70,20 20,20"
       id="path264"
       inkscape:connector-curvature="0" />
    <path
       d="m 57690,28260 100,0 50,20 40,50 30,90 0,170 -30,90 -40,50 -50,30 -100,0 -40,-30 -50,-50 -20,-90 0,-170 20,-90 50,-50 40,-20"
       id="path266"
       inkscape:connector-curvature="0" />
    <path
       d="m 58360,28760 -240,0 0,-500"
       id="path268"
       inkscape:connector-curvature="0" />
    <path
       d="m 58760,28760 -240,0 0,-500"
       id="path270"
       inkscape:connector-curvature="0" />
  </g>
  <g
     style="fill:#008400;fill-opacity:0;stroke:#008400;stroke-width:60;stroke-linecap:round;stroke-linejoin:round;stroke-opacity:1"
     id="g272"
     transform="matrix(5.5244858,0,0,5.5244858,-235895.56,-151591.89)">
    <path
       d="m 52500,29000 1000,0"
       id="path274"
       inkscape:connector-curvature="0" />
    <path
       d="m 53500,29000 0,4000"
       id="path276"
       inkscape:connector-curvature="0" />
    <path
       d="m 50000,32000 3500,0"
       id="path278"
       inkscape:connector-curvature="0" />
  </g>
  <g
     style="fill:#008400;fill-opacity:0;stroke:#008400;stroke-width:0;stroke-linecap:round;stroke-linejoin:round;stroke-opacity:1"
     id="g280"
     transform="translate(-42700.021,36400.5)" />
  <g
     style="fill:#008400;fill-opacity:1;stroke:#008400;stroke-width:100;stroke-linecap:round;stroke-linejoin:round;stroke-opacity:1"
     id="g282"
     transform="matrix(5.5244858,0,0,5.5244858,-235895.56,-151591.89)">
    <circle
       cx="53500"
       cy="32000"
       r="200"
       id="circle284"
       sodipodi:cx="53500"
       sodipodi:cy="32000"
       sodipodi:rx="200"
       sodipodi:ry="200"
       d="m 53700,32000 c 0,110.457 -89.543,200 -200,200 -110.457,0 -200,-89.543 -200,-200 0,-110.457 89.543,-200 200,-200 110.457,0 200,89.543 200,200 z" />
  </g>
  <g
     style="fill:#008400;fill-opacity:1;stroke:#008400;stroke-width:60;stroke-linecap:round;stroke-linejoin:round;stroke-opacity:1"
     id="g286"
     transform="translate(-42700.021,36400.5)" />
  <g
     style="fill:#008400;fill-opacity:0;stroke:#008400;stroke-width:60;stroke-linecap:round;stroke-linejoin:round;stroke-opacity:1"
     id="g288"
     transform="matrix(5.5244858,0,0,5.5244858,-235895.56,-151591.89)">
    <path
       d="m 49000,34000 3000,0"
       id="path290"
       inkscape:connector-curvature="0" />
    <path
       d="m 51000,30500 -1000,0"
       id="path292"
       inkscape:connector-curvature="0" />
    <path
       d="m 50000,30500 0,1500"
       id="path294"
       inkscape:connector-curvature="0" />
    <path
       d="m 51000,30000 -2000,0"
       id="path296"
       inkscape:connector-curvature="0" />
    <path
       d="m 49000,30000 0,6000"
       id="path298"
       inkscape:connector-curvature="0" />
  </g>
  <g
     style="fill:#008400;fill-opacity:0;stroke:#008400;stroke-width:0;stroke-linecap:round;stroke-linejoin:round;stroke-opacity:1"
     id="g300"
     transform="translate(-42700.021,36400.5)" />
  <g
     style="fill:#008400;fill-opacity:1;stroke:#008400;stroke-width:100;stroke-linecap:round;stroke-linejoin:round;stroke-opacity:1"
     id="g302"
     transform="matrix(5.5244858,0,0,5.5244858,-235895.56,-151591.89)">
    <circle
       cx="49000"
       cy="34000"
       r="200"
       id="circle304"
       sodipodi:cx="49000"
       sodipodi:cy="34000"
       sodipodi:rx="200"
       sodipodi:ry="200"
       d="m 49200,34000 c 0,110.457 -89.543,200 -200,200 -110.457,0 -200,-89.543 -200,-200 0,-110.457 89.543,-200 200,-200 110.457,0 200,89.543 200,200 z" />
  </g>
  <g
     style="fill:#008400;fill-opacity:1;stroke:#008400;stroke-width:60;stroke-linecap:round;stroke-linejoin:round;stroke-opacity:1"
     id="g306"
     transform="translate(-42700.021,36400.5)" />
  <g
     style="fill:#008400;fill-opacity:0;stroke:#008400;stroke-width:60;stroke-linecap:round;stroke-linejoin:round;stroke-opacity:1"
     id="g308"
     transform="matrix(5.5244858,0,0,5.5244858,-235895.56,-151591.89)">
    <path
       d="m 46000,35000 0,4000"
       id="path310"
       inkscape:connector-curvature="0" />
    <path
       d="m 46000,39000 7500,0"
       id="path312"
       inkscape:connector-curvature="0" />
    <path
       d="m 53500,39000 0,-1000"
       id="path314"
       inkscape:connector-curvature="0" />
    <path
       d="m 49000,38000 0,2000"
       id="path316"
       inkscape:connector-curvature="0" />
  </g>
  <g
     style="fill:#008400;fill-opacity:0;stroke:#008400;stroke-width:0;stroke-linecap:round;stroke-linejoin:round;stroke-opacity:1"
     id="g318"
     transform="translate(-42700.021,36400.5)" />
  <g
     style="fill:#008400;fill-opacity:1;stroke:#008400;stroke-width:100;stroke-linecap:round;stroke-linejoin:round;stroke-opacity:1"
     id="g320"
     transform="matrix(5.5244858,0,0,5.5244858,-235895.56,-151591.89)">
    <circle
       cx="49000"
       cy="39000"
       r="200"
       id="circle322"
       sodipodi:cx="49000"
       sodipodi:cy="39000"
       sodipodi:rx="200"
       sodipodi:ry="200"
       d="m 49200,39000 c 0,110.457 -89.543,200 -200,200 -110.457,0 -200,-89.543 -200,-200 0,-110.457 89.543,-200 200,-200 110.457,0 200,89.543 200,200 z" />
  </g>
  <g
     style="fill:#008400;fill-opacity:1;stroke:#008400;stroke-width:60;stroke-linecap:round;stroke-linejoin:round;stroke-opacity:1"
     id="g324"
     transform="translate(-42700.021,36400.5)" />
  <g
     style="fill:#008400;fill-opacity:0;stroke:#008400;stroke-width:60;stroke-linecap:round;stroke-linejoin:round;stroke-opacity:1"
     id="g326"
     transform="matrix(5.5244858,0,0,5.5244858,-235895.56,-151591.89)">
    <path
       d="m 53500,36000 0,-1000"
       id="path328"
       inkscape:connector-curvature="0" />
    <path
       d="m 45000,28000 6000,0"
       id="path330"
       inkscape:connector-curvature="0" />
  </g>
  <g
     style="fill:#008400;fill-opacity:0;stroke:#008400;stroke-width:0;stroke-linecap:round;stroke-linejoin:round;stroke-opacity:1"
     id="g332"
     transform="translate(-42700.021,36400.5)" />
  <g
     style="fill:#008400;fill-opacity:1;stroke:#008400;stroke-width:100;stroke-linecap:round;stroke-linejoin:round;stroke-opacity:1"
     id="g334"
     transform="matrix(5.5244858,0,0,5.5244858,-235895.56,-151591.89)">
    <circle
       cx="46000"
       cy="28000"
       r="200"
       id="circle336"
       sodipodi:cx="46000"
       sodipodi:cy="28000"
       sodipodi:rx="200"
       sodipodi:ry="200"
       d="m 46200,28000 c 0,110.457 -89.543,200 -200,200 -110.457,0 -200,-89.543 -200,-200 0,-110.457 89.543,-200 200,-200 110.457,0 200,89.543 200,200 z" />
  </g>
  <g
     style="fill:#008400;fill-opacity:1;stroke:#008400;stroke-width:60;stroke-linecap:round;stroke-linejoin:round;stroke-opacity:1"
     id="g338"
     transform="translate(-42700.021,36400.5)" />
  <g
     style="fill:#008400;fill-opacity:0;stroke:#008400;stroke-width:60;stroke-linecap:round;stroke-linejoin:round;stroke-opacity:1"
     id="g340"
     transform="matrix(5.5244858,0,0,5.5244858,-235895.56,-151591.89)">
    <path
       d="m 46000,28000 0,5000"
       id="path342"
       inkscape:connector-curvature="0" />
  </g>
  <g
     style="fill:#000000;fill-opacity:0;stroke:#000000;stroke-width:60;stroke-linecap:round;stroke-linejoin:round;stroke-opacity:1"
     id="g344"
     transform="matrix(5.5244858,0,0,5.5244858,-235895.56,-151591.89)">
    <path
       d="m 49140,33470 0,400"
       id="path346"
       inkscape:connector-curvature="0" />
    <path
       d="m 49140,33530 30,-30 60,-30 80,0 60,30 30,60 0,310"
       id="path348"
       inkscape:connector-curvature="0" />
    <path
       d="m 49630,33270 370,0 -200,230 80,0 60,30 30,30 30,50 0,150 -30,50 -30,30 -60,30 -170,0 -60,-30 -20,-30"
       id="path350"
       inkscape:connector-curvature="0" />
  </g>
  <g
     style="fill:#000000;fill-opacity:0;stroke:#000000;stroke-width:0;stroke-linecap:round;stroke-linejoin:round;stroke-opacity:1"
     id="g352"
     transform="translate(-42700.021,36400.5)" />
  <g
     style="fill:#840000;fill-opacity:0;stroke:#840000;stroke-width:0;stroke-linecap:round;stroke-linejoin:round;stroke-opacity:1"
     id="g354"
     transform="translate(-42700.021,36400.5)" />
  <g
     style="fill:#840000;fill-opacity:0;stroke:#840000;stroke-width:100;stroke-linecap:round;stroke-linejoin:round;stroke-opacity:1"
     id="g356"
     transform="matrix(5.5244858,0,0,5.5244858,-235895.56,-151591.89)">
    <circle
       cx="53100"
       cy="34000"
       r="1080"
       id="circle358"
       sodipodi:cx="53100"
       sodipodi:cy="34000"
       sodipodi:rx="1080"
       sodipodi:ry="1080"
       d="m 54180,34000 c 0,596.468 -483.532,1080 -1080,1080 -596.468,0 -1080,-483.532 -1080,-1080 0,-596.468 483.532,-1080 1080,-1080 596.468,0 1080,483.532 1080,1080 z" />
    <polyline
       fill="none;"
       points="52500,34750 52500,33250 "
       id="polyline360" />
    <polyline
       fill="none;"
       points="52500,34000 52000,34000 "
       id="polyline362" />
    <polyline
       fill="none;"
       points="53500,35000 52500,34500 "
       id="polyline364" />
    <polyline
       fill="none;"
       points="53500,33000 52500,33500 "
       id="polyline366" />
  </g>
  <g
     style="fill:#840000;fill-opacity:1;stroke:#840000;stroke-width:100;stroke-linecap:round;stroke-linejoin:round;stroke-opacity:1"
     id="g368"
     transform="matrix(5.5244858,0,0,5.5244858,-235895.56,-151591.89)">
    <polyline
       style="fill-rule:evenodd"
       points="52900,33300 52950,33400 52700,33400 52850,33200 52900,33300 "
       id="polyline370" />
  </g>
  <g
     style="fill:#840000;fill-opacity:1;stroke:#840000;stroke-width:60;stroke-linecap:round;stroke-linejoin:round;stroke-opacity:1"
     id="g372"
     transform="translate(-42700.021,36400.5)" />
  <g
     style="fill:#840000;fill-opacity:0;stroke:#840000;stroke-width:60;stroke-linecap:round;stroke-linejoin:round;stroke-opacity:1"
     id="g374"
     transform="matrix(5.5244858,0,0,5.5244858,-235895.56,-151591.89)">
    <path
       d="m 52000,34000 0,0"
       id="path376"
       inkscape:connector-curvature="0" />
    <path
       d="m 53500,35000 0,0"
       id="path378"
       inkscape:connector-curvature="0" />
    <path
       d="m 53500,33000 0,0"
       id="path380"
       inkscape:connector-curvature="0" />
  </g>
  <g
     style="fill:#008484;fill-opacity:0;stroke:#008484;stroke-width:60;stroke-linecap:round;stroke-linejoin:round;stroke-opacity:1"
     id="g382"
     transform="matrix(5.5244858,0,0,5.5244858,-235895.56,-151591.89)">
    <path
       d="m 54450,33270 -50,-20 -40,-50 -70,-70 -50,-20 -50,0"
       id="path384"
       inkscape:connector-curvature="0" />
    <path
       d="m 54210,33230 -40,-30 -50,-50 -20,-90 0,-170 20,-90 50,-50 40,-20 100,0 50,20 40,50 30,90 0,170 -30,90 -40,50 -50,30 -100,0"
       id="path386"
       inkscape:connector-curvature="0" />
    <path
       d="m 54620,32770 20,-20 50,-20 120,0 40,20 30,20 20,50 0,50 -20,70 -290,290 310,0"
       id="path388"
       inkscape:connector-curvature="0" />
    <path
       d="m 54120,35290 0,-500 190,0 50,20 20,20 20,50 0,70 -20,50 -20,20 -50,30 -190,0"
       id="path390"
       inkscape:connector-curvature="0" />
    <path
       d="m 54620,35290 0,-500 280,500 0,-500"
       id="path392"
       inkscape:connector-curvature="0" />
    <path
       d="m 55140,35290 0,-500 190,0 50,20 20,20 20,50 0,70 -20,50 -20,20 -50,30 -190,0"
       id="path394"
       inkscape:connector-curvature="0" />
  </g>
</svg>
