<?xml version="1.0" encoding="UTF-8" standalone="no"?>
<svg
   xmlns:dc="http://purl.org/dc/elements/1.1/"
   xmlns:cc="http://creativecommons.org/ns#"
   xmlns:rdf="http://www.w3.org/1999/02/22-rdf-syntax-ns#"
   xmlns:svg="http://www.w3.org/2000/svg"
   xmlns="http://www.w3.org/2000/svg"
   xmlns:sodipodi="http://sodipodi.sourceforge.net/DTD/sodipodi-0.dtd"
   xmlns:inkscape="http://www.inkscape.org/namespaces/inkscape"
   version="1.1"
   width="800.03143"
   height="659.36414"
   viewBox="0 0 88892.444 73262.754"
   id="svg2"
   inkscape:version="0.48.4 r9939"
   sodipodi:docname="emitter_resistors_negative_feedback.sch.svg">
  <metadata
     id="metadata482">
    <rdf:RDF>
      <cc:Work
         rdf:about="">
        <dc:format>image/svg+xml</dc:format>
        <dc:type
           rdf:resource="http://purl.org/dc/dcmitype/StillImage" />
      </cc:Work>
    </rdf:RDF>
  </metadata>
  <defs
     id="defs480" />
  <sodipodi:namedview
     pagecolor="#ffffff"
     bordercolor="#666666"
     borderopacity="1"
     objecttolerance="10"
     gridtolerance="10"
     guidetolerance="10"
     inkscape:pageopacity="0"
     inkscape:pageshadow="2"
     inkscape:window-width="1280"
     inkscape:window-height="750"
     id="namedview478"
     showgrid="false"
     fit-margin-top="0"
     fit-margin-left="0"
     fit-margin-right="0"
     fit-margin-bottom="0"
     inkscape:zoom="0.25751417"
     inkscape:cx="209.4141"
     inkscape:cy="73.890097"
     inkscape:window-x="0"
     inkscape:window-y="0"
     inkscape:window-maximized="1"
     inkscape:current-layer="svg2" />
  <title
     id="title4">SVG Picture created as emitter_resistors_negative_feedback.sch.svg date 2017/09/19 15:55:55 </title>
  <desc
     id="desc6">Picture generated by Eeschema-SVG </desc>
  <g
     style="fill:#000000;fill-opacity:1;stroke:#000000;stroke-linecap:round;stroke-linejoin:round;stroke-opacity:1"
     id="g8"
     transform="translate(-35196.76,23712.734)" />
  <g
     style="fill:#000000;fill-opacity:0;stroke:#000000;stroke-width:0;stroke-linecap:round;stroke-linejoin:round;stroke-opacity:1"
     id="g10"
     transform="translate(-35196.76,23712.734)" />
  <g
     style="fill:#840000;fill-opacity:0;stroke:#840000;stroke-width:0;stroke-linecap:round;stroke-linejoin:round;stroke-opacity:1"
     id="g12"
     transform="translate(-35196.76,23712.734)" />
  <g
     style="fill:#840000;fill-opacity:0;stroke:#840000;stroke-width:100;stroke-linecap:round;stroke-linejoin:round;stroke-opacity:1"
     id="g14"
     transform="matrix(4.6931878,0,0,4.6931878,-165196.97,-159284.73)">
    <circle
       cx="36500"
       cy="34500"
       r="500"
       id="circle16"
       sodipodi:cx="36500"
       sodipodi:cy="34500"
       sodipodi:rx="500"
       sodipodi:ry="500"
       d="m 37000,34500 c 0,276.142 -223.858,500 -500,500 -276.142,0 -500,-223.858 -500,-500 0,-276.142 223.858,-500 500,-500 276.142,0 500,223.858 500,500 z" />
    <polyline
       fill="none;"
       points="36500,34750 36500,34250 "
       id="polyline18" />
    <polyline
       fill="none;"
       points="37500,34500 37000,34500 "
       id="polyline20" />
    <polyline
       fill="none;"
       points="36750,34500 36250,34500 "
       id="polyline22" />
  </g>
  <g
     style="fill:#840000;fill-opacity:0;stroke:#840000;stroke-width:60;stroke-linecap:round;stroke-linejoin:round;stroke-opacity:1"
     id="g24"
     transform="matrix(4.6931878,0,0,4.6931878,-165196.97,-159284.73)">
    <path
       d="m 37500,34500 0,0"
       id="path26"
       inkscape:connector-curvature="0" />
  </g>
  <g
     style="fill:#008484;fill-opacity:0;stroke:#008484;stroke-width:60;stroke-linecap:round;stroke-linejoin:round;stroke-opacity:1"
     id="g28"
     transform="matrix(4.6931878,0,0,4.6931878,-165196.97,-159284.73)">
    <path
       d="m 35230,34960 500,-160 -500,-170"
       id="path30"
       inkscape:connector-curvature="0" />
    <path
       d="m 35540,34460 0,-380"
       id="path32"
       inkscape:connector-curvature="0" />
    <path
       d="m 35730,34270 -380,0"
       id="path34"
       inkscape:connector-curvature="0" />
  </g>
  <g
     style="fill:#008484;fill-opacity:0;stroke:#008484;stroke-width:0;stroke-linecap:round;stroke-linejoin:round;stroke-opacity:1"
     id="g36"
     transform="translate(-35196.76,23712.734)" />
  <g
     style="fill:#840000;fill-opacity:0;stroke:#840000;stroke-width:0;stroke-linecap:round;stroke-linejoin:round;stroke-opacity:1"
     id="g38"
     transform="translate(-35196.76,23712.734)" />
  <g
     style="fill:#840000;fill-opacity:0;stroke:#840000;stroke-width:100;stroke-linecap:round;stroke-linejoin:round;stroke-opacity:1"
     id="g40"
     transform="matrix(4.6931878,0,0,4.6931878,-165196.97,-159284.73)">
    <circle
       cx="43500"
       cy="36500"
       r="1000"
       id="circle42"
       sodipodi:cx="43500"
       sodipodi:cy="36500"
       sodipodi:rx="1000"
       sodipodi:ry="1000"
       d="m 44500,36500 c 0,552.285 -447.715,1000 -1000,1000 -552.285,0 -1000,-447.715 -1000,-1000 0,-552.285 447.715,-1000 1000,-1000 552.285,0 1000,447.715 1000,1000 z" />
  </g>
  <g
     style="fill:#840000;fill-opacity:1;stroke:#840000;stroke-width:100;stroke-linecap:round;stroke-linejoin:round;stroke-opacity:1"
     id="g44"
     transform="matrix(4.6931878,0,0,4.6931878,-165196.97,-159284.73)">
    <polyline
       style="fill-rule:evenodd"
       points="43500,35750 43500,37250 43250,36750 43750,36750 43500,37250 "
       id="polyline46" />
  </g>
  <g
     style="fill:#840000;fill-opacity:1;stroke:#840000;stroke-width:60;stroke-linecap:round;stroke-linejoin:round;stroke-opacity:1"
     id="g48"
     transform="translate(-35196.76,23712.734)" />
  <g
     style="fill:#840000;fill-opacity:0;stroke:#840000;stroke-width:60;stroke-linecap:round;stroke-linejoin:round;stroke-opacity:1"
     id="g50"
     transform="matrix(4.6931878,0,0,4.6931878,-165196.97,-159284.73)">
    <path
       d="m 43500,35500 0,0"
       id="path52"
       inkscape:connector-curvature="0" />
    <path
       d="m 43500,37500 0,0"
       id="path54"
       inkscape:connector-curvature="0" />
  </g>
  <g
     style="fill:#008484;fill-opacity:0;stroke:#008484;stroke-width:60;stroke-linecap:round;stroke-linejoin:round;stroke-opacity:1"
     id="g56"
     transform="matrix(4.6931878,0,0,4.6931878,-165196.97,-159284.73)">
    <path
       d="m 45120,36480 0,-500"
       id="path58"
       inkscape:connector-curvature="0" />
    <path
       d="m 45620,36480 -280,0"
       id="path60"
       inkscape:connector-curvature="0" />
    <path
       d="m 45480,36480 0,-500 -50,70 -50,50 -40,20"
       id="path62"
       inkscape:connector-curvature="0" />
    <path
       d="m 44860,37040 -240,0 -20,230 20,-20 50,-20 120,0 40,20 30,20 20,50 0,120 -20,50 -30,20 -40,30 -120,0 -50,-30 -20,-20"
       id="path64"
       inkscape:connector-curvature="0" />
    <path
       d="m 45190,37040 50,0 50,20 20,20 30,50 20,100 0,120 -20,90 -30,50 -20,20 -50,30 -50,0 -40,-30 -30,-20 -20,-50 -20,-90 0,-120 20,-100 20,-50 30,-20 40,-20"
       id="path66"
       inkscape:connector-curvature="0" />
    <path
       d="m 45790,37200 0,340"
       id="path68"
       inkscape:connector-curvature="0" />
    <path
       d="m 45580,37200 0,260 20,50 50,30 70,0 50,-30 20,-20"
       id="path70"
       inkscape:connector-curvature="0" />
    <path
       d="m 46010,37390 230,0"
       id="path72"
       inkscape:connector-curvature="0" />
    <path
       d="m 45960,37540 160,-500 170,500"
       id="path74"
       inkscape:connector-curvature="0" />
  </g>
  <g
     style="fill:#008484;fill-opacity:0;stroke:#008484;stroke-width:0;stroke-linecap:round;stroke-linejoin:round;stroke-opacity:1"
     id="g76"
     transform="translate(-35196.76,23712.734)" />
  <g
     style="fill:#840000;fill-opacity:0;stroke:#840000;stroke-width:0;stroke-linecap:round;stroke-linejoin:round;stroke-opacity:1"
     id="g78"
     transform="translate(-35196.76,23712.734)" />
  <g
     style="fill:#840000;fill-opacity:0;stroke:#840000;stroke-width:100;stroke-linecap:round;stroke-linejoin:round;stroke-opacity:1"
     id="g80"
     transform="matrix(4.6931878,0,0,4.6931878,-165196.97,-159284.73)">
    <circle
       cx="43900"
       cy="41500"
       r="1080"
       id="circle82"
       sodipodi:cx="43900"
       sodipodi:cy="41500"
       sodipodi:rx="1080"
       sodipodi:ry="1080"
       d="m 44980,41500 c 0,596.468 -483.532,1080 -1080,1080 -596.468,0 -1080,-483.532 -1080,-1080 0,-596.468 483.532,-1080 1080,-1080 596.468,0 1080,483.532 1080,1080 z" />
    <polyline
       fill="none;"
       points="44500,42200 44500,40800 "
       id="polyline84" />
    <polyline
       fill="none;"
       points="44500,41500 45000,41500 "
       id="polyline86" />
    <polyline
       fill="none;"
       points="43500,42500 44500,42000 "
       id="polyline88" />
    <polyline
       fill="none;"
       points="43500,40500 44500,41000 "
       id="polyline90" />
  </g>
  <g
     style="fill:#840000;fill-opacity:1;stroke:#840000;stroke-width:100;stroke-linecap:round;stroke-linejoin:round;stroke-opacity:1"
     id="g92"
     transform="matrix(4.6931878,0,0,4.6931878,-165196.97,-159284.73)">
    <polyline
       style="fill-rule:evenodd"
       points="44300,42100 44250,42000 44100,42200 44350,42200 44300,42100 "
       id="polyline94" />
  </g>
  <g
     style="fill:#840000;fill-opacity:1;stroke:#840000;stroke-width:60;stroke-linecap:round;stroke-linejoin:round;stroke-opacity:1"
     id="g96"
     transform="translate(-35196.76,23712.734)" />
  <g
     style="fill:#840000;fill-opacity:0;stroke:#840000;stroke-width:60;stroke-linecap:round;stroke-linejoin:round;stroke-opacity:1"
     id="g98"
     transform="matrix(4.6931878,0,0,4.6931878,-165196.97,-159284.73)">
    <path
       d="m 45000,41500 0,0"
       id="path100"
       inkscape:connector-curvature="0" />
    <path
       d="m 43500,40500 0,0"
       id="path102"
       inkscape:connector-curvature="0" />
    <path
       d="m 43500,42500 0,0"
       id="path104"
       inkscape:connector-curvature="0" />
  </g>
  <g
     style="fill:#008484;fill-opacity:0;stroke:#008484;stroke-width:60;stroke-linecap:round;stroke-linejoin:round;stroke-opacity:1"
     id="g106"
     transform="matrix(4.6931878,0,0,4.6931878,-165196.97,-159284.73)">
    <path
       d="m 42450,40770 -50,-20 -40,-50 -70,-70 -50,-20 -50,0"
       id="path108"
       inkscape:connector-curvature="0" />
    <path
       d="m 42210,40730 -40,-30 -50,-50 -20,-90 0,-170 20,-90 50,-50 40,-20 100,0 50,20 40,50 30,90 0,170 -30,90 -40,50 -50,30 -100,0"
       id="path110"
       inkscape:connector-curvature="0" />
    <path
       d="m 42900,40730 -280,0"
       id="path112"
       inkscape:connector-curvature="0" />
    <path
       d="m 42760,40730 0,-500 -50,70 -50,50 -40,20"
       id="path114"
       inkscape:connector-curvature="0" />
    <path
       d="m 41290,42450 0,340"
       id="path116"
       inkscape:connector-curvature="0" />
    <path
       d="m 41290,42500 20,-20 50,-30 70,0 50,30 20,40 0,270"
       id="path118"
       inkscape:connector-curvature="0" />
    <path
       d="m 41740,42450 0,500"
       id="path120"
       inkscape:connector-curvature="0" />
    <path
       d="m 41740,42480 50,-30 90,0 50,30 20,20 30,50 0,140 -30,50 -20,20 -50,30 -90,0 -50,-30"
       id="path122"
       inkscape:connector-curvature="0" />
    <path
       d="m 42190,42450 0,340"
       id="path124"
       inkscape:connector-curvature="0" />
    <path
       d="m 42190,42500 20,-20 50,-30 70,0 50,30 20,40 0,270"
       id="path126"
       inkscape:connector-curvature="0" />
    <path
       d="m 42900,42790 -280,0"
       id="path128"
       inkscape:connector-curvature="0" />
    <path
       d="m 42760,42790 0,-500 -50,70 -50,50 -40,20"
       id="path130"
       inkscape:connector-curvature="0" />
  </g>
  <g
     style="fill:#008484;fill-opacity:0;stroke:#008484;stroke-width:0;stroke-linecap:round;stroke-linejoin:round;stroke-opacity:1"
     id="g132"
     transform="translate(-35196.76,23712.734)" />
  <g
     style="fill:#840000;fill-opacity:0;stroke:#840000;stroke-width:0;stroke-linecap:round;stroke-linejoin:round;stroke-opacity:1"
     id="g134"
     transform="translate(-35196.76,23712.734)" />
  <g
     style="fill:#840000;fill-opacity:0;stroke:#840000;stroke-width:100;stroke-linecap:round;stroke-linejoin:round;stroke-opacity:1"
     id="g136"
     transform="matrix(4.6931878,0,0,4.6931878,-165196.97,-159284.73)">
    <circle
       cx="49100"
       cy="41500"
       r="1080"
       id="circle138"
       sodipodi:cx="49100"
       sodipodi:cy="41500"
       sodipodi:rx="1080"
       sodipodi:ry="1080"
       d="m 50180,41500 c 0,596.468 -483.532,1080 -1080,1080 -596.468,0 -1080,-483.532 -1080,-1080 0,-596.468 483.532,-1080 1080,-1080 596.468,0 1080,483.532 1080,1080 z" />
    <polyline
       fill="none;"
       points="48500,42200 48500,40800 "
       id="polyline140" />
    <polyline
       fill="none;"
       points="48500,41500 48000,41500 "
       id="polyline142" />
    <polyline
       fill="none;"
       points="49500,42500 48500,42000 "
       id="polyline144" />
    <polyline
       fill="none;"
       points="49500,40500 48500,41000 "
       id="polyline146" />
  </g>
  <g
     style="fill:#840000;fill-opacity:1;stroke:#840000;stroke-width:100;stroke-linecap:round;stroke-linejoin:round;stroke-opacity:1"
     id="g148"
     transform="matrix(4.6931878,0,0,4.6931878,-165196.97,-159284.73)">
    <polyline
       style="fill-rule:evenodd"
       points="48700,42100 48750,42000 48900,42200 48650,42200 48700,42100 "
       id="polyline150" />
  </g>
  <g
     style="fill:#840000;fill-opacity:1;stroke:#840000;stroke-width:60;stroke-linecap:round;stroke-linejoin:round;stroke-opacity:1"
     id="g152"
     transform="translate(-35196.76,23712.734)" />
  <g
     style="fill:#840000;fill-opacity:0;stroke:#840000;stroke-width:60;stroke-linecap:round;stroke-linejoin:round;stroke-opacity:1"
     id="g154"
     transform="matrix(4.6931878,0,0,4.6931878,-165196.97,-159284.73)">
    <path
       d="m 48000,41500 0,0"
       id="path156"
       inkscape:connector-curvature="0" />
    <path
       d="m 49500,40500 0,0"
       id="path158"
       inkscape:connector-curvature="0" />
    <path
       d="m 49500,42500 0,0"
       id="path160"
       inkscape:connector-curvature="0" />
  </g>
  <g
     style="fill:#008484;fill-opacity:0;stroke:#008484;stroke-width:60;stroke-linecap:round;stroke-linejoin:round;stroke-opacity:1"
     id="g162"
     transform="matrix(4.6931878,0,0,4.6931878,-165196.97,-159284.73)">
    <path
       d="m 50450,40770 -50,-20 -40,-50 -70,-70 -50,-20 -50,0"
       id="path164"
       inkscape:connector-curvature="0" />
    <path
       d="m 50210,40730 -40,-30 -50,-50 -20,-90 0,-170 20,-90 50,-50 40,-20 100,0 50,20 40,50 30,90 0,170 -30,90 -40,50 -50,30 -100,0"
       id="path166"
       inkscape:connector-curvature="0" />
    <path
       d="m 50620,40270 20,-20 50,-20 120,0 40,20 30,20 20,50 0,50 -20,70 -290,290 310,0"
       id="path168"
       inkscape:connector-curvature="0" />
    <path
       d="m 50120,42450 0,340"
       id="path170"
       inkscape:connector-curvature="0" />
    <path
       d="m 50120,42500 20,-20 50,-30 70,0 50,30 20,40 0,270"
       id="path172"
       inkscape:connector-curvature="0" />
    <path
       d="m 50570,42450 0,500"
       id="path174"
       inkscape:connector-curvature="0" />
    <path
       d="m 50570,42480 50,-30 90,0 50,30 20,20 30,50 0,140 -30,50 -20,20 -50,30 -90,0 -50,-30"
       id="path176"
       inkscape:connector-curvature="0" />
    <path
       d="m 51020,42450 0,340"
       id="path178"
       inkscape:connector-curvature="0" />
    <path
       d="m 51020,42500 20,-20 50,-30 70,0 50,30 20,40 0,270"
       id="path180"
       inkscape:connector-curvature="0" />
    <path
       d="m 51730,42790 -280,0"
       id="path182"
       inkscape:connector-curvature="0" />
    <path
       d="m 51590,42790 0,-500 -50,70 -50,50 -40,20"
       id="path184"
       inkscape:connector-curvature="0" />
  </g>
  <g
     style="fill:#008484;fill-opacity:0;stroke:#008484;stroke-width:0;stroke-linecap:round;stroke-linejoin:round;stroke-opacity:1"
     id="g186"
     transform="translate(-35196.76,23712.734)" />
  <g
     style="fill:#840000;fill-opacity:0;stroke:#840000;stroke-width:0;stroke-linecap:round;stroke-linejoin:round;stroke-opacity:1"
     id="g188"
     transform="translate(-35196.76,23712.734)" />
  <g
     style="fill:#840000;fill-opacity:0;stroke:#840000;stroke-width:100;stroke-linecap:round;stroke-linejoin:round;stroke-opacity:1"
     id="g190"
     transform="matrix(4.6931878,0,0,4.6931878,-165196.97,-159284.73)">
    <circle
       cx="53000"
       cy="41500"
       r="1000"
       id="circle192"
       sodipodi:cx="53000"
       sodipodi:cy="41500"
       sodipodi:rx="1000"
       sodipodi:ry="1000"
       d="m 54000,41500 c 0,552.285 -447.715,1000 -1000,1000 -552.285,0 -1000,-447.715 -1000,-1000 0,-552.285 447.715,-1000 1000,-1000 552.285,0 1000,447.715 1000,1000 z" />
    <polyline
       fill="none;"
       points="52750,42000 53250,42000 "
       id="polyline194" />
    <polyline
       fill="none;"
       points="53000,41250 53000,40750 "
       id="polyline196" />
    <polyline
       fill="none;"
       points="53250,41000 52750,41000 "
       id="polyline198" />
  </g>
  <g
     style="fill:#840000;fill-opacity:0;stroke:#840000;stroke-width:60;stroke-linecap:round;stroke-linejoin:round;stroke-opacity:1"
     id="g200"
     transform="matrix(4.6931878,0,0,4.6931878,-165196.97,-159284.73)">
    <path
       d="m 53000,40500 0,0"
       id="path202"
       inkscape:connector-curvature="0" />
    <path
       d="m 53000,42500 0,0"
       id="path204"
       inkscape:connector-curvature="0" />
  </g>
  <g
     style="fill:#008484;fill-opacity:0;stroke:#008484;stroke-width:60;stroke-linecap:round;stroke-linejoin:round;stroke-opacity:1"
     id="g206"
     transform="matrix(4.6931878,0,0,4.6931878,-165196.97,-159284.73)">
    <path
       d="m 53300,39730 160,500 170,-500"
       id="path208"
       inkscape:connector-curvature="0" />
    <path
       d="m 53780,39770 20,-20 50,-20 120,0 40,20 30,20 20,50 0,50 -20,70 -290,290 310,0"
       id="path210"
       inkscape:connector-curvature="0" />
    <path
       d="m 53630,43290 -280,0"
       id="path212"
       inkscape:connector-curvature="0" />
    <path
       d="m 53490,43290 0,-500 -50,70 -50,50 -40,20"
       id="path214"
       inkscape:connector-curvature="0" />
    <path
       d="m 53780,42790 160,500 170,-500"
       id="path216"
       inkscape:connector-curvature="0" />
  </g>
  <g
     style="fill:#008484;fill-opacity:0;stroke:#008484;stroke-width:0;stroke-linecap:round;stroke-linejoin:round;stroke-opacity:1"
     id="g218"
     transform="translate(-35196.76,23712.734)" />
  <g
     style="fill:#840000;fill-opacity:0;stroke:#840000;stroke-width:0;stroke-linecap:round;stroke-linejoin:round;stroke-opacity:1"
     id="g220"
     transform="translate(-35196.76,23712.734)" />
  <g
     style="fill:#840000;fill-opacity:0;stroke:#840000;stroke-width:100;stroke-linecap:round;stroke-linejoin:round;stroke-opacity:1"
     id="g222"
     transform="matrix(4.6931878,0,0,4.6931878,-165196.97,-159284.73)">
    <circle
       cx="38500"
       cy="41500"
       r="1000"
       id="circle224"
       sodipodi:cx="38500"
       sodipodi:cy="41500"
       sodipodi:rx="1000"
       sodipodi:ry="1000"
       d="m 39500,41500 c 0,552.285 -447.715,1000 -1000,1000 -552.285,0 -1000,-447.715 -1000,-1000 0,-552.285 447.715,-1000 1000,-1000 552.285,0 1000,447.715 1000,1000 z" />
    <polyline
       fill="none;"
       points="38250,42000 38750,42000 "
       id="polyline226" />
    <polyline
       fill="none;"
       points="38500,41250 38500,40750 "
       id="polyline228" />
    <polyline
       fill="none;"
       points="38750,41000 38250,41000 "
       id="polyline230" />
  </g>
  <g
     style="fill:#840000;fill-opacity:0;stroke:#840000;stroke-width:60;stroke-linecap:round;stroke-linejoin:round;stroke-opacity:1"
     id="g232"
     transform="matrix(4.6931878,0,0,4.6931878,-165196.97,-159284.73)">
    <path
       d="m 38500,40500 0,0"
       id="path234"
       inkscape:connector-curvature="0" />
    <path
       d="m 38500,42500 0,0"
       id="path236"
       inkscape:connector-curvature="0" />
  </g>
  <g
     style="fill:#008484;fill-opacity:0;stroke:#008484;stroke-width:60;stroke-linecap:round;stroke-linejoin:round;stroke-opacity:1"
     id="g238"
     transform="matrix(4.6931878,0,0,4.6931878,-165196.97,-159284.73)">
    <path
       d="m 38800,39730 160,500 170,-500"
       id="path240"
       inkscape:connector-curvature="0" />
    <path
       d="m 39560,40230 -280,0"
       id="path242"
       inkscape:connector-curvature="0" />
    <path
       d="m 39420,40230 0,-500 -50,70 -50,50 -40,20"
       id="path244"
       inkscape:connector-curvature="0" />
    <path
       d="m 39110,42790 -240,0 -20,230 20,-20 50,-20 120,0 40,20 30,20 20,50 0,120 -20,50 -30,20 -40,30 -120,0 -50,-30 -20,-20"
       id="path246"
       inkscape:connector-curvature="0" />
    <path
       d="m 39280,42790 160,500 170,-500"
       id="path248"
       inkscape:connector-curvature="0" />
  </g>
  <g
     style="fill:#008484;fill-opacity:0;stroke:#008484;stroke-width:0;stroke-linecap:round;stroke-linejoin:round;stroke-opacity:1"
     id="g250"
     transform="translate(-35196.76,23712.734)" />
  <g
     style="fill:#840000;fill-opacity:0;stroke:#840000;stroke-width:0;stroke-linecap:round;stroke-linejoin:round;stroke-opacity:1"
     id="g252"
     transform="translate(-35196.76,23712.734)" />
  <g
     style="fill:#840000;fill-opacity:0;stroke:#840000;stroke-width:100;stroke-linecap:round;stroke-linejoin:round;stroke-opacity:1"
     id="g254"
     transform="matrix(4.6931878,0,0,4.6931878,-165196.97,-159284.73)">
    <polyline
       fill="none;"
       points="45750,49000 47250,49000 "
       id="polyline256" />
    <polyline
       fill="none;"
       points="46000,49250 47000,49250 "
       id="polyline258" />
    <polyline
       fill="none;"
       points="46250,49500 46750,49500 "
       id="polyline260" />
    <polyline
       fill="none;"
       points="46500,48000 46500,49000 "
       id="polyline262" />
  </g>
  <g
     style="fill:#840000;fill-opacity:0;stroke:#840000;stroke-width:60;stroke-linecap:round;stroke-linejoin:round;stroke-opacity:1"
     id="g264"
     transform="matrix(4.6931878,0,0,4.6931878,-165196.97,-159284.73)">
    <path
       d="m 46500,48000 0,0"
       id="path266"
       inkscape:connector-curvature="0" />
  </g>
  <g
     style="fill:#000000;fill-opacity:0;stroke:#000000;stroke-width:60;stroke-linecap:round;stroke-linejoin:round;stroke-opacity:1"
     id="g268"
     transform="matrix(4.6931878,0,0,4.6931878,-165196.97,-159284.73)">
    <path
       d="m 40140,33970 0,400"
       id="path270"
       inkscape:connector-curvature="0" />
    <path
       d="m 40140,34030 30,-30 60,-30 80,0 60,30 30,60 0,310"
       id="path272"
       inkscape:connector-curvature="0" />
    <path
       d="m 40540,34430 460,0"
       id="path274"
       inkscape:connector-curvature="0" />
    <path
       d="m 41140,33970 0,600"
       id="path276"
       inkscape:connector-curvature="0" />
    <path
       d="m 41140,34000 60,-30 110,0 60,30 30,30 30,60 0,170 -30,50 -30,30 -60,30 -110,0 -60,-30"
       id="path278"
       inkscape:connector-curvature="0" />
    <path
       d="m 41770,34370 -60,-30 -30,-30 -30,-50 0,-170 30,-60 30,-30 60,-30 80,0 60,30 30,30 30,60 0,170 -30,50 -30,30 -60,30 -80,0"
       id="path280"
       inkscape:connector-curvature="0" />
    <path
       d="m 42190,34340 60,30 120,0 50,-30 30,-50 0,-30 -30,-60 -50,-30 -90,0 -60,-30 -30,-50 0,-30 30,-60 60,-30 90,0 50,30"
       id="path282"
       inkscape:connector-curvature="0" />
    <path
       d="m 43640,38470 0,400"
       id="path284"
       inkscape:connector-curvature="0" />
    <path
       d="m 43640,38530 30,-30 60,-30 80,0 60,30 30,60 0,310"
       id="path286"
       inkscape:connector-curvature="0" />
    <path
       d="m 44500,38870 -350,0"
       id="path288"
       inkscape:connector-curvature="0" />
    <path
       d="m 44330,38870 0,-600 -60,90 -60,50 -60,30"
       id="path290"
       inkscape:connector-curvature="0" />
    <path
       d="m 49640,38470 0,400"
       id="path292"
       inkscape:connector-curvature="0" />
    <path
       d="m 49640,38530 30,-30 60,-30 80,0 60,30 30,60 0,310"
       id="path294"
       inkscape:connector-curvature="0" />
    <path
       d="m 50150,38330 30,-30 60,-30 140,0 60,30 30,30 30,60 0,50 -30,90 -340,340 370,0"
       id="path296"
       inkscape:connector-curvature="0" />
  </g>
  <g
     style="fill:#000000;fill-opacity:0;stroke:#000000;stroke-width:0;stroke-linecap:round;stroke-linejoin:round;stroke-opacity:1"
     id="g298"
     transform="translate(-35196.76,23712.734)" />
  <g
     style="fill:#840000;fill-opacity:0;stroke:#840000;stroke-width:0;stroke-linecap:round;stroke-linejoin:round;stroke-opacity:1"
     id="g300"
     transform="translate(-35196.76,23712.734)" />
  <g
     style="fill:#840000;fill-opacity:0;stroke:#840000;stroke-width:100;stroke-linecap:round;stroke-linejoin:round;stroke-opacity:1"
     id="g302"
     transform="matrix(4.6931878,0,0,4.6931878,-165196.97,-159284.73)">
    <polyline
       fill="none;"
       points="43500,45000 43800,44900 43200,44700 43800,44500 43500,44400 43500,44000 "
       id="polyline304" />
    <polyline
       fill="none;"
       points="43500,45000 43200,45100 43800,45300 43200,45500 43500,45600 43500,46000 "
       id="polyline306" />
  </g>
  <g
     style="fill:#840000;fill-opacity:0;stroke:#840000;stroke-width:60;stroke-linecap:round;stroke-linejoin:round;stroke-opacity:1"
     id="g308"
     transform="matrix(4.6931878,0,0,4.6931878,-165196.97,-159284.73)">
    <path
       d="m 43500,44000 0,0"
       id="path310"
       inkscape:connector-curvature="0" />
    <path
       d="m 43500,46000 0,0"
       id="path312"
       inkscape:connector-curvature="0" />
  </g>
  <g
     style="fill:#008484;fill-opacity:0;stroke:#008484;stroke-width:60;stroke-linecap:round;stroke-linejoin:round;stroke-opacity:1"
     id="g314"
     transform="matrix(4.6931878,0,0,4.6931878,-165196.97,-159284.73)">
    <path
       d="m 44410,45260 -160,-240"
       id="path316"
       inkscape:connector-curvature="0" />
    <path
       d="m 44130,45260 0,-500 190,0 50,20 20,20 20,50 0,70 -20,50 -20,20 -50,30 -190,0"
       id="path318"
       inkscape:connector-curvature="0" />
    <path
       d="m 44890,45260 -280,0"
       id="path320"
       inkscape:connector-curvature="0" />
    <path
       d="m 44750,45260 0,-500 -50,70 -50,50 -40,20"
       id="path322"
       inkscape:connector-curvature="0" />
    <path
       d="m 41830,44760 -90,0 -50,20 -20,20 -50,80 -20,90 0,190 20,50 20,20 50,30 100,0 40,-30 30,-20 20,-50 0,-120 -20,-50 -30,-20 -40,-20 -100,0 -50,20 -20,20 -20,50"
       id="path324"
       inkscape:connector-curvature="0" />
    <path
       d="m 42100,45260 0,-500"
       id="path326"
       inkscape:connector-curvature="0" />
    <path
       d="m 42380,45260 -210,-290"
       id="path328"
       inkscape:connector-curvature="0" />
    <path
       d="m 42380,44760 -280,280"
       id="path330"
       inkscape:connector-curvature="0" />
    <path
       d="m 42880,45260 -160,-240"
       id="path332"
       inkscape:connector-curvature="0" />
    <path
       d="m 42600,45260 0,-500 190,0 50,20 20,20 20,50 0,70 -20,50 -20,20 -50,30 -190,0"
       id="path334"
       inkscape:connector-curvature="0" />
  </g>
  <g
     style="fill:#008484;fill-opacity:0;stroke:#008484;stroke-width:0;stroke-linecap:round;stroke-linejoin:round;stroke-opacity:1"
     id="g336"
     transform="translate(-35196.76,23712.734)" />
  <g
     style="fill:#840000;fill-opacity:0;stroke:#840000;stroke-width:0;stroke-linecap:round;stroke-linejoin:round;stroke-opacity:1"
     id="g338"
     transform="translate(-35196.76,23712.734)" />
  <g
     style="fill:#840000;fill-opacity:0;stroke:#840000;stroke-width:100;stroke-linecap:round;stroke-linejoin:round;stroke-opacity:1"
     id="g340"
     transform="matrix(4.6931878,0,0,4.6931878,-165196.97,-159284.73)">
    <polyline
       fill="none;"
       points="49500,45000 49800,44900 49200,44700 49800,44500 49500,44400 49500,44000 "
       id="polyline342" />
    <polyline
       fill="none;"
       points="49500,45000 49200,45100 49800,45300 49200,45500 49500,45600 49500,46000 "
       id="polyline344" />
  </g>
  <g
     style="fill:#840000;fill-opacity:0;stroke:#840000;stroke-width:60;stroke-linecap:round;stroke-linejoin:round;stroke-opacity:1"
     id="g346"
     transform="matrix(4.6931878,0,0,4.6931878,-165196.97,-159284.73)">
    <path
       d="m 49500,44000 0,0"
       id="path348"
       inkscape:connector-curvature="0" />
    <path
       d="m 49500,46000 0,0"
       id="path350"
       inkscape:connector-curvature="0" />
  </g>
  <g
     style="fill:#008484;fill-opacity:0;stroke:#008484;stroke-width:60;stroke-linecap:round;stroke-linejoin:round;stroke-opacity:1"
     id="g352"
     transform="matrix(4.6931878,0,0,4.6931878,-165196.97,-159284.73)">
    <path
       d="m 48410,45260 -160,-240"
       id="path354"
       inkscape:connector-curvature="0" />
    <path
       d="m 48130,45260 0,-500 190,0 50,20 20,20 20,50 0,70 -20,50 -20,20 -50,30 -190,0"
       id="path356"
       inkscape:connector-curvature="0" />
    <path
       d="m 48610,44800 20,-20 50,-20 120,0 40,20 30,20 20,50 0,50 -20,70 -290,290 310,0"
       id="path358"
       inkscape:connector-curvature="0" />
    <path
       d="m 50330,44760 -90,0 -50,20 -20,20 -50,80 -20,90 0,190 20,50 20,20 50,30 100,0 40,-30 30,-20 20,-50 0,-120 -20,-50 -30,-20 -40,-20 -100,0 -50,20 -20,20 -20,50"
       id="path360"
       inkscape:connector-curvature="0" />
    <path
       d="m 50600,45260 0,-500"
       id="path362"
       inkscape:connector-curvature="0" />
    <path
       d="m 50880,45260 -210,-290"
       id="path364"
       inkscape:connector-curvature="0" />
    <path
       d="m 50880,44760 -280,280"
       id="path366"
       inkscape:connector-curvature="0" />
    <path
       d="m 51380,45260 -160,-240"
       id="path368"
       inkscape:connector-curvature="0" />
    <path
       d="m 51100,45260 0,-500 190,0 50,20 20,20 20,50 0,70 -20,50 -20,20 -50,30 -190,0"
       id="path370"
       inkscape:connector-curvature="0" />
  </g>
  <g
     style="fill:#008400;fill-opacity:0;stroke:#008400;stroke-width:60;stroke-linecap:round;stroke-linejoin:round;stroke-opacity:1"
     id="g372"
     transform="matrix(4.6931878,0,0,4.6931878,-165196.97,-159284.73)">
    <path
       d="m 43500,37500 0,3000"
       id="path374"
       inkscape:connector-curvature="0" />
    <path
       d="m 43500,34500 0,1000"
       id="path376"
       inkscape:connector-curvature="0" />
    <path
       d="m 38500,34500 0,6000"
       id="path378"
       inkscape:connector-curvature="0" />
  </g>
  <g
     style="fill:#008400;fill-opacity:0;stroke:#008400;stroke-width:0;stroke-linecap:round;stroke-linejoin:round;stroke-opacity:1"
     id="g380"
     transform="translate(-35196.76,23712.734)" />
  <g
     style="fill:#008400;fill-opacity:1;stroke:#008400;stroke-width:100;stroke-linecap:round;stroke-linejoin:round;stroke-opacity:1"
     id="g382"
     transform="matrix(4.6931878,0,0,4.6931878,-165196.97,-159284.73)">
    <circle
       cx="38500"
       cy="34500"
       r="200"
       id="circle384"
       sodipodi:cx="38500"
       sodipodi:cy="34500"
       sodipodi:rx="200"
       sodipodi:ry="200"
       d="m 38700,34500 c 0,110.457 -89.543,200 -200,200 -110.457,0 -200,-89.543 -200,-200 0,-110.457 89.543,-200 200,-200 110.457,0 200,89.543 200,200 z" />
  </g>
  <g
     style="fill:#008400;fill-opacity:1;stroke:#008400;stroke-width:60;stroke-linecap:round;stroke-linejoin:round;stroke-opacity:1"
     id="g386"
     transform="translate(-35196.76,23712.734)" />
  <g
     style="fill:#008400;fill-opacity:0;stroke:#008400;stroke-width:60;stroke-linecap:round;stroke-linejoin:round;stroke-opacity:1"
     id="g388"
     transform="matrix(4.6931878,0,0,4.6931878,-165196.97,-159284.73)">
    <path
       d="m 37500,34500 6000,0"
       id="path390"
       inkscape:connector-curvature="0" />
    <path
       d="m 49500,39000 0,1500"
       id="path392"
       inkscape:connector-curvature="0" />
    <path
       d="m 53000,39000 -3500,0"
       id="path394"
       inkscape:connector-curvature="0" />
    <path
       d="m 53000,40500 0,-1500"
       id="path396"
       inkscape:connector-curvature="0" />
  </g>
  <g
     style="fill:#008400;fill-opacity:0;stroke:#008400;stroke-width:0;stroke-linecap:round;stroke-linejoin:round;stroke-opacity:1"
     id="g398"
     transform="translate(-35196.76,23712.734)" />
  <g
     style="fill:#008400;fill-opacity:1;stroke:#008400;stroke-width:100;stroke-linecap:round;stroke-linejoin:round;stroke-opacity:1"
     id="g400"
     transform="matrix(4.6931878,0,0,4.6931878,-165196.97,-159284.73)">
    <circle
       cx="43500"
       cy="39000"
       r="200"
       id="circle402"
       sodipodi:cx="43500"
       sodipodi:cy="39000"
       sodipodi:rx="200"
       sodipodi:ry="200"
       d="m 43700,39000 c 0,110.457 -89.543,200 -200,200 -110.457,0 -200,-89.543 -200,-200 0,-110.457 89.543,-200 200,-200 110.457,0 200,89.543 200,200 z" />
  </g>
  <g
     style="fill:#008400;fill-opacity:1;stroke:#008400;stroke-width:0;stroke-linecap:round;stroke-linejoin:round;stroke-opacity:1"
     id="g404"
     transform="translate(-35196.76,23712.734)" />
  <g
     style="fill:#008400;fill-opacity:1;stroke:#008400;stroke-width:100;stroke-linecap:round;stroke-linejoin:round;stroke-opacity:1"
     id="g406"
     transform="matrix(4.6931878,0,0,4.6931878,-165196.97,-159284.73)">
    <circle
       cx="46500"
       cy="41500"
       r="200"
       id="circle408"
       sodipodi:cx="46500"
       sodipodi:cy="41500"
       sodipodi:rx="200"
       sodipodi:ry="200"
       d="m 46700,41500 c 0,110.457 -89.543,200 -200,200 -110.457,0 -200,-89.543 -200,-200 0,-110.457 89.543,-200 200,-200 110.457,0 200,89.543 200,200 z" />
  </g>
  <g
     style="fill:#008400;fill-opacity:1;stroke:#008400;stroke-width:60;stroke-linecap:round;stroke-linejoin:round;stroke-opacity:1"
     id="g410"
     transform="translate(-35196.76,23712.734)" />
  <g
     style="fill:#008400;fill-opacity:0;stroke:#008400;stroke-width:60;stroke-linecap:round;stroke-linejoin:round;stroke-opacity:1"
     id="g412"
     transform="matrix(4.6931878,0,0,4.6931878,-165196.97,-159284.73)">
    <path
       d="m 46500,39000 0,2500"
       id="path414"
       inkscape:connector-curvature="0" />
    <path
       d="m 43500,39000 3000,0"
       id="path416"
       inkscape:connector-curvature="0" />
    <path
       d="m 45000,41500 3000,0"
       id="path418"
       inkscape:connector-curvature="0" />
    <path
       d="m 43500,42500 0,1500"
       id="path420"
       inkscape:connector-curvature="0" />
    <path
       d="m 49500,42500 0,1500"
       id="path422"
       inkscape:connector-curvature="0" />
    <path
       d="m 38500,42500 0,4500"
       id="path424"
       inkscape:connector-curvature="0" />
  </g>
  <g
     style="fill:#000000;fill-opacity:0;stroke:#000000;stroke-width:60;stroke-linecap:round;stroke-linejoin:round;stroke-opacity:1"
     id="g426"
     transform="matrix(4.6931878,0,0,4.6931878,-165196.97,-159284.73)">
    <path
       d="m 43640,43470 0,400"
       id="path428"
       inkscape:connector-curvature="0" />
    <path
       d="m 43640,43530 30,-30 60,-30 80,0 60,30 30,60 0,310"
       id="path430"
       inkscape:connector-curvature="0" />
    <path
       d="m 44130,43270 370,0 -200,230 80,0 60,30 30,30 30,50 0,150 -30,50 -30,30 -60,30 -170,0 -60,-30 -20,-30"
       id="path432"
       inkscape:connector-curvature="0" />
    <path
       d="m 48530,43470 0,400"
       id="path434"
       inkscape:connector-curvature="0" />
    <path
       d="m 48530,43530 30,-30 60,-30 80,0 60,30 30,60 0,310"
       id="path436"
       inkscape:connector-curvature="0" />
    <path
       d="m 49330,43470 0,400"
       id="path438"
       inkscape:connector-curvature="0" />
    <path
       d="m 49190,43240 -150,430 380,0"
       id="path440"
       inkscape:connector-curvature="0" />
    <path
       d="m 46760,46270 50,0 60,30 30,30 30,60 30,110 0,140 -30,120 -30,50 -30,30 -60,30 -50,0 -60,-30 -30,-30 -30,-50 -30,-120 0,-140 30,-110 30,-60 30,-30 60,-30"
       id="path442"
       inkscape:connector-curvature="0" />
  </g>
  <g
     style="fill:#008400;fill-opacity:0;stroke:#008400;stroke-width:60;stroke-linecap:round;stroke-linejoin:round;stroke-opacity:1"
     id="g444"
     transform="matrix(4.6931878,0,0,4.6931878,-165196.97,-159284.73)">
    <path
       d="m 43500,46000 0,1000"
       id="path446"
       inkscape:connector-curvature="0" />
    <path
       d="m 38500,47000 14500,0"
       id="path448"
       inkscape:connector-curvature="0" />
    <path
       d="m 49500,47000 0,-1000"
       id="path450"
       inkscape:connector-curvature="0" />
    <path
       d="m 46500,48000 0,-1000"
       id="path452"
       inkscape:connector-curvature="0" />
  </g>
  <g
     style="fill:#008400;fill-opacity:0;stroke:#008400;stroke-width:0;stroke-linecap:round;stroke-linejoin:round;stroke-opacity:1"
     id="g454"
     transform="translate(-35196.76,23712.734)" />
  <g
     style="fill:#008400;fill-opacity:1;stroke:#008400;stroke-width:100;stroke-linecap:round;stroke-linejoin:round;stroke-opacity:1"
     id="g456"
     transform="matrix(4.6931878,0,0,4.6931878,-165196.97,-159284.73)">
    <circle
       cx="46500"
       cy="47000"
       r="200"
       id="circle458"
       sodipodi:cx="46500"
       sodipodi:cy="47000"
       sodipodi:rx="200"
       sodipodi:ry="200"
       d="m 46700,47000 c 0,110.457 -89.543,200 -200,200 -110.457,0 -200,-89.543 -200,-200 0,-110.457 89.543,-200 200,-200 110.457,0 200,89.543 200,200 z" />
  </g>
  <g
     style="fill:#008400;fill-opacity:1;stroke:#008400;stroke-width:0;stroke-linecap:round;stroke-linejoin:round;stroke-opacity:1"
     id="g460"
     transform="translate(-35196.76,23712.734)" />
  <g
     style="fill:#008400;fill-opacity:1;stroke:#008400;stroke-width:100;stroke-linecap:round;stroke-linejoin:round;stroke-opacity:1"
     id="g462"
     transform="matrix(4.6931878,0,0,4.6931878,-165196.97,-159284.73)">
    <circle
       cx="43500"
       cy="47000"
       r="200"
       id="circle464"
       sodipodi:cx="43500"
       sodipodi:cy="47000"
       sodipodi:rx="200"
       sodipodi:ry="200"
       d="m 43700,47000 c 0,110.457 -89.543,200 -200,200 -110.457,0 -200,-89.543 -200,-200 0,-110.457 89.543,-200 200,-200 110.457,0 200,89.543 200,200 z" />
  </g>
  <g
     style="fill:#008400;fill-opacity:1;stroke:#008400;stroke-width:60;stroke-linecap:round;stroke-linejoin:round;stroke-opacity:1"
     id="g466"
     transform="translate(-35196.76,23712.734)" />
  <g
     style="fill:#008400;fill-opacity:0;stroke:#008400;stroke-width:60;stroke-linecap:round;stroke-linejoin:round;stroke-opacity:1"
     id="g468"
     transform="matrix(4.6931878,0,0,4.6931878,-165196.97,-159284.73)">
    <path
       d="m 53000,47000 0,-4500"
       id="path470"
       inkscape:connector-curvature="0" />
  </g>
  <g
     style="fill:#008400;fill-opacity:0;stroke:#008400;stroke-width:0;stroke-linecap:round;stroke-linejoin:round;stroke-opacity:1"
     id="g472"
     transform="translate(-35196.76,23712.734)" />
  <g
     style="fill:#008400;fill-opacity:1;stroke:#008400;stroke-width:100;stroke-linecap:round;stroke-linejoin:round;stroke-opacity:1"
     id="g474"
     transform="matrix(4.6931878,0,0,4.6931878,-165196.97,-159284.73)">
    <circle
       cx="49500"
       cy="47000"
       r="200"
       id="circle476"
       sodipodi:cx="49500"
       sodipodi:cy="47000"
       sodipodi:rx="200"
       sodipodi:ry="200"
       d="m 49700,47000 c 0,110.457 -89.543,200 -200,200 -110.457,0 -200,-89.543 -200,-200 0,-110.457 89.543,-200 200,-200 110.457,0 200,89.543 200,200 z" />
  </g>
</svg>
