<?xml version="1.0" encoding="UTF-8" standalone="no"?>
<svg
   xmlns:dc="http://purl.org/dc/elements/1.1/"
   xmlns:cc="http://creativecommons.org/ns#"
   xmlns:rdf="http://www.w3.org/1999/02/22-rdf-syntax-ns#"
   xmlns:svg="http://www.w3.org/2000/svg"
   xmlns="http://www.w3.org/2000/svg"
   xmlns:sodipodi="http://sodipodi.sourceforge.net/DTD/sodipodi-0.dtd"
   xmlns:inkscape="http://www.inkscape.org/namespaces/inkscape"
   version="1.1"
   width="800"
   height="518.93005"
   viewBox="0 0 88888.951 57658.952"
   id="svg2"
   inkscape:version="0.48.4 r9939"
   sodipodi:docname="simple_mos_current_mirror.sch.svg">
  <metadata
     id="metadata440">
    <rdf:RDF>
      <cc:Work
         rdf:about="">
        <dc:format>image/svg+xml</dc:format>
        <dc:type
           rdf:resource="http://purl.org/dc/dcmitype/StillImage" />
      </cc:Work>
    </rdf:RDF>
  </metadata>
  <defs
     id="defs438" />
  <sodipodi:namedview
     pagecolor="#ffffff"
     bordercolor="#666666"
     borderopacity="1"
     objecttolerance="10"
     gridtolerance="10"
     guidetolerance="10"
     inkscape:pageopacity="0"
     inkscape:pageshadow="2"
     inkscape:window-width="1280"
     inkscape:window-height="750"
     id="namedview436"
     showgrid="false"
     fit-margin-top="0"
     fit-margin-left="0"
     fit-margin-right="0"
     fit-margin-bottom="0"
     inkscape:zoom="0.25751417"
     inkscape:cx="87.884928"
     inkscape:cy="-7.1099839"
     inkscape:window-x="0"
     inkscape:window-y="0"
     inkscape:window-maximized="1"
     inkscape:current-layer="svg2" />
  <title
     id="title4">SVG Picture created as simple_mos_current_mirror.sch.svg date 2017/09/15 12:25:49 </title>
  <desc
     id="desc6">Picture generated by Eeschema-SVG </desc>
  <g
     style="fill:#000000;fill-opacity:1;stroke:#000000;stroke-linecap:round;stroke-linejoin:round;stroke-opacity:1"
     id="g8"
     transform="translate(-48700.015,17108.949)" />
  <g
     style="fill:#000000;fill-opacity:0;stroke:#000000;stroke-width:0;stroke-linecap:round;stroke-linejoin:round;stroke-opacity:1"
     id="g10"
     transform="translate(-48700.015,17108.949)" />
  <g
     style="fill:#840000;fill-opacity:0;stroke:#840000;stroke-width:0;stroke-linecap:round;stroke-linejoin:round;stroke-opacity:1"
     id="g12"
     transform="translate(-48700.015,17108.949)" />
  <g
     style="fill:#840000;fill-opacity:0;stroke:#840000;stroke-width:100;stroke-linecap:round;stroke-linejoin:round;stroke-opacity:1"
     id="g14"
     transform="matrix(4.5724782,0,0,4.5724782,-222679.71,-127755.04)">
    <circle
       cx="50000"
       cy="28500"
       r="500"
       id="circle16"
       sodipodi:cx="50000"
       sodipodi:cy="28500"
       sodipodi:rx="500"
       sodipodi:ry="500"
       d="m 50500,28500 c 0,276.142 -223.858,500 -500,500 -276.142,0 -500,-223.858 -500,-500 0,-276.142 223.858,-500 500,-500 276.142,0 500,223.858 500,500 z" />
    <polyline
       fill="none;"
       points="50000,28750 50000,28250 "
       id="polyline18" />
    <polyline
       fill="none;"
       points="51000,28500 50500,28500 "
       id="polyline20" />
    <polyline
       fill="none;"
       points="50250,28500 49750,28500 "
       id="polyline22" />
  </g>
  <g
     style="fill:#840000;fill-opacity:0;stroke:#840000;stroke-width:60;stroke-linecap:round;stroke-linejoin:round;stroke-opacity:1"
     id="g24"
     transform="matrix(4.5724782,0,0,4.5724782,-222679.71,-127755.04)">
    <path
       d="m 51000,28500 0,0"
       id="path26"
       inkscape:connector-curvature="0" />
  </g>
  <g
     style="fill:#008484;fill-opacity:0;stroke:#008484;stroke-width:60;stroke-linecap:round;stroke-linejoin:round;stroke-opacity:1"
     id="g28"
     transform="matrix(4.5724782,0,0,4.5724782,-222679.71,-127755.04)">
    <path
       d="m 48730,28960 500,-160 -500,-170"
       id="path30"
       inkscape:connector-curvature="0" />
    <path
       d="m 49040,28460 0,-380"
       id="path32"
       inkscape:connector-curvature="0" />
    <path
       d="m 49230,28270 -380,0"
       id="path34"
       inkscape:connector-curvature="0" />
  </g>
  <g
     style="fill:#008484;fill-opacity:0;stroke:#008484;stroke-width:0;stroke-linecap:round;stroke-linejoin:round;stroke-opacity:1"
     id="g36"
     transform="translate(-48700.015,17108.949)" />
  <g
     style="fill:#840000;fill-opacity:0;stroke:#840000;stroke-width:0;stroke-linecap:round;stroke-linejoin:round;stroke-opacity:1"
     id="g38"
     transform="translate(-48700.015,17108.949)" />
  <g
     style="fill:#840000;fill-opacity:0;stroke:#840000;stroke-width:100;stroke-linecap:round;stroke-linejoin:round;stroke-opacity:1"
     id="g40"
     transform="matrix(4.5724782,0,0,4.5724782,-222679.71,-127755.04)">
    <circle
       cx="52000"
       cy="33000"
       r="1000"
       id="circle42"
       sodipodi:cx="52000"
       sodipodi:cy="33000"
       sodipodi:rx="1000"
       sodipodi:ry="1000"
       d="m 53000,33000 c 0,552.285 -447.715,1000 -1000,1000 -552.285,0 -1000,-447.715 -1000,-1000 0,-552.285 447.715,-1000 1000,-1000 552.285,0 1000,447.715 1000,1000 z" />
    <polyline
       fill="none;"
       points="51750,33500 52250,33500 "
       id="polyline44" />
    <polyline
       fill="none;"
       points="52000,32750 52000,32250 "
       id="polyline46" />
    <polyline
       fill="none;"
       points="52250,32500 51750,32500 "
       id="polyline48" />
  </g>
  <g
     style="fill:#840000;fill-opacity:0;stroke:#840000;stroke-width:60;stroke-linecap:round;stroke-linejoin:round;stroke-opacity:1"
     id="g50"
     transform="matrix(4.5724782,0,0,4.5724782,-222679.71,-127755.04)">
    <path
       d="m 52000,32000 0,0"
       id="path52"
       inkscape:connector-curvature="0" />
    <path
       d="m 52000,34000 0,0"
       id="path54"
       inkscape:connector-curvature="0" />
  </g>
  <g
     style="fill:#008484;fill-opacity:0;stroke:#008484;stroke-width:60;stroke-linecap:round;stroke-linejoin:round;stroke-opacity:1"
     id="g56"
     transform="matrix(4.5724782,0,0,4.5724782,-222679.71,-127755.04)">
    <path
       d="m 52300,31230 160,500 170,-500"
       id="path58"
       inkscape:connector-curvature="0" />
    <path
       d="m 53060,31730 -280,0"
       id="path60"
       inkscape:connector-curvature="0" />
    <path
       d="m 52920,31730 0,-500 -50,70 -50,50 -40,20"
       id="path62"
       inkscape:connector-curvature="0" />
    <path
       d="m 52320,34290 310,0 -170,190 80,0 40,20 30,20 20,50 0,120 -20,50 -30,20 -40,30 -150,0 -40,-30 -30,-20"
       id="path64"
       inkscape:connector-curvature="0" />
    <path
       d="m 52780,34290 160,500 170,-500"
       id="path66"
       inkscape:connector-curvature="0" />
  </g>
  <g
     style="fill:#008484;fill-opacity:0;stroke:#008484;stroke-width:0;stroke-linecap:round;stroke-linejoin:round;stroke-opacity:1"
     id="g68"
     transform="translate(-48700.015,17108.949)" />
  <g
     style="fill:#840000;fill-opacity:0;stroke:#840000;stroke-width:0;stroke-linecap:round;stroke-linejoin:round;stroke-opacity:1"
     id="g70"
     transform="translate(-48700.015,17108.949)" />
  <g
     style="fill:#840000;fill-opacity:0;stroke:#840000;stroke-width:100;stroke-linecap:round;stroke-linejoin:round;stroke-opacity:1"
     id="g72"
     transform="matrix(4.5724782,0,0,4.5724782,-222679.71,-127755.04)">
    <circle
       cx="57000"
       cy="30500"
       r="1000"
       id="circle74"
       sodipodi:cx="57000"
       sodipodi:cy="30500"
       sodipodi:rx="1000"
       sodipodi:ry="1000"
       d="m 58000,30500 c 0,552.285 -447.715,1000 -1000,1000 -552.285,0 -1000,-447.715 -1000,-1000 0,-552.285 447.715,-1000 1000,-1000 552.285,0 1000,447.715 1000,1000 z" />
  </g>
  <g
     style="fill:#840000;fill-opacity:1;stroke:#840000;stroke-width:100;stroke-linecap:round;stroke-linejoin:round;stroke-opacity:1"
     id="g76"
     transform="matrix(4.5724782,0,0,4.5724782,-222679.71,-127755.04)">
    <polyline
       style="fill-rule:evenodd"
       points="57000,29750 57000,31250 56750,30750 57250,30750 57000,31250 "
       id="polyline78" />
  </g>
  <g
     style="fill:#840000;fill-opacity:1;stroke:#840000;stroke-width:60;stroke-linecap:round;stroke-linejoin:round;stroke-opacity:1"
     id="g80"
     transform="translate(-48700.015,17108.949)" />
  <g
     style="fill:#840000;fill-opacity:0;stroke:#840000;stroke-width:60;stroke-linecap:round;stroke-linejoin:round;stroke-opacity:1"
     id="g82"
     transform="matrix(4.5724782,0,0,4.5724782,-222679.71,-127755.04)">
    <path
       d="m 57000,29500 0,0"
       id="path84"
       inkscape:connector-curvature="0" />
    <path
       d="m 57000,31500 0,0"
       id="path86"
       inkscape:connector-curvature="0" />
  </g>
  <g
     style="fill:#008484;fill-opacity:0;stroke:#008484;stroke-width:60;stroke-linecap:round;stroke-linejoin:round;stroke-opacity:1"
     id="g88"
     transform="matrix(4.5724782,0,0,4.5724782,-222679.71,-127755.04)">
    <path
       d="m 57620,29480 0,-500"
       id="path90"
       inkscape:connector-curvature="0" />
    <path
       d="m 58120,29480 -280,0"
       id="path92"
       inkscape:connector-curvature="0" />
    <path
       d="m 57980,29480 0,-500 -50,70 -50,50 -40,20"
       id="path94"
       inkscape:connector-curvature="0" />
    <path
       d="m 57860,31540 -240,0 -20,230 20,-20 50,-20 120,0 40,20 30,20 20,50 0,120 -20,50 -30,20 -40,30 -120,0 -50,-30 -20,-20"
       id="path96"
       inkscape:connector-curvature="0" />
    <path
       d="m 58190,31540 50,0 50,20 20,20 30,50 20,100 0,120 -20,90 -30,50 -20,20 -50,30 -50,0 -40,-30 -30,-20 -20,-50 -20,-90 0,-120 20,-100 20,-50 30,-20 40,-20"
       id="path98"
       inkscape:connector-curvature="0" />
    <path
       d="m 58790,31700 0,340"
       id="path100"
       inkscape:connector-curvature="0" />
    <path
       d="m 58580,31700 0,260 20,50 50,30 70,0 50,-30 20,-20"
       id="path102"
       inkscape:connector-curvature="0" />
    <path
       d="m 59010,31890 230,0"
       id="path104"
       inkscape:connector-curvature="0" />
    <path
       d="m 58960,32040 160,-500 170,500"
       id="path106"
       inkscape:connector-curvature="0" />
  </g>
  <g
     style="fill:#008400;fill-opacity:0;stroke:#008400;stroke-width:60;stroke-linecap:round;stroke-linejoin:round;stroke-opacity:1"
     id="g108"
     transform="matrix(4.5724782,0,0,4.5724782,-222679.71,-127755.04)">
    <path
       d="m 59000,36000 3000,0"
       id="path110"
       inkscape:connector-curvature="0" />
  </g>
  <g
     style="fill:#008400;fill-opacity:0;stroke:#008400;stroke-width:0;stroke-linecap:round;stroke-linejoin:round;stroke-opacity:1"
     id="g112"
     transform="translate(-48700.015,17108.949)" />
  <g
     style="fill:#840000;fill-opacity:0;stroke:#840000;stroke-width:0;stroke-linecap:round;stroke-linejoin:round;stroke-opacity:1"
     id="g114"
     transform="translate(-48700.015,17108.949)" />
  <g
     style="fill:#840000;fill-opacity:0;stroke:#840000;stroke-width:100;stroke-linecap:round;stroke-linejoin:round;stroke-opacity:1"
     id="g116"
     transform="matrix(4.5724782,0,0,4.5724782,-222679.71,-127755.04)">
    <polyline
       fill="none;"
       points="59750,40000 61250,40000 "
       id="polyline118" />
    <polyline
       fill="none;"
       points="60000,40250 61000,40250 "
       id="polyline120" />
    <polyline
       fill="none;"
       points="60250,40500 60750,40500 "
       id="polyline122" />
    <polyline
       fill="none;"
       points="60500,39000 60500,40000 "
       id="polyline124" />
  </g>
  <g
     style="fill:#840000;fill-opacity:0;stroke:#840000;stroke-width:60;stroke-linecap:round;stroke-linejoin:round;stroke-opacity:1"
     id="g126"
     transform="matrix(4.5724782,0,0,4.5724782,-222679.71,-127755.04)">
    <path
       d="m 60500,39000 0,0"
       id="path128"
       inkscape:connector-curvature="0" />
  </g>
  <g
     style="fill:#008400;fill-opacity:0;stroke:#008400;stroke-width:60;stroke-linecap:round;stroke-linejoin:round;stroke-opacity:1"
     id="g130"
     transform="matrix(4.5724782,0,0,4.5724782,-222679.71,-127755.04)">
    <path
       d="m 60500,36000 0,-3000"
       id="path132"
       inkscape:connector-curvature="0" />
    <path
       d="m 60500,33000 -3500,0"
       id="path134"
       inkscape:connector-curvature="0" />
    <path
       d="m 57000,31500 0,3500"
       id="path136"
       inkscape:connector-curvature="0" />
  </g>
  <g
     style="fill:#008400;fill-opacity:0;stroke:#008400;stroke-width:0;stroke-linecap:round;stroke-linejoin:round;stroke-opacity:1"
     id="g138"
     transform="translate(-48700.015,17108.949)" />
  <g
     style="fill:#008400;fill-opacity:1;stroke:#008400;stroke-width:100;stroke-linecap:round;stroke-linejoin:round;stroke-opacity:1"
     id="g140"
     transform="matrix(4.5724782,0,0,4.5724782,-222679.71,-127755.04)">
    <circle
       cx="60500"
       cy="36000"
       r="200"
       id="circle142"
       sodipodi:cx="60500"
       sodipodi:cy="36000"
       sodipodi:rx="200"
       sodipodi:ry="200"
       d="m 60700,36000 c 0,110.457 -89.543,200 -200,200 -110.457,0 -200,-89.543 -200,-200 0,-110.457 89.543,-200 200,-200 110.457,0 200,89.543 200,200 z" />
  </g>
  <g
     style="fill:#008400;fill-opacity:1;stroke:#008400;stroke-width:0;stroke-linecap:round;stroke-linejoin:round;stroke-opacity:1"
     id="g144"
     transform="translate(-48700.015,17108.949)" />
  <g
     style="fill:#008400;fill-opacity:1;stroke:#008400;stroke-width:100;stroke-linecap:round;stroke-linejoin:round;stroke-opacity:1"
     id="g146"
     transform="matrix(4.5724782,0,0,4.5724782,-222679.71,-127755.04)">
    <circle
       cx="57000"
       cy="33000"
       r="200"
       id="circle148"
       sodipodi:cx="57000"
       sodipodi:cy="33000"
       sodipodi:rx="200"
       sodipodi:ry="200"
       d="m 57200,33000 c 0,110.457 -89.543,200 -200,200 -110.457,0 -200,-89.543 -200,-200 0,-110.457 89.543,-200 200,-200 110.457,0 200,89.543 200,200 z" />
  </g>
  <g
     style="fill:#008400;fill-opacity:1;stroke:#008400;stroke-width:60;stroke-linecap:round;stroke-linejoin:round;stroke-opacity:1"
     id="g150"
     transform="translate(-48700.015,17108.949)" />
  <g
     style="fill:#008400;fill-opacity:0;stroke:#008400;stroke-width:60;stroke-linecap:round;stroke-linejoin:round;stroke-opacity:1"
     id="g152"
     transform="matrix(4.5724782,0,0,4.5724782,-222679.71,-127755.04)">
    <path
       d="m 57000,29500 0,-1000"
       id="path154"
       inkscape:connector-curvature="0" />
    <path
       d="m 57000,28500 -6000,0"
       id="path156"
       inkscape:connector-curvature="0" />
    <path
       d="m 52000,32000 0,-3500"
       id="path158"
       inkscape:connector-curvature="0" />
  </g>
  <g
     style="fill:#008400;fill-opacity:0;stroke:#008400;stroke-width:0;stroke-linecap:round;stroke-linejoin:round;stroke-opacity:1"
     id="g160"
     transform="translate(-48700.015,17108.949)" />
  <g
     style="fill:#008400;fill-opacity:1;stroke:#008400;stroke-width:100;stroke-linecap:round;stroke-linejoin:round;stroke-opacity:1"
     id="g162"
     transform="matrix(4.5724782,0,0,4.5724782,-222679.71,-127755.04)">
    <circle
       cx="52000"
       cy="28500"
       r="200"
       id="circle164"
       sodipodi:cx="52000"
       sodipodi:cy="28500"
       sodipodi:rx="200"
       sodipodi:ry="200"
       d="m 52200,28500 c 0,110.457 -89.543,200 -200,200 -110.457,0 -200,-89.543 -200,-200 0,-110.457 89.543,-200 200,-200 110.457,0 200,89.543 200,200 z" />
  </g>
  <g
     style="fill:#008400;fill-opacity:1;stroke:#008400;stroke-width:60;stroke-linecap:round;stroke-linejoin:round;stroke-opacity:1"
     id="g166"
     transform="translate(-48700.015,17108.949)" />
  <g
     style="fill:#008400;fill-opacity:0;stroke:#008400;stroke-width:60;stroke-linecap:round;stroke-linejoin:round;stroke-opacity:1"
     id="g168"
     transform="matrix(4.5724782,0,0,4.5724782,-222679.71,-127755.04)">
    <path
       d="m 52000,34000 0,4000"
       id="path170"
       inkscape:connector-curvature="0" />
  </g>
  <g
     style="fill:#008400;fill-opacity:0;stroke:#008400;stroke-width:0;stroke-linecap:round;stroke-linejoin:round;stroke-opacity:1"
     id="g172"
     transform="translate(-48700.015,17108.949)" />
  <g
     style="fill:#840000;fill-opacity:0;stroke:#840000;stroke-width:0;stroke-linecap:round;stroke-linejoin:round;stroke-opacity:1"
     id="g174"
     transform="translate(-48700.015,17108.949)" />
  <g
     style="fill:#840000;fill-opacity:0;stroke:#840000;stroke-width:100;stroke-linecap:round;stroke-linejoin:round;stroke-opacity:1"
     id="g176"
     transform="matrix(4.5724782,0,0,4.5724782,-222679.71,-127755.04)">
    <circle
       cx="67000"
       cy="35500"
       r="1000"
       id="circle178"
       sodipodi:cx="67000"
       sodipodi:cy="35500"
       sodipodi:rx="1000"
       sodipodi:ry="1000"
       d="m 68000,35500 c 0,552.285 -447.715,1000 -1000,1000 -552.285,0 -1000,-447.715 -1000,-1000 0,-552.285 447.715,-1000 1000,-1000 552.285,0 1000,447.715 1000,1000 z" />
    <polyline
       fill="none;"
       points="66750,36000 67250,36000 "
       id="polyline180" />
    <polyline
       fill="none;"
       points="67000,35250 67000,34750 "
       id="polyline182" />
    <polyline
       fill="none;"
       points="67250,35000 66750,35000 "
       id="polyline184" />
  </g>
  <g
     style="fill:#840000;fill-opacity:0;stroke:#840000;stroke-width:60;stroke-linecap:round;stroke-linejoin:round;stroke-opacity:1"
     id="g186"
     transform="matrix(4.5724782,0,0,4.5724782,-222679.71,-127755.04)">
    <path
       d="m 67000,34500 0,0"
       id="path188"
       inkscape:connector-curvature="0" />
    <path
       d="m 67000,36500 0,0"
       id="path190"
       inkscape:connector-curvature="0" />
  </g>
  <g
     style="fill:#008484;fill-opacity:0;stroke:#008484;stroke-width:60;stroke-linecap:round;stroke-linejoin:round;stroke-opacity:1"
     id="g192"
     transform="matrix(4.5724782,0,0,4.5724782,-222679.71,-127755.04)">
    <path
       d="m 67300,33730 160,500 170,-500"
       id="path194"
       inkscape:connector-curvature="0" />
    <path
       d="m 67780,33770 20,-20 50,-20 120,0 40,20 30,20 20,50 0,50 -20,70 -290,290 310,0"
       id="path196"
       inkscape:connector-curvature="0" />
    <path
       d="m 67630,37290 -280,0"
       id="path198"
       inkscape:connector-curvature="0" />
    <path
       d="m 67490,37290 0,-500 -50,70 -50,50 -40,20"
       id="path200"
       inkscape:connector-curvature="0" />
    <path
       d="m 67780,36790 160,500 170,-500"
       id="path202"
       inkscape:connector-curvature="0" />
  </g>
  <g
     style="fill:#008400;fill-opacity:0;stroke:#008400;stroke-width:60;stroke-linecap:round;stroke-linejoin:round;stroke-opacity:1"
     id="g204"
     transform="matrix(4.5724782,0,0,4.5724782,-222679.71,-127755.04)">
    <path
       d="m 67000,34500 0,-1500"
       id="path206"
       inkscape:connector-curvature="0" />
    <path
       d="m 67000,33000 -3000,0"
       id="path208"
       inkscape:connector-curvature="0" />
    <path
       d="m 64000,33000 0,2000"
       id="path210"
       inkscape:connector-curvature="0" />
  </g>
  <g
     style="fill:#000000;fill-opacity:0;stroke:#000000;stroke-width:60;stroke-linecap:round;stroke-linejoin:round;stroke-opacity:1"
     id="g212"
     transform="matrix(4.5724782,0,0,4.5724782,-222679.71,-127755.04)">
    <path
       d="m 53640,27970 0,400"
       id="path214"
       inkscape:connector-curvature="0" />
    <path
       d="m 53640,28030 30,-30 60,-30 80,0 60,30 30,60 0,310"
       id="path216"
       inkscape:connector-curvature="0" />
    <path
       d="m 54040,28430 460,0"
       id="path218"
       inkscape:connector-curvature="0" />
    <path
       d="m 54640,27970 0,600"
       id="path220"
       inkscape:connector-curvature="0" />
    <path
       d="m 54640,28000 60,-30 110,0 60,30 30,30 30,60 0,170 -30,50 -30,30 -60,30 -110,0 -60,-30"
       id="path222"
       inkscape:connector-curvature="0" />
    <path
       d="m 55270,28370 -60,-30 -30,-30 -30,-50 0,-170 30,-60 30,-30 60,-30 80,0 60,30 30,30 30,60 0,170 -30,50 -30,30 -60,30 -80,0"
       id="path224"
       inkscape:connector-curvature="0" />
    <path
       d="m 55690,28340 60,30 120,0 50,-30 30,-50 0,-30 -30,-60 -50,-30 -90,0 -60,-30 -30,-50 0,-30 30,-60 60,-30 90,0 50,30"
       id="path226"
       inkscape:connector-curvature="0" />
    <path
       d="m 57140,32470 0,400"
       id="path228"
       inkscape:connector-curvature="0" />
    <path
       d="m 57140,32530 30,-30 60,-30 80,0 60,30 30,60 0,310"
       id="path230"
       inkscape:connector-curvature="0" />
    <path
       d="m 58000,32870 -350,0"
       id="path232"
       inkscape:connector-curvature="0" />
    <path
       d="m 57830,32870 0,-600 -60,90 -60,50 -60,30"
       id="path234"
       inkscape:connector-curvature="0" />
    <path
       d="m 64140,32470 0,400"
       id="path236"
       inkscape:connector-curvature="0" />
    <path
       d="m 64140,32530 30,-30 60,-30 80,0 60,30 30,60 0,310"
       id="path238"
       inkscape:connector-curvature="0" />
    <path
       d="m 64650,32330 30,-30 60,-30 140,0 60,30 30,30 30,60 0,50 -30,90 -340,340 370,0"
       id="path240"
       inkscape:connector-curvature="0" />
    <path
       d="m 60760,37270 50,0 60,30 30,30 30,60 30,110 0,140 -30,120 -30,50 -30,30 -60,30 -50,0 -60,-30 -30,-30 -30,-50 -30,-120 0,-140 30,-110 30,-60 30,-30 60,-30"
       id="path242"
       inkscape:connector-curvature="0" />
  </g>
  <g
     style="fill:#008400;fill-opacity:0;stroke:#008400;stroke-width:60;stroke-linecap:round;stroke-linejoin:round;stroke-opacity:1"
     id="g244"
     transform="matrix(4.5724782,0,0,4.5724782,-222679.71,-127755.04)">
    <path
       d="m 60500,39000 0,-1000"
       id="path246"
       inkscape:connector-curvature="0" />
    <path
       d="m 52000,38000 15000,0"
       id="path248"
       inkscape:connector-curvature="0" />
    <path
       d="m 67000,38000 0,-1500"
       id="path250"
       inkscape:connector-curvature="0" />
  </g>
  <g
     style="fill:#008400;fill-opacity:0;stroke:#008400;stroke-width:0;stroke-linecap:round;stroke-linejoin:round;stroke-opacity:1"
     id="g252"
     transform="translate(-48700.015,17108.949)" />
  <g
     style="fill:#008400;fill-opacity:1;stroke:#008400;stroke-width:100;stroke-linecap:round;stroke-linejoin:round;stroke-opacity:1"
     id="g254"
     transform="matrix(4.5724782,0,0,4.5724782,-222679.71,-127755.04)">
    <circle
       cx="60500"
       cy="38000"
       r="200"
       id="circle256"
       sodipodi:cx="60500"
       sodipodi:cy="38000"
       sodipodi:rx="200"
       sodipodi:ry="200"
       d="m 60700,38000 c 0,110.457 -89.543,200 -200,200 -110.457,0 -200,-89.543 -200,-200 0,-110.457 89.543,-200 200,-200 110.457,0 200,89.543 200,200 z" />
  </g>
  <g
     style="fill:#008400;fill-opacity:1;stroke:#008400;stroke-width:0;stroke-linecap:round;stroke-linejoin:round;stroke-opacity:1"
     id="g258"
     transform="translate(-48700.015,17108.949)" />
  <g
     style="fill:#008400;fill-opacity:1;stroke:#008400;stroke-width:100;stroke-linecap:round;stroke-linejoin:round;stroke-opacity:1"
     id="g260"
     transform="matrix(4.5724782,0,0,4.5724782,-222679.71,-127755.04)">
    <circle
       cx="64000"
       cy="38000"
       r="200"
       id="circle262"
       sodipodi:cx="64000"
       sodipodi:cy="38000"
       sodipodi:rx="200"
       sodipodi:ry="200"
       d="m 64200,38000 c 0,110.457 -89.543,200 -200,200 -110.457,0 -200,-89.543 -200,-200 0,-110.457 89.543,-200 200,-200 110.457,0 200,89.543 200,200 z" />
  </g>
  <g
     style="fill:#008400;fill-opacity:1;stroke:#008400;stroke-width:0;stroke-linecap:round;stroke-linejoin:round;stroke-opacity:1"
     id="g264"
     transform="translate(-48700.015,17108.949)" />
  <g
     style="fill:#008400;fill-opacity:1;stroke:#008400;stroke-width:100;stroke-linecap:round;stroke-linejoin:round;stroke-opacity:1"
     id="g266"
     transform="matrix(4.5724782,0,0,4.5724782,-222679.71,-127755.04)">
    <circle
       cx="57000"
       cy="38000"
       r="200"
       id="circle268"
       sodipodi:cx="57000"
       sodipodi:cy="38000"
       sodipodi:rx="200"
       sodipodi:ry="200"
       d="m 57200,38000 c 0,110.457 -89.543,200 -200,200 -110.457,0 -200,-89.543 -200,-200 0,-110.457 89.543,-200 200,-200 110.457,0 200,89.543 200,200 z" />
  </g>
  <g
     style="fill:#008400;fill-opacity:1;stroke:#008400;stroke-width:0;stroke-linecap:round;stroke-linejoin:round;stroke-opacity:1"
     id="g270"
     transform="translate(-48700.015,17108.949)" />
  <g
     style="fill:#840000;fill-opacity:1;stroke:#840000;stroke-width:0;stroke-linecap:round;stroke-linejoin:round;stroke-opacity:1"
     id="g272"
     transform="translate(-48700.015,17108.949)" />
  <g
     style="fill:#840000;fill-opacity:0;stroke:#840000;stroke-width:100;stroke-linecap:round;stroke-linejoin:round;stroke-opacity:1"
     id="g274"
     transform="matrix(4.5724782,0,0,4.5724782,-222679.71,-127755.04)">
    <circle
       cx="58000"
       cy="35500"
       r="1070"
       id="circle276"
       sodipodi:cx="58000"
       sodipodi:cy="35500"
       sodipodi:rx="1070"
       sodipodi:ry="1070"
       d="m 59070,35500 c 0,590.945 -479.055,1070 -1070,1070 -590.945,0 -1070,-479.055 -1070,-1070 0,-590.945 479.055,-1070 1070,-1070 590.945,0 1070,479.055 1070,1070 z" />
    <polyline
       fill="none;"
       points="58000,36000 58000,36250 "
       id="polyline278" />
    <polyline
       fill="none;"
       points="58000,36000 58000,35900 "
       id="polyline280" />
    <polyline
       fill="none;"
       points="58000,36000 57000,36000 "
       id="polyline282" />
    <polyline
       fill="none;"
       points="58000,35600 58000,35400 "
       id="polyline284" />
    <polyline
       fill="none;"
       points="58000,35000 58000,35100 "
       id="polyline286" />
    <polyline
       fill="none;"
       points="58000,35000 58000,34750 "
       id="polyline288" />
    <polyline
       fill="none;"
       points="58000,35000 57000,35000 "
       id="polyline290" />
    <polyline
       fill="none;"
       points="57000,35500 58000,35500 "
       id="polyline292" />
    <polyline
       fill="none;"
       points="59000,36000 58500,36000 58500,35000 "
       id="polyline294" />
  </g>
  <g
     style="fill:#840000;fill-opacity:1;stroke:#840000;stroke-width:100;stroke-linecap:round;stroke-linejoin:round;stroke-opacity:1"
     id="g296"
     transform="matrix(4.5724782,0,0,4.5724782,-222679.71,-127755.04)">
    <polyline
       style="fill-rule:evenodd"
       points="57700,35500 57700,35400 57900,35500 57700,35600 57700,35500 "
       id="polyline298" />
  </g>
  <g
     style="fill:#840000;fill-opacity:1;stroke:#840000;stroke-width:60;stroke-linecap:round;stroke-linejoin:round;stroke-opacity:1"
     id="g300"
     transform="translate(-48700.015,17108.949)" />
  <g
     style="fill:#840000;fill-opacity:0;stroke:#840000;stroke-width:60;stroke-linecap:round;stroke-linejoin:round;stroke-opacity:1"
     id="g302"
     transform="matrix(4.5724782,0,0,4.5724782,-222679.71,-127755.04)">
    <path
       d="m 57000,35500 0,0"
       id="path304"
       inkscape:connector-curvature="0" />
    <path
       d="m 57000,35000 0,0"
       id="path306"
       inkscape:connector-curvature="0" />
    <path
       d="m 59000,36000 0,0"
       id="path308"
       inkscape:connector-curvature="0" />
    <path
       d="m 57000,36000 0,0"
       id="path310"
       inkscape:connector-curvature="0" />
  </g>
  <g
     style="fill:#008484;fill-opacity:0;stroke:#008484;stroke-width:60;stroke-linecap:round;stroke-linejoin:round;stroke-opacity:1"
     id="g312"
     transform="matrix(4.5724782,0,0,4.5724782,-222679.71,-127755.04)">
    <path
       d="m 57590,34260 0,-500 170,350 160,-350 0,500"
       id="path314"
       inkscape:connector-curvature="0" />
    <path
       d="m 58420,34260 -280,0"
       id="path316"
       inkscape:connector-curvature="0" />
    <path
       d="m 58280,34260 0,-500 -50,70 -50,50 -40,20"
       id="path318"
       inkscape:connector-curvature="0" />
    <path
       d="m 56130,36810 90,400 80,-280 70,280 100,-400"
       id="path320"
       inkscape:connector-curvature="0" />
    <path
       d="m 56630,37000 300,0"
       id="path322"
       inkscape:connector-curvature="0" />
    <path
       d="m 56930,37120 -300,0"
       id="path324"
       inkscape:connector-curvature="0" />
    <path
       d="m 57320,36810 -190,0 -20,190 20,-20 30,-20 100,0 40,20 20,20 10,40 0,90 -10,40 -20,20 -40,20 -100,0 -30,-20 -20,-20"
       id="path326"
       inkscape:connector-curvature="0" />
    <path
       d="m 57680,36940 0,270"
       id="path328"
       inkscape:connector-curvature="0" />
    <path
       d="m 57510,36940 0,210 10,40 40,20 60,0 40,-20 20,-20"
       id="path330"
       inkscape:connector-curvature="0" />
    <path
       d="m 58360,37210 -190,0 0,-400"
       id="path332"
       inkscape:connector-curvature="0" />
    <path
       d="m 58490,37000 300,0"
       id="path334"
       inkscape:connector-curvature="0" />
    <path
       d="m 58790,37120 -300,0"
       id="path336"
       inkscape:connector-curvature="0" />
    <path
       d="m 58970,36850 20,-20 30,-20 100,0 40,20 20,20 10,40 0,40 -10,50 -230,230 240,0"
       id="path338"
       inkscape:connector-curvature="0" />
    <path
       d="m 59540,36940 0,270"
       id="path340"
       inkscape:connector-curvature="0" />
    <path
       d="m 59370,36940 0,210 10,40 40,20 60,0 40,-20 20,-20"
       id="path342"
       inkscape:connector-curvature="0" />
  </g>
  <g
     style="fill:#008400;fill-opacity:0;stroke:#008400;stroke-width:60;stroke-linecap:round;stroke-linejoin:round;stroke-opacity:1"
     id="g344"
     transform="matrix(4.5724782,0,0,4.5724782,-222679.71,-127755.04)">
    <path
       d="m 57000,35500 0,2500"
       id="path346"
       inkscape:connector-curvature="0" />
  </g>
  <g
     style="fill:#008400;fill-opacity:0;stroke:#008400;stroke-width:0;stroke-linecap:round;stroke-linejoin:round;stroke-opacity:1"
     id="g348"
     transform="translate(-48700.015,17108.949)" />
  <g
     style="fill:#008400;fill-opacity:1;stroke:#008400;stroke-width:100;stroke-linecap:round;stroke-linejoin:round;stroke-opacity:1"
     id="g350"
     transform="matrix(4.5724782,0,0,4.5724782,-222679.71,-127755.04)">
    <circle
       cx="57000"
       cy="36000"
       r="200"
       id="circle352"
       sodipodi:cx="57000"
       sodipodi:cy="36000"
       sodipodi:rx="200"
       sodipodi:ry="200"
       d="m 57200,36000 c 0,110.457 -89.543,200 -200,200 -110.457,0 -200,-89.543 -200,-200 0,-110.457 89.543,-200 200,-200 110.457,0 200,89.543 200,200 z" />
  </g>
  <g
     style="fill:#008400;fill-opacity:1;stroke:#008400;stroke-width:0;stroke-linecap:round;stroke-linejoin:round;stroke-opacity:1"
     id="g354"
     transform="translate(-48700.015,17108.949)" />
  <g
     style="fill:#840000;fill-opacity:1;stroke:#840000;stroke-width:0;stroke-linecap:round;stroke-linejoin:round;stroke-opacity:1"
     id="g356"
     transform="translate(-48700.015,17108.949)" />
  <g
     style="fill:#840000;fill-opacity:0;stroke:#840000;stroke-width:100;stroke-linecap:round;stroke-linejoin:round;stroke-opacity:1"
     id="g358"
     transform="matrix(4.5724782,0,0,4.5724782,-222679.71,-127755.04)">
    <circle
       cx="63000"
       cy="35500"
       r="1070"
       id="circle360"
       sodipodi:cx="63000"
       sodipodi:cy="35500"
       sodipodi:rx="1070"
       sodipodi:ry="1070"
       d="m 64070,35500 c 0,590.945 -479.055,1070 -1070,1070 -590.945,0 -1070,-479.055 -1070,-1070 0,-590.945 479.055,-1070 1070,-1070 590.945,0 1070,479.055 1070,1070 z" />
    <polyline
       fill="none;"
       points="63000,36000 63000,36250 "
       id="polyline362" />
    <polyline
       fill="none;"
       points="63000,36000 63000,35900 "
       id="polyline364" />
    <polyline
       fill="none;"
       points="63000,36000 64000,36000 "
       id="polyline366" />
    <polyline
       fill="none;"
       points="63000,35600 63000,35400 "
       id="polyline368" />
    <polyline
       fill="none;"
       points="63000,35000 63000,35100 "
       id="polyline370" />
    <polyline
       fill="none;"
       points="63000,35000 63000,34750 "
       id="polyline372" />
    <polyline
       fill="none;"
       points="63000,35000 64000,35000 "
       id="polyline374" />
    <polyline
       fill="none;"
       points="64000,35500 63000,35500 "
       id="polyline376" />
    <polyline
       fill="none;"
       points="62000,36000 62500,36000 62500,35000 "
       id="polyline378" />
  </g>
  <g
     style="fill:#840000;fill-opacity:1;stroke:#840000;stroke-width:100;stroke-linecap:round;stroke-linejoin:round;stroke-opacity:1"
     id="g380"
     transform="matrix(4.5724782,0,0,4.5724782,-222679.71,-127755.04)">
    <polyline
       style="fill-rule:evenodd"
       points="63300,35500 63300,35400 63100,35500 63300,35600 63300,35500 "
       id="polyline382" />
  </g>
  <g
     style="fill:#840000;fill-opacity:1;stroke:#840000;stroke-width:60;stroke-linecap:round;stroke-linejoin:round;stroke-opacity:1"
     id="g384"
     transform="translate(-48700.015,17108.949)" />
  <g
     style="fill:#840000;fill-opacity:0;stroke:#840000;stroke-width:60;stroke-linecap:round;stroke-linejoin:round;stroke-opacity:1"
     id="g386"
     transform="matrix(4.5724782,0,0,4.5724782,-222679.71,-127755.04)">
    <path
       d="m 64000,35500 0,0"
       id="path388"
       inkscape:connector-curvature="0" />
    <path
       d="m 64000,35000 0,0"
       id="path390"
       inkscape:connector-curvature="0" />
    <path
       d="m 62000,36000 0,0"
       id="path392"
       inkscape:connector-curvature="0" />
    <path
       d="m 64000,36000 0,0"
       id="path394"
       inkscape:connector-curvature="0" />
  </g>
  <g
     style="fill:#008484;fill-opacity:0;stroke:#008484;stroke-width:60;stroke-linecap:round;stroke-linejoin:round;stroke-opacity:1"
     id="g396"
     transform="matrix(4.5724782,0,0,4.5724782,-222679.71,-127755.04)">
    <path
       d="m 62600,34260 0,-500 170,350 160,-350 0,500"
       id="path398"
       inkscape:connector-curvature="0" />
    <path
       d="m 63150,33800 20,-20 50,-20 120,0 40,20 30,20 20,50 0,50 -20,70 -290,290 310,0"
       id="path400"
       inkscape:connector-curvature="0" />
    <path
       d="m 61130,36810 90,400 80,-280 70,280 100,-400"
       id="path402"
       inkscape:connector-curvature="0" />
    <path
       d="m 61630,37000 300,0"
       id="path404"
       inkscape:connector-curvature="0" />
    <path
       d="m 61930,37120 -300,0"
       id="path406"
       inkscape:connector-curvature="0" />
    <path
       d="m 62320,36810 -190,0 -20,190 20,-20 30,-20 100,0 40,20 20,20 10,40 0,90 -10,40 -20,20 -40,20 -100,0 -30,-20 -20,-20"
       id="path408"
       inkscape:connector-curvature="0" />
    <path
       d="m 62680,36940 0,270"
       id="path410"
       inkscape:connector-curvature="0" />
    <path
       d="m 62510,36940 0,210 10,40 40,20 60,0 40,-20 20,-20"
       id="path412"
       inkscape:connector-curvature="0" />
    <path
       d="m 63360,37210 -190,0 0,-400"
       id="path414"
       inkscape:connector-curvature="0" />
    <path
       d="m 63490,37000 300,0"
       id="path416"
       inkscape:connector-curvature="0" />
    <path
       d="m 63790,37120 -300,0"
       id="path418"
       inkscape:connector-curvature="0" />
    <path
       d="m 63970,36850 20,-20 30,-20 100,0 40,20 20,20 10,40 0,40 -10,50 -230,230 240,0"
       id="path420"
       inkscape:connector-curvature="0" />
    <path
       d="m 64540,36940 0,270"
       id="path422"
       inkscape:connector-curvature="0" />
    <path
       d="m 64370,36940 0,210 10,40 40,20 60,0 40,-20 20,-20"
       id="path424"
       inkscape:connector-curvature="0" />
  </g>
  <g
     style="fill:#008400;fill-opacity:0;stroke:#008400;stroke-width:60;stroke-linecap:round;stroke-linejoin:round;stroke-opacity:1"
     id="g426"
     transform="matrix(4.5724782,0,0,4.5724782,-222679.71,-127755.04)">
    <path
       d="m 64000,35500 0,2500"
       id="path428"
       inkscape:connector-curvature="0" />
  </g>
  <g
     style="fill:#008400;fill-opacity:0;stroke:#008400;stroke-width:0;stroke-linecap:round;stroke-linejoin:round;stroke-opacity:1"
     id="g430"
     transform="translate(-48700.015,17108.949)" />
  <g
     style="fill:#008400;fill-opacity:1;stroke:#008400;stroke-width:100;stroke-linecap:round;stroke-linejoin:round;stroke-opacity:1"
     id="g432"
     transform="matrix(4.5724782,0,0,4.5724782,-222679.71,-127755.04)">
    <circle
       cx="64000"
       cy="36000"
       r="200"
       id="circle434"
       sodipodi:cx="64000"
       sodipodi:cy="36000"
       sodipodi:rx="200"
       sodipodi:ry="200"
       d="m 64200,36000 c 0,110.457 -89.543,200 -200,200 -110.457,0 -200,-89.543 -200,-200 0,-110.457 89.543,-200 200,-200 110.457,0 200,89.543 200,200 z" />
  </g>
</svg>
