<?xml version="1.0" encoding="UTF-8" standalone="no"?>
<svg
   xmlns:dc="http://purl.org/dc/elements/1.1/"
   xmlns:cc="http://creativecommons.org/ns#"
   xmlns:rdf="http://www.w3.org/1999/02/22-rdf-syntax-ns#"
   xmlns:svg="http://www.w3.org/2000/svg"
   xmlns="http://www.w3.org/2000/svg"
   xmlns:sodipodi="http://sodipodi.sourceforge.net/DTD/sodipodi-0.dtd"
   xmlns:inkscape="http://www.inkscape.org/namespaces/inkscape"
   version="1.1"
   width="800"
   height="592.87732"
   viewBox="0 0 88888.951 65875.323"
   id="svg2"
   inkscape:version="0.48.4 r9939"
   sodipodi:docname="wilson_current_mirror.sch.svg">
  <metadata
     id="metadata478">
    <rdf:RDF>
      <cc:Work
         rdf:about="">
        <dc:format>image/svg+xml</dc:format>
        <dc:type
           rdf:resource="http://purl.org/dc/dcmitype/StillImage" />
      </cc:Work>
    </rdf:RDF>
  </metadata>
  <defs
     id="defs476" />
  <sodipodi:namedview
     pagecolor="#ffffff"
     bordercolor="#666666"
     borderopacity="1"
     objecttolerance="10"
     gridtolerance="10"
     guidetolerance="10"
     inkscape:pageopacity="0"
     inkscape:pageshadow="2"
     inkscape:window-width="1280"
     inkscape:window-height="750"
     id="namedview474"
     showgrid="false"
     fit-margin-top="0"
     fit-margin-left="0"
     fit-margin-right="0"
     fit-margin-bottom="0"
     inkscape:zoom="0.25751417"
     inkscape:cx="-565.71022"
     inkscape:cy="269.17019"
     inkscape:window-x="0"
     inkscape:window-y="0"
     inkscape:window-maximized="1"
     inkscape:current-layer="svg2" />
  <title
     id="title4">SVG Picture created as wilson_current_mirror.sch.svg date 2017/09/20 16:09:06 </title>
  <desc
     id="desc6">Picture generated by Eeschema-SVG </desc>
  <g
     style="fill:#000000;fill-opacity:1;stroke:#000000;stroke-linecap:round;stroke-linejoin:round;stroke-opacity:1"
     id="g8"
     transform="translate(-36700.017,19825.324)" />
  <g
     style="fill:#000000;fill-opacity:0;stroke:#000000;stroke-width:0;stroke-linecap:round;stroke-linejoin:round;stroke-opacity:1"
     id="g10"
     transform="translate(-36700.017,19825.324)" />
  <g
     style="fill:#840000;fill-opacity:0;stroke:#840000;stroke-width:0;stroke-linecap:round;stroke-linejoin:round;stroke-opacity:1"
     id="g12"
     transform="translate(-36700.017,19825.324)" />
  <g
     style="fill:#840000;fill-opacity:0;stroke:#840000;stroke-width:100;stroke-linecap:round;stroke-linejoin:round;stroke-opacity:1"
     id="g14"
     transform="matrix(5.024815,0,0,5.024815,-184410.73,-165517.41)">
    <circle
       cx="38000"
       cy="33500"
       r="500"
       id="circle16"
       sodipodi:cx="38000"
       sodipodi:cy="33500"
       sodipodi:rx="500"
       sodipodi:ry="500"
       d="m 38500,33500 c 0,276.142 -223.858,500 -500,500 -276.142,0 -500,-223.858 -500,-500 0,-276.142 223.858,-500 500,-500 276.142,0 500,223.858 500,500 z" />
    <polyline
       fill="none;"
       points="38000,33750 38000,33250 "
       id="polyline18" />
    <polyline
       fill="none;"
       points="39000,33500 38500,33500 "
       id="polyline20" />
    <polyline
       fill="none;"
       points="38250,33500 37750,33500 "
       id="polyline22" />
  </g>
  <g
     style="fill:#840000;fill-opacity:0;stroke:#840000;stroke-width:60;stroke-linecap:round;stroke-linejoin:round;stroke-opacity:1"
     id="g24"
     transform="matrix(5.024815,0,0,5.024815,-184410.73,-165517.41)">
    <path
       d="m 39000,33500 0,0"
       id="path26"
       inkscape:connector-curvature="0" />
  </g>
  <g
     style="fill:#008484;fill-opacity:0;stroke:#008484;stroke-width:60;stroke-linecap:round;stroke-linejoin:round;stroke-opacity:1"
     id="g28"
     transform="matrix(5.024815,0,0,5.024815,-184410.73,-165517.41)">
    <path
       d="m 36730,33960 500,-160 -500,-170"
       id="path30"
       inkscape:connector-curvature="0" />
    <path
       d="m 37040,33460 0,-380"
       id="path32"
       inkscape:connector-curvature="0" />
    <path
       d="m 37230,33270 -380,0"
       id="path34"
       inkscape:connector-curvature="0" />
  </g>
  <g
     style="fill:#008484;fill-opacity:0;stroke:#008484;stroke-width:0;stroke-linecap:round;stroke-linejoin:round;stroke-opacity:1"
     id="g36"
     transform="translate(-36700.017,19825.324)" />
  <g
     style="fill:#840000;fill-opacity:0;stroke:#840000;stroke-width:0;stroke-linecap:round;stroke-linejoin:round;stroke-opacity:1"
     id="g38"
     transform="translate(-36700.017,19825.324)" />
  <g
     style="fill:#840000;fill-opacity:0;stroke:#840000;stroke-width:100;stroke-linecap:round;stroke-linejoin:round;stroke-opacity:1"
     id="g40"
     transform="matrix(5.024815,0,0,5.024815,-184410.73,-165517.41)">
    <circle
       cx="43500"
       cy="35500"
       r="1000"
       id="circle42"
       sodipodi:cx="43500"
       sodipodi:cy="35500"
       sodipodi:rx="1000"
       sodipodi:ry="1000"
       d="m 44500,35500 c 0,552.285 -447.715,1000 -1000,1000 -552.285,0 -1000,-447.715 -1000,-1000 0,-552.285 447.715,-1000 1000,-1000 552.285,0 1000,447.715 1000,1000 z" />
  </g>
  <g
     style="fill:#840000;fill-opacity:1;stroke:#840000;stroke-width:100;stroke-linecap:round;stroke-linejoin:round;stroke-opacity:1"
     id="g44"
     transform="matrix(5.024815,0,0,5.024815,-184410.73,-165517.41)">
    <polyline
       style="fill-rule:evenodd"
       points="43500,34750 43500,36250 43250,35750 43750,35750 43500,36250 "
       id="polyline46" />
  </g>
  <g
     style="fill:#840000;fill-opacity:1;stroke:#840000;stroke-width:60;stroke-linecap:round;stroke-linejoin:round;stroke-opacity:1"
     id="g48"
     transform="translate(-36700.017,19825.324)" />
  <g
     style="fill:#840000;fill-opacity:0;stroke:#840000;stroke-width:60;stroke-linecap:round;stroke-linejoin:round;stroke-opacity:1"
     id="g50"
     transform="matrix(5.024815,0,0,5.024815,-184410.73,-165517.41)">
    <path
       d="m 43500,34500 0,0"
       id="path52"
       inkscape:connector-curvature="0" />
    <path
       d="m 43500,36500 0,0"
       id="path54"
       inkscape:connector-curvature="0" />
  </g>
  <g
     style="fill:#008484;fill-opacity:0;stroke:#008484;stroke-width:60;stroke-linecap:round;stroke-linejoin:round;stroke-opacity:1"
     id="g56"
     transform="matrix(5.024815,0,0,5.024815,-184410.73,-165517.41)">
    <path
       d="m 45120,35480 0,-500"
       id="path58"
       inkscape:connector-curvature="0" />
    <path
       d="m 45620,35480 -280,0"
       id="path60"
       inkscape:connector-curvature="0" />
    <path
       d="m 45480,35480 0,-500 -50,70 -50,50 -40,20"
       id="path62"
       inkscape:connector-curvature="0" />
    <path
       d="m 44860,36040 -240,0 -20,230 20,-20 50,-20 120,0 40,20 30,20 20,50 0,120 -20,50 -30,20 -40,30 -120,0 -50,-30 -20,-20"
       id="path64"
       inkscape:connector-curvature="0" />
    <path
       d="m 45190,36040 50,0 50,20 20,20 30,50 20,100 0,120 -20,90 -30,50 -20,20 -50,30 -50,0 -40,-30 -30,-20 -20,-50 -20,-90 0,-120 20,-100 20,-50 30,-20 40,-20"
       id="path66"
       inkscape:connector-curvature="0" />
    <path
       d="m 45790,36200 0,340"
       id="path68"
       inkscape:connector-curvature="0" />
    <path
       d="m 45580,36200 0,260 20,50 50,30 70,0 50,-30 20,-20"
       id="path70"
       inkscape:connector-curvature="0" />
    <path
       d="m 46010,36390 230,0"
       id="path72"
       inkscape:connector-curvature="0" />
    <path
       d="m 45960,36540 160,-500 170,500"
       id="path74"
       inkscape:connector-curvature="0" />
  </g>
  <g
     style="fill:#008484;fill-opacity:0;stroke:#008484;stroke-width:0;stroke-linecap:round;stroke-linejoin:round;stroke-opacity:1"
     id="g76"
     transform="translate(-36700.017,19825.324)" />
  <g
     style="fill:#840000;fill-opacity:0;stroke:#840000;stroke-width:0;stroke-linecap:round;stroke-linejoin:round;stroke-opacity:1"
     id="g78"
     transform="translate(-36700.017,19825.324)" />
  <g
     style="fill:#840000;fill-opacity:0;stroke:#840000;stroke-width:100;stroke-linecap:round;stroke-linejoin:round;stroke-opacity:1"
     id="g80"
     transform="matrix(5.024815,0,0,5.024815,-184410.73,-165517.41)">
    <circle
       cx="43900"
       cy="41500"
       r="1080"
       id="circle82"
       sodipodi:cx="43900"
       sodipodi:cy="41500"
       sodipodi:rx="1080"
       sodipodi:ry="1080"
       d="m 44980,41500 c 0,596.468 -483.532,1080 -1080,1080 -596.468,0 -1080,-483.532 -1080,-1080 0,-596.468 483.532,-1080 1080,-1080 596.468,0 1080,483.532 1080,1080 z" />
    <polyline
       fill="none;"
       points="44500,42200 44500,40800 "
       id="polyline84" />
    <polyline
       fill="none;"
       points="44500,41500 45000,41500 "
       id="polyline86" />
    <polyline
       fill="none;"
       points="43500,42500 44500,42000 "
       id="polyline88" />
    <polyline
       fill="none;"
       points="43500,40500 44500,41000 "
       id="polyline90" />
  </g>
  <g
     style="fill:#840000;fill-opacity:1;stroke:#840000;stroke-width:100;stroke-linecap:round;stroke-linejoin:round;stroke-opacity:1"
     id="g92"
     transform="matrix(5.024815,0,0,5.024815,-184410.73,-165517.41)">
    <polyline
       style="fill-rule:evenodd"
       points="44300,42100 44250,42000 44100,42200 44350,42200 44300,42100 "
       id="polyline94" />
  </g>
  <g
     style="fill:#840000;fill-opacity:1;stroke:#840000;stroke-width:60;stroke-linecap:round;stroke-linejoin:round;stroke-opacity:1"
     id="g96"
     transform="translate(-36700.017,19825.324)" />
  <g
     style="fill:#840000;fill-opacity:0;stroke:#840000;stroke-width:60;stroke-linecap:round;stroke-linejoin:round;stroke-opacity:1"
     id="g98"
     transform="matrix(5.024815,0,0,5.024815,-184410.73,-165517.41)">
    <path
       d="m 45000,41500 0,0"
       id="path100"
       inkscape:connector-curvature="0" />
    <path
       d="m 43500,40500 0,0"
       id="path102"
       inkscape:connector-curvature="0" />
    <path
       d="m 43500,42500 0,0"
       id="path104"
       inkscape:connector-curvature="0" />
  </g>
  <g
     style="fill:#008484;fill-opacity:0;stroke:#008484;stroke-width:60;stroke-linecap:round;stroke-linejoin:round;stroke-opacity:1"
     id="g106"
     transform="matrix(5.024815,0,0,5.024815,-184410.73,-165517.41)">
    <path
       d="m 42450,40770 -50,-20 -40,-50 -70,-70 -50,-20 -50,0"
       id="path108"
       inkscape:connector-curvature="0" />
    <path
       d="m 42210,40730 -40,-30 -50,-50 -20,-90 0,-170 20,-90 50,-50 40,-20 100,0 50,20 40,50 30,90 0,170 -30,90 -40,50 -50,30 -100,0"
       id="path110"
       inkscape:connector-curvature="0" />
    <path
       d="m 42900,40730 -280,0"
       id="path112"
       inkscape:connector-curvature="0" />
    <path
       d="m 42760,40730 0,-500 -50,70 -50,50 -40,20"
       id="path114"
       inkscape:connector-curvature="0" />
    <path
       d="m 41290,42450 0,340"
       id="path116"
       inkscape:connector-curvature="0" />
    <path
       d="m 41290,42500 20,-20 50,-30 70,0 50,30 20,40 0,270"
       id="path118"
       inkscape:connector-curvature="0" />
    <path
       d="m 41740,42450 0,500"
       id="path120"
       inkscape:connector-curvature="0" />
    <path
       d="m 41740,42480 50,-30 90,0 50,30 20,20 30,50 0,140 -30,50 -20,20 -50,30 -90,0 -50,-30"
       id="path122"
       inkscape:connector-curvature="0" />
    <path
       d="m 42190,42450 0,340"
       id="path124"
       inkscape:connector-curvature="0" />
    <path
       d="m 42190,42500 20,-20 50,-30 70,0 50,30 20,40 0,270"
       id="path126"
       inkscape:connector-curvature="0" />
    <path
       d="m 42900,42790 -280,0"
       id="path128"
       inkscape:connector-curvature="0" />
    <path
       d="m 42760,42790 0,-500 -50,70 -50,50 -40,20"
       id="path130"
       inkscape:connector-curvature="0" />
  </g>
  <g
     style="fill:#008484;fill-opacity:0;stroke:#008484;stroke-width:0;stroke-linecap:round;stroke-linejoin:round;stroke-opacity:1"
     id="g132"
     transform="translate(-36700.017,19825.324)" />
  <g
     style="fill:#840000;fill-opacity:0;stroke:#840000;stroke-width:0;stroke-linecap:round;stroke-linejoin:round;stroke-opacity:1"
     id="g134"
     transform="translate(-36700.017,19825.324)" />
  <g
     style="fill:#840000;fill-opacity:0;stroke:#840000;stroke-width:100;stroke-linecap:round;stroke-linejoin:round;stroke-opacity:1"
     id="g136"
     transform="matrix(5.024815,0,0,5.024815,-184410.73,-165517.41)">
    <circle
       cx="49100"
       cy="41500"
       r="1080"
       id="circle138"
       sodipodi:cx="49100"
       sodipodi:cy="41500"
       sodipodi:rx="1080"
       sodipodi:ry="1080"
       d="m 50180,41500 c 0,596.468 -483.532,1080 -1080,1080 -596.468,0 -1080,-483.532 -1080,-1080 0,-596.468 483.532,-1080 1080,-1080 596.468,0 1080,483.532 1080,1080 z" />
    <polyline
       fill="none;"
       points="48500,42200 48500,40800 "
       id="polyline140" />
    <polyline
       fill="none;"
       points="48500,41500 48000,41500 "
       id="polyline142" />
    <polyline
       fill="none;"
       points="49500,42500 48500,42000 "
       id="polyline144" />
    <polyline
       fill="none;"
       points="49500,40500 48500,41000 "
       id="polyline146" />
  </g>
  <g
     style="fill:#840000;fill-opacity:1;stroke:#840000;stroke-width:100;stroke-linecap:round;stroke-linejoin:round;stroke-opacity:1"
     id="g148"
     transform="matrix(5.024815,0,0,5.024815,-184410.73,-165517.41)">
    <polyline
       style="fill-rule:evenodd"
       points="48700,42100 48750,42000 48900,42200 48650,42200 48700,42100 "
       id="polyline150" />
  </g>
  <g
     style="fill:#840000;fill-opacity:1;stroke:#840000;stroke-width:60;stroke-linecap:round;stroke-linejoin:round;stroke-opacity:1"
     id="g152"
     transform="translate(-36700.017,19825.324)" />
  <g
     style="fill:#840000;fill-opacity:0;stroke:#840000;stroke-width:60;stroke-linecap:round;stroke-linejoin:round;stroke-opacity:1"
     id="g154"
     transform="matrix(5.024815,0,0,5.024815,-184410.73,-165517.41)">
    <path
       d="m 48000,41500 0,0"
       id="path156"
       inkscape:connector-curvature="0" />
    <path
       d="m 49500,40500 0,0"
       id="path158"
       inkscape:connector-curvature="0" />
    <path
       d="m 49500,42500 0,0"
       id="path160"
       inkscape:connector-curvature="0" />
  </g>
  <g
     style="fill:#008484;fill-opacity:0;stroke:#008484;stroke-width:60;stroke-linecap:round;stroke-linejoin:round;stroke-opacity:1"
     id="g162"
     transform="matrix(5.024815,0,0,5.024815,-184410.73,-165517.41)">
    <path
       d="m 50450,40770 -50,-20 -40,-50 -70,-70 -50,-20 -50,0"
       id="path164"
       inkscape:connector-curvature="0" />
    <path
       d="m 50210,40730 -40,-30 -50,-50 -20,-90 0,-170 20,-90 50,-50 40,-20 100,0 50,20 40,50 30,90 0,170 -30,90 -40,50 -50,30 -100,0"
       id="path166"
       inkscape:connector-curvature="0" />
    <path
       d="m 50620,40270 20,-20 50,-20 120,0 40,20 30,20 20,50 0,50 -20,70 -290,290 310,0"
       id="path168"
       inkscape:connector-curvature="0" />
    <path
       d="m 50120,42450 0,340"
       id="path170"
       inkscape:connector-curvature="0" />
    <path
       d="m 50120,42500 20,-20 50,-30 70,0 50,30 20,40 0,270"
       id="path172"
       inkscape:connector-curvature="0" />
    <path
       d="m 50570,42450 0,500"
       id="path174"
       inkscape:connector-curvature="0" />
    <path
       d="m 50570,42480 50,-30 90,0 50,30 20,20 30,50 0,140 -30,50 -20,20 -50,30 -90,0 -50,-30"
       id="path176"
       inkscape:connector-curvature="0" />
    <path
       d="m 51020,42450 0,340"
       id="path178"
       inkscape:connector-curvature="0" />
    <path
       d="m 51020,42500 20,-20 50,-30 70,0 50,30 20,40 0,270"
       id="path180"
       inkscape:connector-curvature="0" />
    <path
       d="m 51730,42790 -280,0"
       id="path182"
       inkscape:connector-curvature="0" />
    <path
       d="m 51590,42790 0,-500 -50,70 -50,50 -40,20"
       id="path184"
       inkscape:connector-curvature="0" />
  </g>
  <g
     style="fill:#008400;fill-opacity:0;stroke:#008400;stroke-width:60;stroke-linecap:round;stroke-linejoin:round;stroke-opacity:1"
     id="g186"
     transform="matrix(5.024815,0,0,5.024815,-184410.73,-165517.41)">
    <path
       d="m 45000,41500 3000,0"
       id="path188"
       inkscape:connector-curvature="0" />
  </g>
  <g
     style="fill:#008400;fill-opacity:0;stroke:#008400;stroke-width:0;stroke-linecap:round;stroke-linejoin:round;stroke-opacity:1"
     id="g190"
     transform="translate(-36700.017,19825.324)" />
  <g
     style="fill:#840000;fill-opacity:0;stroke:#840000;stroke-width:0;stroke-linecap:round;stroke-linejoin:round;stroke-opacity:1"
     id="g192"
     transform="translate(-36700.017,19825.324)" />
  <g
     style="fill:#840000;fill-opacity:0;stroke:#840000;stroke-width:100;stroke-linecap:round;stroke-linejoin:round;stroke-opacity:1"
     id="g194"
     transform="matrix(5.024815,0,0,5.024815,-184410.73,-165517.41)">
    <circle
       cx="53000"
       cy="39500"
       r="1000"
       id="circle196"
       sodipodi:cx="53000"
       sodipodi:cy="39500"
       sodipodi:rx="1000"
       sodipodi:ry="1000"
       d="m 54000,39500 c 0,552.285 -447.715,1000 -1000,1000 -552.285,0 -1000,-447.715 -1000,-1000 0,-552.285 447.715,-1000 1000,-1000 552.285,0 1000,447.715 1000,1000 z" />
    <polyline
       fill="none;"
       points="52750,40000 53250,40000 "
       id="polyline198" />
    <polyline
       fill="none;"
       points="53000,39250 53000,38750 "
       id="polyline200" />
    <polyline
       fill="none;"
       points="53250,39000 52750,39000 "
       id="polyline202" />
  </g>
  <g
     style="fill:#840000;fill-opacity:0;stroke:#840000;stroke-width:60;stroke-linecap:round;stroke-linejoin:round;stroke-opacity:1"
     id="g204"
     transform="matrix(5.024815,0,0,5.024815,-184410.73,-165517.41)">
    <path
       d="m 53000,38500 0,0"
       id="path206"
       inkscape:connector-curvature="0" />
    <path
       d="m 53000,40500 0,0"
       id="path208"
       inkscape:connector-curvature="0" />
  </g>
  <g
     style="fill:#008484;fill-opacity:0;stroke:#008484;stroke-width:60;stroke-linecap:round;stroke-linejoin:round;stroke-opacity:1"
     id="g210"
     transform="matrix(5.024815,0,0,5.024815,-184410.73,-165517.41)">
    <path
       d="m 53550,37980 160,500 170,-500"
       id="path212"
       inkscape:connector-curvature="0" />
    <path
       d="m 54030,38020 20,-20 50,-20 120,0 40,20 30,20 20,50 0,50 -20,70 -290,290 310,0"
       id="path214"
       inkscape:connector-curvature="0" />
    <path
       d="m 53880,41040 -280,0"
       id="path216"
       inkscape:connector-curvature="0" />
    <path
       d="m 53740,41040 0,-500 -50,70 -50,50 -40,20"
       id="path218"
       inkscape:connector-curvature="0" />
    <path
       d="m 54030,40540 160,500 170,-500"
       id="path220"
       inkscape:connector-curvature="0" />
  </g>
  <g
     style="fill:#008484;fill-opacity:0;stroke:#008484;stroke-width:0;stroke-linecap:round;stroke-linejoin:round;stroke-opacity:1"
     id="g222"
     transform="translate(-36700.017,19825.324)" />
  <g
     style="fill:#840000;fill-opacity:0;stroke:#840000;stroke-width:0;stroke-linecap:round;stroke-linejoin:round;stroke-opacity:1"
     id="g224"
     transform="translate(-36700.017,19825.324)" />
  <g
     style="fill:#840000;fill-opacity:0;stroke:#840000;stroke-width:100;stroke-linecap:round;stroke-linejoin:round;stroke-opacity:1"
     id="g226"
     transform="matrix(5.024815,0,0,5.024815,-184410.73,-165517.41)">
    <circle
       cx="40000"
       cy="38500"
       r="1000"
       id="circle228"
       sodipodi:cx="40000"
       sodipodi:cy="38500"
       sodipodi:rx="1000"
       sodipodi:ry="1000"
       d="m 41000,38500 c 0,552.285 -447.715,1000 -1000,1000 -552.285,0 -1000,-447.715 -1000,-1000 0,-552.285 447.715,-1000 1000,-1000 552.285,0 1000,447.715 1000,1000 z" />
    <polyline
       fill="none;"
       points="39750,39000 40250,39000 "
       id="polyline230" />
    <polyline
       fill="none;"
       points="40000,38250 40000,37750 "
       id="polyline232" />
    <polyline
       fill="none;"
       points="40250,38000 39750,38000 "
       id="polyline234" />
  </g>
  <g
     style="fill:#840000;fill-opacity:0;stroke:#840000;stroke-width:60;stroke-linecap:round;stroke-linejoin:round;stroke-opacity:1"
     id="g236"
     transform="matrix(5.024815,0,0,5.024815,-184410.73,-165517.41)">
    <path
       d="m 40000,37500 0,0"
       id="path238"
       inkscape:connector-curvature="0" />
    <path
       d="m 40000,39500 0,0"
       id="path240"
       inkscape:connector-curvature="0" />
  </g>
  <g
     style="fill:#008484;fill-opacity:0;stroke:#008484;stroke-width:60;stroke-linecap:round;stroke-linejoin:round;stroke-opacity:1"
     id="g242"
     transform="matrix(5.024815,0,0,5.024815,-184410.73,-165517.41)">
    <path
       d="m 38140,37480 160,500 170,-500"
       id="path244"
       inkscape:connector-curvature="0" />
    <path
       d="m 38900,37980 -280,0"
       id="path246"
       inkscape:connector-curvature="0" />
    <path
       d="m 38760,37980 0,-500 -50,70 -50,50 -40,20"
       id="path248"
       inkscape:connector-curvature="0" />
    <path
       d="m 38450,39040 -240,0 -20,230 20,-20 50,-20 120,0 40,20 30,20 20,50 0,120 -20,50 -30,20 -40,30 -120,0 -50,-30 -20,-20"
       id="path250"
       inkscape:connector-curvature="0" />
    <path
       d="m 38620,39040 160,500 170,-500"
       id="path252"
       inkscape:connector-curvature="0" />
  </g>
  <g
     style="fill:#008484;fill-opacity:0;stroke:#008484;stroke-width:0;stroke-linecap:round;stroke-linejoin:round;stroke-opacity:1"
     id="g254"
     transform="translate(-36700.017,19825.324)" />
  <g
     style="fill:#840000;fill-opacity:0;stroke:#840000;stroke-width:0;stroke-linecap:round;stroke-linejoin:round;stroke-opacity:1"
     id="g256"
     transform="translate(-36700.017,19825.324)" />
  <g
     style="fill:#840000;fill-opacity:0;stroke:#840000;stroke-width:100;stroke-linecap:round;stroke-linejoin:round;stroke-opacity:1"
     id="g258"
     transform="matrix(5.024815,0,0,5.024815,-184410.73,-165517.41)">
    <polyline
       fill="none;"
       points="45750,45500 47250,45500 "
       id="polyline260" />
    <polyline
       fill="none;"
       points="46000,45750 47000,45750 "
       id="polyline262" />
    <polyline
       fill="none;"
       points="46250,46000 46750,46000 "
       id="polyline264" />
    <polyline
       fill="none;"
       points="46500,44500 46500,45500 "
       id="polyline266" />
  </g>
  <g
     style="fill:#840000;fill-opacity:0;stroke:#840000;stroke-width:60;stroke-linecap:round;stroke-linejoin:round;stroke-opacity:1"
     id="g268"
     transform="matrix(5.024815,0,0,5.024815,-184410.73,-165517.41)">
    <path
       d="m 46500,44500 0,0"
       id="path270"
       inkscape:connector-curvature="0" />
  </g>
  <g
     style="fill:#000000;fill-opacity:0;stroke:#000000;stroke-width:60;stroke-linecap:round;stroke-linejoin:round;stroke-opacity:1"
     id="g272"
     transform="matrix(5.024815,0,0,5.024815,-184410.73,-165517.41)">
    <path
       d="m 40640,32970 0,400"
       id="path274"
       inkscape:connector-curvature="0" />
    <path
       d="m 40640,33030 30,-30 60,-30 80,0 60,30 30,60 0,310"
       id="path276"
       inkscape:connector-curvature="0" />
    <path
       d="m 41040,33430 460,0"
       id="path278"
       inkscape:connector-curvature="0" />
    <path
       d="m 41640,32970 0,600"
       id="path280"
       inkscape:connector-curvature="0" />
    <path
       d="m 41640,33000 60,-30 110,0 60,30 30,30 30,60 0,170 -30,50 -30,30 -60,30 -110,0 -60,-30"
       id="path282"
       inkscape:connector-curvature="0" />
    <path
       d="m 42270,33370 -60,-30 -30,-30 -30,-50 0,-170 30,-60 30,-30 60,-30 80,0 60,30 30,30 30,60 0,170 -30,50 -30,30 -60,30 -80,0"
       id="path284"
       inkscape:connector-curvature="0" />
    <path
       d="m 42690,33340 60,30 120,0 50,-30 30,-50 0,-30 -30,-60 -50,-30 -90,0 -60,-30 -30,-50 0,-30 30,-60 60,-30 90,0 50,30"
       id="path286"
       inkscape:connector-curvature="0" />
    <path
       d="m 46640,38970 0,400"
       id="path288"
       inkscape:connector-curvature="0" />
    <path
       d="m 46640,39030 30,-30 60,-30 80,0 60,30 30,60 0,310"
       id="path290"
       inkscape:connector-curvature="0" />
    <path
       d="m 47500,39370 -350,0"
       id="path292"
       inkscape:connector-curvature="0" />
    <path
       d="m 47330,39370 0,-600 -60,90 -60,50 -60,30"
       id="path294"
       inkscape:connector-curvature="0" />
    <path
       d="m 46760,42770 50,0 60,30 30,30 30,60 30,110 0,140 -30,120 -30,50 -30,30 -60,30 -50,0 -60,-30 -30,-30 -30,-50 -30,-120 0,-140 30,-110 30,-60 30,-30 60,-30"
       id="path296"
       inkscape:connector-curvature="0" />
    <path
       d="m 49640,34970 0,400"
       id="path298"
       inkscape:connector-curvature="0" />
    <path
       d="m 49640,35030 30,-30 60,-30 80,0 60,30 30,60 0,310"
       id="path300"
       inkscape:connector-curvature="0" />
    <path
       d="m 50150,34830 30,-30 60,-30 140,0 60,30 30,30 30,60 0,50 -30,90 -340,340 370,0"
       id="path302"
       inkscape:connector-curvature="0" />
  </g>
  <g
     style="fill:#008400;fill-opacity:0;stroke:#008400;stroke-width:60;stroke-linecap:round;stroke-linejoin:round;stroke-opacity:1"
     id="g304"
     transform="matrix(5.024815,0,0,5.024815,-184410.73,-165517.41)">
    <path
       d="m 43500,36500 0,4000"
       id="path306"
       inkscape:connector-curvature="0" />
  </g>
  <g
     style="fill:#008400;fill-opacity:0;stroke:#008400;stroke-width:0;stroke-linecap:round;stroke-linejoin:round;stroke-opacity:1"
     id="g308"
     transform="translate(-36700.017,19825.324)" />
  <g
     style="fill:#840000;fill-opacity:0;stroke:#840000;stroke-width:0;stroke-linecap:round;stroke-linejoin:round;stroke-opacity:1"
     id="g310"
     transform="translate(-36700.017,19825.324)" />
  <g
     style="fill:#840000;fill-opacity:0;stroke:#840000;stroke-width:100;stroke-linecap:round;stroke-linejoin:round;stroke-opacity:1"
     id="g312"
     transform="matrix(5.024815,0,0,5.024815,-184410.73,-165517.41)">
    <circle
       cx="49100"
       cy="37500"
       r="1080"
       id="circle314"
       sodipodi:cx="49100"
       sodipodi:cy="37500"
       sodipodi:rx="1080"
       sodipodi:ry="1080"
       d="m 50180,37500 c 0,596.468 -483.532,1080 -1080,1080 -596.468,0 -1080,-483.532 -1080,-1080 0,-596.468 483.532,-1080 1080,-1080 596.468,0 1080,483.532 1080,1080 z" />
    <polyline
       fill="none;"
       points="48500,38200 48500,36800 "
       id="polyline316" />
    <polyline
       fill="none;"
       points="48500,37500 48000,37500 "
       id="polyline318" />
    <polyline
       fill="none;"
       points="49500,38500 48500,38000 "
       id="polyline320" />
    <polyline
       fill="none;"
       points="49500,36500 48500,37000 "
       id="polyline322" />
  </g>
  <g
     style="fill:#840000;fill-opacity:1;stroke:#840000;stroke-width:100;stroke-linecap:round;stroke-linejoin:round;stroke-opacity:1"
     id="g324"
     transform="matrix(5.024815,0,0,5.024815,-184410.73,-165517.41)">
    <polyline
       style="fill-rule:evenodd"
       points="48700,38100 48750,38000 48900,38200 48650,38200 48700,38100 "
       id="polyline326" />
  </g>
  <g
     style="fill:#840000;fill-opacity:1;stroke:#840000;stroke-width:60;stroke-linecap:round;stroke-linejoin:round;stroke-opacity:1"
     id="g328"
     transform="translate(-36700.017,19825.324)" />
  <g
     style="fill:#840000;fill-opacity:0;stroke:#840000;stroke-width:60;stroke-linecap:round;stroke-linejoin:round;stroke-opacity:1"
     id="g330"
     transform="matrix(5.024815,0,0,5.024815,-184410.73,-165517.41)">
    <path
       d="m 48000,37500 0,0"
       id="path332"
       inkscape:connector-curvature="0" />
    <path
       d="m 49500,36500 0,0"
       id="path334"
       inkscape:connector-curvature="0" />
    <path
       d="m 49500,38500 0,0"
       id="path336"
       inkscape:connector-curvature="0" />
  </g>
  <g
     style="fill:#008484;fill-opacity:0;stroke:#008484;stroke-width:60;stroke-linecap:round;stroke-linejoin:round;stroke-opacity:1"
     id="g338"
     transform="matrix(5.024815,0,0,5.024815,-184410.73,-165517.41)">
    <path
       d="m 50450,36770 -50,-20 -40,-50 -70,-70 -50,-20 -50,0"
       id="path340"
       inkscape:connector-curvature="0" />
    <path
       d="m 50210,36730 -40,-30 -50,-50 -20,-90 0,-170 20,-90 50,-50 40,-20 100,0 50,20 40,50 30,90 0,170 -30,90 -40,50 -50,30 -100,0"
       id="path342"
       inkscape:connector-curvature="0" />
    <path
       d="m 50590,36230 310,0 -170,190 80,0 40,20 30,20 20,50 0,120 -20,50 -30,20 -40,30 -150,0 -40,-30 -30,-20"
       id="path344"
       inkscape:connector-curvature="0" />
    <path
       d="m 50120,38450 0,340"
       id="path346"
       inkscape:connector-curvature="0" />
    <path
       d="m 50120,38500 20,-20 50,-30 70,0 50,30 20,40 0,270"
       id="path348"
       inkscape:connector-curvature="0" />
    <path
       d="m 50570,38450 0,500"
       id="path350"
       inkscape:connector-curvature="0" />
    <path
       d="m 50570,38480 50,-30 90,0 50,30 20,20 30,50 0,140 -30,50 -20,20 -50,30 -90,0 -50,-30"
       id="path352"
       inkscape:connector-curvature="0" />
    <path
       d="m 51020,38450 0,340"
       id="path354"
       inkscape:connector-curvature="0" />
    <path
       d="m 51020,38500 20,-20 50,-30 70,0 50,30 20,40 0,270"
       id="path356"
       inkscape:connector-curvature="0" />
    <path
       d="m 51730,38790 -280,0"
       id="path358"
       inkscape:connector-curvature="0" />
    <path
       d="m 51590,38790 0,-500 -50,70 -50,50 -40,20"
       id="path360"
       inkscape:connector-curvature="0" />
  </g>
  <g
     style="fill:#008484;fill-opacity:0;stroke:#008484;stroke-width:0;stroke-linecap:round;stroke-linejoin:round;stroke-opacity:1"
     id="g362"
     transform="translate(-36700.017,19825.324)" />
  <g
     style="fill:#008400;fill-opacity:0;stroke:#008400;stroke-width:0;stroke-linecap:round;stroke-linejoin:round;stroke-opacity:1"
     id="g364"
     transform="translate(-36700.017,19825.324)" />
  <g
     style="fill:#008400;fill-opacity:1;stroke:#008400;stroke-width:100;stroke-linecap:round;stroke-linejoin:round;stroke-opacity:1"
     id="g366"
     transform="matrix(5.024815,0,0,5.024815,-184410.73,-165517.41)">
    <circle
       cx="46500"
       cy="41500"
       r="200"
       id="circle368"
       sodipodi:cx="46500"
       sodipodi:cy="41500"
       sodipodi:rx="200"
       sodipodi:ry="200"
       d="m 46700,41500 c 0,110.457 -89.543,200 -200,200 -110.457,0 -200,-89.543 -200,-200 0,-110.457 89.543,-200 200,-200 110.457,0 200,89.543 200,200 z" />
  </g>
  <g
     style="fill:#008400;fill-opacity:1;stroke:#008400;stroke-width:60;stroke-linecap:round;stroke-linejoin:round;stroke-opacity:1"
     id="g370"
     transform="translate(-36700.017,19825.324)" />
  <g
     style="fill:#008400;fill-opacity:0;stroke:#008400;stroke-width:60;stroke-linecap:round;stroke-linejoin:round;stroke-opacity:1"
     id="g372"
     transform="matrix(5.024815,0,0,5.024815,-184410.73,-165517.41)">
    <path
       d="m 49500,38500 0,2000"
       id="path374"
       inkscape:connector-curvature="0" />
    <path
       d="m 49500,39500 -3000,0"
       id="path376"
       inkscape:connector-curvature="0" />
    <path
       d="m 46500,39500 0,2000"
       id="path378"
       inkscape:connector-curvature="0" />
  </g>
  <g
     style="fill:#008400;fill-opacity:0;stroke:#008400;stroke-width:0;stroke-linecap:round;stroke-linejoin:round;stroke-opacity:1"
     id="g380"
     transform="translate(-36700.017,19825.324)" />
  <g
     style="fill:#008400;fill-opacity:1;stroke:#008400;stroke-width:100;stroke-linecap:round;stroke-linejoin:round;stroke-opacity:1"
     id="g382"
     transform="matrix(5.024815,0,0,5.024815,-184410.73,-165517.41)">
    <circle
       cx="49500"
       cy="39500"
       r="200"
       id="circle384"
       sodipodi:cx="49500"
       sodipodi:cy="39500"
       sodipodi:rx="200"
       sodipodi:ry="200"
       d="m 49700,39500 c 0,110.457 -89.543,200 -200,200 -110.457,0 -200,-89.543 -200,-200 0,-110.457 89.543,-200 200,-200 110.457,0 200,89.543 200,200 z" />
  </g>
  <g
     style="fill:#008400;fill-opacity:1;stroke:#008400;stroke-width:60;stroke-linecap:round;stroke-linejoin:round;stroke-opacity:1"
     id="g386"
     transform="translate(-36700.017,19825.324)" />
  <g
     style="fill:#008400;fill-opacity:0;stroke:#008400;stroke-width:60;stroke-linecap:round;stroke-linejoin:round;stroke-opacity:1"
     id="g388"
     transform="matrix(5.024815,0,0,5.024815,-184410.73,-165517.41)">
    <path
       d="m 43500,33500 0,1000"
       id="path390"
       inkscape:connector-curvature="0" />
    <path
       d="m 48000,37500 -4500,0"
       id="path392"
       inkscape:connector-curvature="0" />
  </g>
  <g
     style="fill:#008400;fill-opacity:0;stroke:#008400;stroke-width:0;stroke-linecap:round;stroke-linejoin:round;stroke-opacity:1"
     id="g394"
     transform="translate(-36700.017,19825.324)" />
  <g
     style="fill:#008400;fill-opacity:1;stroke:#008400;stroke-width:100;stroke-linecap:round;stroke-linejoin:round;stroke-opacity:1"
     id="g396"
     transform="matrix(5.024815,0,0,5.024815,-184410.73,-165517.41)">
    <circle
       cx="43500"
       cy="37500"
       r="200"
       id="circle398"
       sodipodi:cx="43500"
       sodipodi:cy="37500"
       sodipodi:rx="200"
       sodipodi:ry="200"
       d="m 43700,37500 c 0,110.457 -89.543,200 -200,200 -110.457,0 -200,-89.543 -200,-200 0,-110.457 89.543,-200 200,-200 110.457,0 200,89.543 200,200 z" />
  </g>
  <g
     style="fill:#008400;fill-opacity:1;stroke:#008400;stroke-width:60;stroke-linecap:round;stroke-linejoin:round;stroke-opacity:1"
     id="g400"
     transform="translate(-36700.017,19825.324)" />
  <g
     style="fill:#008400;fill-opacity:0;stroke:#008400;stroke-width:60;stroke-linecap:round;stroke-linejoin:round;stroke-opacity:1"
     id="g402"
     transform="matrix(5.024815,0,0,5.024815,-184410.73,-165517.41)">
    <path
       d="m 49500,43500 0,-1000"
       id="path404"
       inkscape:connector-curvature="0" />
    <path
       d="m 43500,42500 0,1000"
       id="path406"
       inkscape:connector-curvature="0" />
  </g>
  <g
     style="fill:#008400;fill-opacity:0;stroke:#008400;stroke-width:0;stroke-linecap:round;stroke-linejoin:round;stroke-opacity:1"
     id="g408"
     transform="translate(-36700.017,19825.324)" />
  <g
     style="fill:#008400;fill-opacity:1;stroke:#008400;stroke-width:100;stroke-linecap:round;stroke-linejoin:round;stroke-opacity:1"
     id="g410"
     transform="matrix(5.024815,0,0,5.024815,-184410.73,-165517.41)">
    <circle
       cx="49500"
       cy="43500"
       r="200"
       id="circle412"
       sodipodi:cx="49500"
       sodipodi:cy="43500"
       sodipodi:rx="200"
       sodipodi:ry="200"
       d="m 49700,43500 c 0,110.457 -89.543,200 -200,200 -110.457,0 -200,-89.543 -200,-200 0,-110.457 89.543,-200 200,-200 110.457,0 200,89.543 200,200 z" />
  </g>
  <g
     style="fill:#008400;fill-opacity:1;stroke:#008400;stroke-width:60;stroke-linecap:round;stroke-linejoin:round;stroke-opacity:1"
     id="g414"
     transform="translate(-36700.017,19825.324)" />
  <g
     style="fill:#008400;fill-opacity:0;stroke:#008400;stroke-width:60;stroke-linecap:round;stroke-linejoin:round;stroke-opacity:1"
     id="g416"
     transform="matrix(5.024815,0,0,5.024815,-184410.73,-165517.41)">
    <path
       d="m 46500,43500 0,1000"
       id="path418"
       inkscape:connector-curvature="0" />
  </g>
  <g
     style="fill:#008400;fill-opacity:0;stroke:#008400;stroke-width:0;stroke-linecap:round;stroke-linejoin:round;stroke-opacity:1"
     id="g420"
     transform="translate(-36700.017,19825.324)" />
  <g
     style="fill:#008400;fill-opacity:1;stroke:#008400;stroke-width:100;stroke-linecap:round;stroke-linejoin:round;stroke-opacity:1"
     id="g422"
     transform="matrix(5.024815,0,0,5.024815,-184410.73,-165517.41)">
    <circle
       cx="46500"
       cy="43500"
       r="200"
       id="circle424"
       sodipodi:cx="46500"
       sodipodi:cy="43500"
       sodipodi:rx="200"
       sodipodi:ry="200"
       d="m 46700,43500 c 0,110.457 -89.543,200 -200,200 -110.457,0 -200,-89.543 -200,-200 0,-110.457 89.543,-200 200,-200 110.457,0 200,89.543 200,200 z" />
  </g>
  <g
     style="fill:#008400;fill-opacity:1;stroke:#008400;stroke-width:60;stroke-linecap:round;stroke-linejoin:round;stroke-opacity:1"
     id="g426"
     transform="translate(-36700.017,19825.324)" />
  <g
     style="fill:#008400;fill-opacity:0;stroke:#008400;stroke-width:60;stroke-linecap:round;stroke-linejoin:round;stroke-opacity:1"
     id="g428"
     transform="matrix(5.024815,0,0,5.024815,-184410.73,-165517.41)">
    <path
       d="m 40000,43500 13000,0"
       id="path430"
       inkscape:connector-curvature="0" />
  </g>
  <g
     style="fill:#008400;fill-opacity:0;stroke:#008400;stroke-width:0;stroke-linecap:round;stroke-linejoin:round;stroke-opacity:1"
     id="g432"
     transform="translate(-36700.017,19825.324)" />
  <g
     style="fill:#008400;fill-opacity:1;stroke:#008400;stroke-width:100;stroke-linecap:round;stroke-linejoin:round;stroke-opacity:1"
     id="g434"
     transform="matrix(5.024815,0,0,5.024815,-184410.73,-165517.41)">
    <circle
       cx="43500"
       cy="43500"
       r="200"
       id="circle436"
       sodipodi:cx="43500"
       sodipodi:cy="43500"
       sodipodi:rx="200"
       sodipodi:ry="200"
       d="m 43700,43500 c 0,110.457 -89.543,200 -200,200 -110.457,0 -200,-89.543 -200,-200 0,-110.457 89.543,-200 200,-200 110.457,0 200,89.543 200,200 z" />
  </g>
  <g
     style="fill:#008400;fill-opacity:1;stroke:#008400;stroke-width:60;stroke-linecap:round;stroke-linejoin:round;stroke-opacity:1"
     id="g438"
     transform="translate(-36700.017,19825.324)" />
  <g
     style="fill:#008400;fill-opacity:0;stroke:#008400;stroke-width:60;stroke-linecap:round;stroke-linejoin:round;stroke-opacity:1"
     id="g440"
     transform="matrix(5.024815,0,0,5.024815,-184410.73,-165517.41)">
    <path
       d="m 53000,43500 0,-3000"
       id="path442"
       inkscape:connector-curvature="0" />
    <path
       d="m 53000,38500 0,-3000"
       id="path444"
       inkscape:connector-curvature="0" />
    <path
       d="m 53000,35500 -3500,0"
       id="path446"
       inkscape:connector-curvature="0" />
    <path
       d="m 49500,35500 0,1000"
       id="path448"
       inkscape:connector-curvature="0" />
  </g>
  <g
     style="fill:#008400;fill-opacity:0;stroke:#008400;stroke-width:0;stroke-linecap:round;stroke-linejoin:round;stroke-opacity:1"
     id="g450"
     transform="translate(-36700.017,19825.324)" />
  <g
     style="fill:#008400;fill-opacity:1;stroke:#008400;stroke-width:100;stroke-linecap:round;stroke-linejoin:round;stroke-opacity:1"
     id="g452"
     transform="matrix(5.024815,0,0,5.024815,-184410.73,-165517.41)">
    <circle
       cx="40000"
       cy="33500"
       r="200"
       id="circle454"
       sodipodi:cx="40000"
       sodipodi:cy="33500"
       sodipodi:rx="200"
       sodipodi:ry="200"
       d="m 40200,33500 c 0,110.457 -89.543,200 -200,200 -110.457,0 -200,-89.543 -200,-200 0,-110.457 89.543,-200 200,-200 110.457,0 200,89.543 200,200 z" />
  </g>
  <g
     style="fill:#008400;fill-opacity:1;stroke:#008400;stroke-width:60;stroke-linecap:round;stroke-linejoin:round;stroke-opacity:1"
     id="g456"
     transform="translate(-36700.017,19825.324)" />
  <g
     style="fill:#008400;fill-opacity:0;stroke:#008400;stroke-width:60;stroke-linecap:round;stroke-linejoin:round;stroke-opacity:1"
     id="g458"
     transform="matrix(5.024815,0,0,5.024815,-184410.73,-165517.41)">
    <path
       d="m 40000,43500 0,-4000"
       id="path460"
       inkscape:connector-curvature="0" />
    <path
       d="m 40000,37500 0,-4000"
       id="path462"
       inkscape:connector-curvature="0" />
    <path
       d="m 39000,33500 4500,0"
       id="path464"
       inkscape:connector-curvature="0" />
  </g>
  <g
     style="fill:#000000;fill-opacity:0;stroke:#000000;stroke-width:60;stroke-linecap:round;stroke-linejoin:round;stroke-opacity:1"
     id="g466"
     transform="matrix(5.024815,0,0,5.024815,-184410.73,-165517.41)">
    <path
       d="m 43640,37970 0,400"
       id="path468"
       inkscape:connector-curvature="0" />
    <path
       d="m 43640,38030 30,-30 60,-30 80,0 60,30 30,60 0,310"
       id="path470"
       inkscape:connector-curvature="0" />
    <path
       d="m 44130,37770 370,0 -200,230 80,0 60,30 30,30 30,50 0,150 -30,50 -30,30 -60,30 -170,0 -60,-30 -20,-30"
       id="path472"
       inkscape:connector-curvature="0" />
  </g>
</svg>
