<?xml version="1.0" encoding="UTF-8" standalone="no"?>
<svg
   xmlns:dc="http://purl.org/dc/elements/1.1/"
   xmlns:cc="http://creativecommons.org/ns#"
   xmlns:rdf="http://www.w3.org/1999/02/22-rdf-syntax-ns#"
   xmlns:svg="http://www.w3.org/2000/svg"
   xmlns="http://www.w3.org/2000/svg"
   xmlns:sodipodi="http://sodipodi.sourceforge.net/DTD/sodipodi-0.dtd"
   xmlns:inkscape="http://www.inkscape.org/namespaces/inkscape"
   version="1.1"
   width="800.03693"
   height="682.52588"
   viewBox="0 0 88893.053 75836.283"
   id="svg2"
   inkscape:version="0.48.4 r9939"
   sodipodi:docname="example.svg">
  <metadata
     id="metadata598">
    <rdf:RDF>
      <cc:Work
         rdf:about="">
        <dc:format>image/svg+xml</dc:format>
        <dc:type
           rdf:resource="http://purl.org/dc/dcmitype/StillImage" />
      </cc:Work>
    </rdf:RDF>
  </metadata>
  <defs
     id="defs596" />
  <sodipodi:namedview
     pagecolor="#ffffff"
     bordercolor="#666666"
     borderopacity="1"
     objecttolerance="10"
     gridtolerance="10"
     guidetolerance="10"
     inkscape:pageopacity="0"
     inkscape:pageshadow="2"
     inkscape:window-width="1280"
     inkscape:window-height="750"
     id="namedview594"
     showgrid="true"
     units="cm"
     fit-margin-top="0"
     fit-margin-left="0"
     fit-margin-right="0"
     fit-margin-bottom="0"
     inkscape:zoom="0.51502833"
     inkscape:cx="-171.76649"
     inkscape:cy="319.04445"
     inkscape:window-x="0"
     inkscape:window-y="0"
     inkscape:window-maximized="1"
     inkscape:current-layer="svg2">
    <inkscape:grid
       type="xygrid"
       id="grid3575"
       empspacing="5"
       visible="true"
       enabled="true"
       snapvisiblegridlinesonly="true"
       originx="-963.86838px"
       originy="-948.5083px" />
  </sodipodi:namedview>
  <title
     id="title4">SVG Picture created as ce_amplifier.sch.svg date 2017/08/19 12:42:35 </title>
  <desc
     id="desc6">Picture generated by Eeschema-SVG </desc>
  <g
     style="fill:#000000;fill-opacity:1;stroke:#000000;stroke-linecap:round;stroke-linejoin:round;stroke-opacity:1"
     id="g8"
     transform="translate(-35697.253,28286.263)" />
  <g
     style="fill:#000000;fill-opacity:0;stroke:#000000;stroke-width:0;stroke-linecap:round;stroke-linejoin:round;stroke-opacity:1"
     id="g10"
     transform="translate(-35697.253,28286.263)" />
  <g
     style="fill:#840000;fill-opacity:0;stroke:#840000;stroke-width:0;stroke-linecap:round;stroke-linejoin:round;stroke-opacity:1"
     id="g12"
     transform="translate(-35697.253,28286.263)" />
  <g
     style="fill:#840000;fill-opacity:0;stroke:#840000;stroke-width:100;stroke-linecap:round;stroke-linejoin:round;stroke-opacity:1"
     id="g14"
     transform="matrix(3.9558957,0,0,3.9558957,-141222.73,-112266.58)">
    <polyline
       fill="none;"
       points="54500,42000 54800,41900 54200,41700 54800,41500 54500,41400 54500,41000 "
       id="polyline16" />
    <polyline
       fill="none;"
       points="54500,42000 54200,42100 54800,42300 54200,42500 54500,42600 54500,43000 "
       id="polyline18" />
  </g>
  <g
     style="fill:#840000;fill-opacity:0;stroke:#840000;stroke-width:60;stroke-linecap:round;stroke-linejoin:round;stroke-opacity:1"
     id="g20"
     transform="matrix(3.9558957,0,0,3.9558957,-141222.73,-112266.58)">
    <path
       d="m 54500,41000 0,0"
       id="path22"
       inkscape:connector-curvature="0" />
    <path
       d="m 54500,43000 0,0"
       id="path24"
       inkscape:connector-curvature="0" />
  </g>
  <g
     style="fill:#008484;fill-opacity:0;stroke:#008484;stroke-width:60;stroke-linecap:round;stroke-linejoin:round;stroke-opacity:1"
     id="g26"
     transform="matrix(3.9558957,0,0,3.9558957,-141222.73,-112266.58)">
    <path
       d="m 55520,42040 -240,160"
       id="path28"
       inkscape:connector-curvature="0" />
    <path
       d="m 55520,42320 -500,0 0,-190 20,-50 20,-20 50,-20 70,0 50,20 20,20 30,50 0,190"
       id="path30"
       inkscape:connector-curvature="0" />
    <path
       d="m 55180,41610 340,0"
       id="path32"
       inkscape:connector-curvature="0" />
    <path
       d="m 54990,41730 360,110 0,-300"
       id="path34"
       inkscape:connector-curvature="0" />
    <path
       d="m 53810,42360 0,280"
       id="path36"
       inkscape:connector-curvature="0" />
    <path
       d="m 53810,42500 -500,0 70,50 50,50 20,40"
       id="path38"
       inkscape:connector-curvature="0" />
    <path
       d="m 53810,42140 -500,0"
       id="path40"
       inkscape:connector-curvature="0" />
    <path
       d="m 53810,41860 -290,210"
       id="path42"
       inkscape:connector-curvature="0" />
    <path
       d="m 53310,41860 280,280"
       id="path44"
       inkscape:connector-curvature="0" />
    <path
       d="m 53810,41360 -240,160"
       id="path46"
       inkscape:connector-curvature="0" />
    <path
       d="m 53810,41640 -500,0 0,-190 20,-50 20,-20 50,-20 70,0 50,20 20,20 30,50 0,190"
       id="path48"
       inkscape:connector-curvature="0" />
  </g>
  <g
     style="fill:#008484;fill-opacity:0;stroke:#008484;stroke-width:0;stroke-linecap:round;stroke-linejoin:round;stroke-opacity:1"
     id="g50"
     transform="translate(-35697.253,28286.263)" />
  <g
     style="fill:#840000;fill-opacity:0;stroke:#840000;stroke-width:0;stroke-linecap:round;stroke-linejoin:round;stroke-opacity:1"
     id="g52"
     transform="translate(-35697.253,28286.263)" />
  <g
     style="fill:#840000;fill-opacity:0;stroke:#840000;stroke-width:100;stroke-linecap:round;stroke-linejoin:round;stroke-opacity:1"
     id="g54"
     transform="matrix(3.9558957,0,0,3.9558957,-141222.73,-112266.58)">
    <polyline
       fill="none;"
       points="50500,32000 50800,31900 50200,31700 50800,31500 50500,31400 50500,31000 "
       id="polyline56" />
    <polyline
       fill="none;"
       points="50500,32000 50200,32100 50800,32300 50200,32500 50500,32600 50500,33000 "
       id="polyline58" />
  </g>
  <g
     style="fill:#840000;fill-opacity:0;stroke:#840000;stroke-width:60;stroke-linecap:round;stroke-linejoin:round;stroke-opacity:1"
     id="g60"
     transform="matrix(3.9558957,0,0,3.9558957,-141222.73,-112266.58)">
    <path
       d="m 50500,31000 0,0"
       id="path62"
       inkscape:connector-curvature="0" />
    <path
       d="m 50500,33000 0,0"
       id="path64"
       inkscape:connector-curvature="0" />
  </g>
  <g
     style="fill:#008484;fill-opacity:0;stroke:#008484;stroke-width:60;stroke-linecap:round;stroke-linejoin:round;stroke-opacity:1"
     id="g66"
     transform="matrix(3.9558957,0,0,3.9558957,-141222.73,-112266.58)">
    <path
       d="m 51470,32090 -240,160"
       id="path68"
       inkscape:connector-curvature="0" />
    <path
       d="m 51470,32370 -500,0 0,-190 20,-50 20,-20 50,-20 70,0 50,20 20,20 30,50 0,190"
       id="path70"
       inkscape:connector-curvature="0" />
    <path
       d="m 51470,31610 0,280"
       id="path72"
       inkscape:connector-curvature="0" />
    <path
       d="m 51470,31750 -500,0 70,50 50,50 20,40"
       id="path74"
       inkscape:connector-curvature="0" />
    <path
       d="m 49810,32840 0,280"
       id="path76"
       inkscape:connector-curvature="0" />
    <path
       d="m 49810,32980 -500,0 70,50 50,50 20,40"
       id="path78"
       inkscape:connector-curvature="0" />
    <path
       d="m 49310,32530 0,-50 20,-50 20,-20 50,-30 100,-20 120,0 90,20 50,30 20,20 30,50 0,50 -30,40 -20,30 -50,20 -90,20 -120,0 -100,-20 -50,-20 -20,-30 -20,-40"
       id="path80"
       inkscape:connector-curvature="0" />
    <path
       d="m 49310,32050 0,-50 20,-50 20,-20 50,-30 100,-20 120,0 90,20 50,30 20,20 30,50 0,50 -30,40 -20,30 -50,20 -90,20 -120,0 -100,-20 -50,-20 -20,-30 -20,-40"
       id="path82"
       inkscape:connector-curvature="0" />
    <path
       d="m 49810,31660 -500,0"
       id="path84"
       inkscape:connector-curvature="0" />
    <path
       d="m 49810,31380 -290,210"
       id="path86"
       inkscape:connector-curvature="0" />
    <path
       d="m 49310,31380 280,280"
       id="path88"
       inkscape:connector-curvature="0" />
    <path
       d="m 49810,30880 -240,160"
       id="path90"
       inkscape:connector-curvature="0" />
    <path
       d="m 49810,31160 -500,0 0,-190 20,-50 20,-20 50,-20 70,0 50,20 20,20 30,50 0,190"
       id="path92"
       inkscape:connector-curvature="0" />
  </g>
  <g
     style="fill:#008484;fill-opacity:0;stroke:#008484;stroke-width:0;stroke-linecap:round;stroke-linejoin:round;stroke-opacity:1"
     id="g94"
     transform="translate(-35697.253,28286.263)" />
  <g
     style="fill:#840000;fill-opacity:0;stroke:#840000;stroke-width:0;stroke-linecap:round;stroke-linejoin:round;stroke-opacity:1"
     id="g96"
     transform="translate(-35697.253,28286.263)" />
  <g
     style="fill:#840000;fill-opacity:0;stroke:#840000;stroke-width:100;stroke-linecap:round;stroke-linejoin:round;stroke-opacity:1"
     id="g98"
     transform="matrix(3.9558957,0,0,3.9558957,-141222.73,-112266.58)">
    <polyline
       fill="none;"
       points="50500,42000 50800,41900 50200,41700 50800,41500 50500,41400 50500,41000 "
       id="polyline100" />
    <polyline
       fill="none;"
       points="50500,42000 50200,42100 50800,42300 50200,42500 50500,42600 50500,43000 "
       id="polyline102" />
  </g>
  <g
     style="fill:#840000;fill-opacity:0;stroke:#840000;stroke-width:60;stroke-linecap:round;stroke-linejoin:round;stroke-opacity:1"
     id="g104"
     transform="matrix(3.9558957,0,0,3.9558957,-141222.73,-112266.58)">
    <path
       d="m 50500,41000 0,0"
       id="path106"
       inkscape:connector-curvature="0" />
    <path
       d="m 50500,43000 0,0"
       id="path108"
       inkscape:connector-curvature="0" />
  </g>
  <g
     style="fill:#008484;fill-opacity:0;stroke:#008484;stroke-width:60;stroke-linecap:round;stroke-linejoin:round;stroke-opacity:1"
     id="g110"
     transform="matrix(3.9558957,0,0,3.9558957,-141222.73,-112266.58)">
    <path
       d="m 51520,42040 -240,160"
       id="path112"
       inkscape:connector-curvature="0" />
    <path
       d="m 51520,42320 -500,0 0,-190 20,-50 20,-20 50,-20 70,0 50,20 20,20 30,50 0,190"
       id="path114"
       inkscape:connector-curvature="0" />
    <path
       d="m 51060,41840 -20,-20 -20,-50 0,-120 20,-40 20,-30 50,-20 50,0 70,20 290,290 0,-310"
       id="path116"
       inkscape:connector-curvature="0" />
    <path
       d="m 49350,42880 -20,-20 -20,-50 0,-120 20,-40 20,-30 50,-20 50,0 70,20 290,290 0,-310"
       id="path118"
       inkscape:connector-curvature="0" />
    <path
       d="m 49470,42170 340,0"
       id="path120"
       inkscape:connector-curvature="0" />
    <path
       d="m 49280,42290 360,110 0,-300"
       id="path122"
       inkscape:connector-curvature="0" />
    <path
       d="m 49810,41900 -500,0"
       id="path124"
       inkscape:connector-curvature="0" />
    <path
       d="m 49810,41620 -290,210"
       id="path126"
       inkscape:connector-curvature="0" />
    <path
       d="m 49310,41620 280,280"
       id="path128"
       inkscape:connector-curvature="0" />
    <path
       d="m 49810,41120 -240,160"
       id="path130"
       inkscape:connector-curvature="0" />
    <path
       d="m 49810,41400 -500,0 0,-190 20,-50 20,-20 50,-20 70,0 50,20 20,20 30,50 0,190"
       id="path132"
       inkscape:connector-curvature="0" />
  </g>
  <g
     style="fill:#008484;fill-opacity:0;stroke:#008484;stroke-width:0;stroke-linecap:round;stroke-linejoin:round;stroke-opacity:1"
     id="g134"
     transform="translate(-35697.253,28286.263)" />
  <g
     style="fill:#840000;fill-opacity:0;stroke:#840000;stroke-width:0;stroke-linecap:round;stroke-linejoin:round;stroke-opacity:1"
     id="g136"
     transform="translate(-35697.253,28286.263)" />
  <g
     style="fill:#840000;fill-opacity:0;stroke:#840000;stroke-width:100;stroke-linecap:round;stroke-linejoin:round;stroke-opacity:1"
     id="g138"
     transform="matrix(3.9558957,0,0,3.9558957,-141222.73,-112266.58)">
    <polyline
       fill="none;"
       points="54500,32000 54800,31900 54200,31700 54800,31500 54500,31400 54500,31000 "
       id="polyline140" />
    <polyline
       fill="none;"
       points="54500,32000 54200,32100 54800,32300 54200,32500 54500,32600 54500,33000 "
       id="polyline142" />
  </g>
  <g
     style="fill:#840000;fill-opacity:0;stroke:#840000;stroke-width:60;stroke-linecap:round;stroke-linejoin:round;stroke-opacity:1"
     id="g144"
     transform="matrix(3.9558957,0,0,3.9558957,-141222.73,-112266.58)">
    <path
       d="m 54500,31000 0,0"
       id="path146"
       inkscape:connector-curvature="0" />
    <path
       d="m 54500,33000 0,0"
       id="path148"
       inkscape:connector-curvature="0" />
  </g>
  <g
     style="fill:#008484;fill-opacity:0;stroke:#008484;stroke-width:60;stroke-linecap:round;stroke-linejoin:round;stroke-opacity:1"
     id="g150"
     transform="matrix(3.9558957,0,0,3.9558957,-141222.73,-112266.58)">
    <path
       d="m 55520,32040 -240,160"
       id="path152"
       inkscape:connector-curvature="0" />
    <path
       d="m 55520,32320 -500,0 0,-190 20,-50 20,-20 50,-20 70,0 50,20 20,20 30,50 0,190"
       id="path154"
       inkscape:connector-curvature="0" />
    <path
       d="m 55020,31870 0,-310 190,170 0,-80 20,-40 20,-30 50,-20 120,0 50,20 20,30 30,40 0,150 -30,40 -20,30"
       id="path156"
       inkscape:connector-curvature="0" />
    <path
       d="m 53310,33030 0,-310 190,170 0,-80 20,-40 20,-30 50,-20 120,0 50,20 20,30 30,40 0,150 -30,40 -20,30"
       id="path158"
       inkscape:connector-curvature="0" />
    <path
       d="m 53760,32500 20,-20 30,20 -30,20 -20,-20 50,0"
       id="path160"
       inkscape:connector-curvature="0" />
    <path
       d="m 53810,32240 0,-100 -30,-50 -20,-20 -70,-50 -100,-20 -190,0 -50,20 -20,30 -20,40 0,100 20,50 20,20 50,20 120,0 50,-20 20,-20 30,-50 0,-100 -30,-40 -20,-30 -50,-20"
       id="path162"
       inkscape:connector-curvature="0" />
    <path
       d="m 53810,31780 -500,0"
       id="path164"
       inkscape:connector-curvature="0" />
    <path
       d="m 53810,31500 -290,210"
       id="path166"
       inkscape:connector-curvature="0" />
    <path
       d="m 53310,31500 280,280"
       id="path168"
       inkscape:connector-curvature="0" />
    <path
       d="m 53810,31000 -240,160"
       id="path170"
       inkscape:connector-curvature="0" />
    <path
       d="m 53810,31280 -500,0 0,-190 20,-50 20,-20 50,-20 70,0 50,20 20,20 30,50 0,190"
       id="path172"
       inkscape:connector-curvature="0" />
  </g>
  <g
     style="fill:#008484;fill-opacity:0;stroke:#008484;stroke-width:0;stroke-linecap:round;stroke-linejoin:round;stroke-opacity:1"
     id="g174"
     transform="translate(-35697.253,28286.263)" />
  <g
     style="fill:#840000;fill-opacity:0;stroke:#840000;stroke-width:0;stroke-linecap:round;stroke-linejoin:round;stroke-opacity:1"
     id="g176"
     transform="translate(-35697.253,28286.263)" />
  <g
     style="fill:#840000;fill-opacity:0;stroke:#840000;stroke-width:100;stroke-linecap:round;stroke-linejoin:round;stroke-opacity:1"
     id="g178"
     transform="matrix(3.9558957,0,0,3.9558957,-141222.73,-112266.58)">
    <polyline
       fill="none;"
       points="48250,36000 48250,38000 "
       id="polyline180" />
    <polyline
       fill="none;"
       points="48750,36000 48750,38000 "
       id="polyline182" />
    <polyline
       fill="none;"
       points="48250,37000 47500,37000 "
       id="polyline184" />
    <polyline
       fill="none;"
       points="48750,37000 49500,37000 "
       id="polyline186" />
  </g>
  <g
     style="fill:#840000;fill-opacity:0;stroke:#840000;stroke-width:60;stroke-linecap:round;stroke-linejoin:round;stroke-opacity:1"
     id="g188"
     transform="matrix(3.9558957,0,0,3.9558957,-141222.73,-112266.58)">
    <path
       d="m 47500,37000 0,0"
       id="path190"
       inkscape:connector-curvature="0" />
    <path
       d="m 49500,37000 0,0"
       id="path192"
       inkscape:connector-curvature="0" />
  </g>
  <g
     style="fill:#008484;fill-opacity:0;stroke:#008484;stroke-width:60;stroke-linecap:round;stroke-linejoin:round;stroke-opacity:1"
     id="g194"
     transform="matrix(3.9558957,0,0,3.9558957,-141222.73,-112266.58)">
    <path
       d="m 48410,38710 -20,20 -70,30 -50,0 -70,-30 -50,-50 -20,-40 -20,-100 0,-70 20,-90 20,-50 50,-50 70,-20 50,0 70,20 20,20"
       id="path196"
       inkscape:connector-curvature="0" />
    <path
       d="m 48890,38760 -280,0"
       id="path198"
       inkscape:connector-curvature="0" />
    <path
       d="m 48750,38760 0,-500 -50,70 -50,50 -40,20"
       id="path200"
       inkscape:connector-curvature="0" />
    <path
       d="m 47960,35760 -280,0"
       id="path202"
       inkscape:connector-curvature="0" />
    <path
       d="m 47820,35760 0,-500 -50,70 -50,50 -40,20"
       id="path204"
       inkscape:connector-curvature="0" />
    <path
       d="m 48270,35260 50,0 50,20 20,20 30,50 20,100 0,120 -20,90 -30,50 -20,20 -50,30 -50,0 -40,-30 -30,-20 -20,-50 -20,-90 0,-120 20,-100 20,-50 30,-20 40,-20"
       id="path206"
       inkscape:connector-curvature="0" />
    <path
       d="m 48870,35420 0,340"
       id="path208"
       inkscape:connector-curvature="0" />
    <path
       d="m 48660,35420 0,260 20,50 50,30 70,0 50,-30 20,-20"
       id="path210"
       inkscape:connector-curvature="0" />
    <path
       d="m 49280,35490 -170,0"
       id="path212"
       inkscape:connector-curvature="0" />
    <path
       d="m 49110,35760 0,-500 240,0"
       id="path214"
       inkscape:connector-curvature="0" />
  </g>
  <g
     style="fill:#008484;fill-opacity:0;stroke:#008484;stroke-width:0;stroke-linecap:round;stroke-linejoin:round;stroke-opacity:1"
     id="g216"
     transform="translate(-35697.253,28286.263)" />
  <g
     style="fill:#840000;fill-opacity:0;stroke:#840000;stroke-width:0;stroke-linecap:round;stroke-linejoin:round;stroke-opacity:1"
     id="g218"
     transform="translate(-35697.253,28286.263)" />
  <g
     style="fill:#840000;fill-opacity:0;stroke:#840000;stroke-width:100;stroke-linecap:round;stroke-linejoin:round;stroke-opacity:1"
     id="g220"
     transform="matrix(3.9558957,0,0,3.9558957,-141222.73,-112266.58)">
    <circle
       cx="54100"
       cy="37000"
       r="1080"
       id="circle222"
       sodipodi:cx="54100"
       sodipodi:cy="37000"
       sodipodi:rx="1080"
       sodipodi:ry="1080"
       d="m 55180,37000 c 0,596.468 -483.532,1080 -1080,1080 -596.468,0 -1080,-483.532 -1080,-1080 0,-596.468 483.532,-1080 1080,-1080 596.468,0 1080,483.532 1080,1080 z" />
    <polyline
       fill="none;"
       points="53500,37700 53500,36300 "
       id="polyline224" />
    <polyline
       fill="none;"
       points="53500,37000 53000,37000 "
       id="polyline226" />
    <polyline
       fill="none;"
       points="54500,38000 53500,37500 "
       id="polyline228" />
    <polyline
       fill="none;"
       points="54500,36000 53500,36500 "
       id="polyline230" />
  </g>
  <g
     style="fill:#840000;fill-opacity:1;stroke:#840000;stroke-width:100;stroke-linecap:round;stroke-linejoin:round;stroke-opacity:1"
     id="g232"
     transform="matrix(3.9558957,0,0,3.9558957,-141222.73,-112266.58)">
    <polyline
       style="fill-rule:evenodd"
       points="53700,37600 53750,37500 53900,37700 53650,37700 53700,37600 "
       id="polyline234" />
  </g>
  <g
     style="fill:#840000;fill-opacity:1;stroke:#840000;stroke-width:60;stroke-linecap:round;stroke-linejoin:round;stroke-opacity:1"
     id="g236"
     transform="translate(-35697.253,28286.263)" />
  <g
     style="fill:#840000;fill-opacity:0;stroke:#840000;stroke-width:60;stroke-linecap:round;stroke-linejoin:round;stroke-opacity:1"
     id="g238"
     transform="matrix(3.9558957,0,0,3.9558957,-141222.73,-112266.58)">
    <path
       d="m 53000,37000 0,0"
       id="path240"
       inkscape:connector-curvature="0" />
    <path
       d="m 54500,36000 0,0"
       id="path242"
       inkscape:connector-curvature="0" />
    <path
       d="m 54500,38000 0,0"
       id="path244"
       inkscape:connector-curvature="0" />
  </g>
  <g
     style="fill:#008484;fill-opacity:0;stroke:#008484;stroke-width:60;stroke-linecap:round;stroke-linejoin:round;stroke-opacity:1"
     id="g246"
     transform="matrix(3.9558957,0,0,3.9558957,-141222.73,-112266.58)">
    <path
       d="m 55950,36520 -50,-20 -40,-50 -70,-70 -50,-20 -50,0"
       id="path248"
       inkscape:connector-curvature="0" />
    <path
       d="m 55710,36480 -40,-30 -50,-50 -20,-90 0,-170 20,-90 50,-50 40,-20 100,0 50,20 40,50 30,90 0,170 -30,90 -40,50 -50,30 -100,0"
       id="path250"
       inkscape:connector-curvature="0" />
    <path
       d="m 56400,36480 -280,0"
       id="path252"
       inkscape:connector-curvature="0" />
    <path
       d="m 56260,36480 0,-500 -50,70 -50,50 -40,20"
       id="path254"
       inkscape:connector-curvature="0" />
    <path
       d="m 55830,37700 0,410 -20,50 -20,20 -50,20 -70,0 -50,-20"
       id="path256"
       inkscape:connector-curvature="0" />
    <path
       d="m 55830,38010 -40,30 -100,0 -50,-30 -20,-20 -20,-50 0,-140 20,-50 20,-20 50,-30 100,0 40,30"
       id="path258"
       inkscape:connector-curvature="0" />
    <path
       d="m 56260,38010 -50,30 -90,0 -50,-30 -20,-50 0,-190 20,-40 50,-30 90,0 50,30 20,40 0,50 -230,50"
       id="path260"
       inkscape:connector-curvature="0" />
    <path
       d="m 56500,37700 0,340"
       id="path262"
       inkscape:connector-curvature="0" />
    <path
       d="m 56500,37750 20,-20 50,-30 70,0 50,30 20,40 0,270"
       id="path264"
       inkscape:connector-curvature="0" />
    <path
       d="m 57140,38010 -50,30 -90,0 -50,-30 -20,-50 0,-190 20,-40 50,-30 90,0 50,30 20,40 0,50 -230,50"
       id="path266"
       inkscape:connector-curvature="0" />
    <path
       d="m 57380,38040 0,-340"
       id="path268"
       inkscape:connector-curvature="0" />
    <path
       d="m 57380,37800 20,-50 30,-20 40,-30 50,0"
       id="path270"
       inkscape:connector-curvature="0" />
    <path
       d="m 57690,38040 0,-340"
       id="path272"
       inkscape:connector-curvature="0" />
    <path
       d="m 57690,37540 -20,20 20,20 20,-20 -20,-20 0,40"
       id="path274"
       inkscape:connector-curvature="0" />
    <path
       d="m 58140,38010 -40,30 -100,0 -50,-30 -20,-20 -20,-50 0,-140 20,-50 20,-20 50,-30 100,0 40,30"
       id="path276"
       inkscape:connector-curvature="0" />
  </g>
  <g
     style="fill:#008400;fill-opacity:0;stroke:#008400;stroke-width:60;stroke-linecap:round;stroke-linejoin:round;stroke-opacity:1"
     id="g278"
     transform="matrix(3.9558957,0,0,3.9558957,-141222.73,-112266.58)">
    <path
       d="m 38000,29000 16500,0"
       id="path280"
       inkscape:connector-curvature="0" />
    <path
       d="m 50500,29000 0,2000"
       id="path282"
       inkscape:connector-curvature="0" />
    <path
       d="m 54500,29000 0,2000"
       id="path284"
       inkscape:connector-curvature="0" />
    <path
       d="m 54500,33000 0,3000"
       id="path286"
       inkscape:connector-curvature="0" />
    <path
       d="m 54500,38000 0,3000"
       id="path288"
       inkscape:connector-curvature="0" />
    <path
       d="m 50500,33000 0,8000"
       id="path290"
       inkscape:connector-curvature="0" />
  </g>
  <g
     style="fill:#008400;fill-opacity:0;stroke:#008400;stroke-width:0;stroke-linecap:round;stroke-linejoin:round;stroke-opacity:1"
     id="g292"
     transform="translate(-35697.253,28286.263)" />
  <g
     style="fill:#008400;fill-opacity:1;stroke:#008400;stroke-width:100;stroke-linecap:round;stroke-linejoin:round;stroke-opacity:1"
     id="g294"
     transform="matrix(3.9558957,0,0,3.9558957,-141222.73,-112266.58)">
    <circle
       cx="50500"
       cy="37000"
       r="200"
       id="circle296"
       sodipodi:cx="50500"
       sodipodi:cy="37000"
       sodipodi:rx="200"
       sodipodi:ry="200"
       d="m 50700,37000 c 0,110.457 -89.543,200 -200,200 -110.457,0 -200,-89.543 -200,-200 0,-110.457 89.543,-200 200,-200 110.457,0 200,89.543 200,200 z" />
  </g>
  <g
     style="fill:#008400;fill-opacity:1;stroke:#008400;stroke-width:60;stroke-linecap:round;stroke-linejoin:round;stroke-opacity:1"
     id="g298"
     transform="translate(-35697.253,28286.263)" />
  <g
     style="fill:#008400;fill-opacity:0;stroke:#008400;stroke-width:60;stroke-linecap:round;stroke-linejoin:round;stroke-opacity:1"
     id="g300"
     transform="matrix(3.9558957,0,0,3.9558957,-141222.73,-112266.58)">
    <path
       d="m 50500,43000 0,2000"
       id="path302"
       inkscape:connector-curvature="0" />
    <path
       d="m 39000,45000 15500,0"
       id="path304"
       inkscape:connector-curvature="0" />
    <path
       d="m 54500,45000 0,-2000"
       id="path306"
       inkscape:connector-curvature="0" />
  </g>
  <g
     style="fill:#000000;fill-opacity:0;stroke:#000000;stroke-width:60;stroke-linecap:round;stroke-linejoin:round;stroke-opacity:1"
     id="g308"
     transform="matrix(3.9558957,0,0,3.9558957,-141222.73,-112266.58)">
    <path
       d="m 46140,36870 0,-400"
       id="path310"
       inkscape:connector-curvature="0" />
    <path
       d="m 46140,36270 -30,30 30,30 30,-30 -30,-30 0,60"
       id="path312"
       inkscape:connector-curvature="0" />
    <path
       d="m 46430,36470 0,400"
       id="path314"
       inkscape:connector-curvature="0" />
    <path
       d="m 46430,36530 30,-30 60,-30 80,0 60,30 30,60 0,310"
       id="path316"
       inkscape:connector-curvature="0" />
  </g>
  <g
     style="fill:#008400;fill-opacity:0;stroke:#008400;stroke-width:60;stroke-linecap:round;stroke-linejoin:round;stroke-opacity:1"
     id="g318"
     transform="matrix(3.9558957,0,0,3.9558957,-141222.73,-112266.58)">
    <path
       d="m 54500,34500 2000,0"
       id="path320"
       inkscape:connector-curvature="0" />
  </g>
  <g
     style="fill:#008400;fill-opacity:0;stroke:#008400;stroke-width:0;stroke-linecap:round;stroke-linejoin:round;stroke-opacity:1"
     id="g322"
     transform="translate(-35697.253,28286.263)" />
  <g
     style="fill:#008400;fill-opacity:1;stroke:#008400;stroke-width:100;stroke-linecap:round;stroke-linejoin:round;stroke-opacity:1"
     id="g324"
     transform="matrix(3.9558957,0,0,3.9558957,-141222.73,-112266.58)">
    <circle
       cx="54500"
       cy="34500"
       r="200"
       id="circle326"
       sodipodi:cx="54500"
       sodipodi:cy="34500"
       sodipodi:rx="200"
       sodipodi:ry="200"
       d="m 54700,34500 c 0,110.457 -89.543,200 -200,200 -110.457,0 -200,-89.543 -200,-200 0,-110.457 89.543,-200 200,-200 110.457,0 200,89.543 200,200 z" />
  </g>
  <g
     style="fill:#008400;fill-opacity:1;stroke:#008400;stroke-width:60;stroke-linecap:round;stroke-linejoin:round;stroke-opacity:1"
     id="g328"
     transform="translate(-35697.253,28286.263)" />
  <g
     style="fill:#000000;fill-opacity:0;stroke:#000000;stroke-width:60;stroke-linecap:round;stroke-linejoin:round;stroke-opacity:1"
     id="g330"
     transform="matrix(3.9558957,0,0,3.9558957,-141222.73,-112266.58)">
    <path
       d="m 55230,34370 -60,-30 -30,-30 -30,-50 0,-170 30,-60 30,-30 60,-30 80,0 60,30 30,30 30,60 0,170 -30,50 -30,30 -60,30 -80,0"
       id="path332"
       inkscape:connector-curvature="0" />
    <path
       d="m 55940,33970 0,400"
       id="path334"
       inkscape:connector-curvature="0" />
    <path
       d="m 55680,33970 0,320 30,50 60,30 80,0 60,-30 30,-30"
       id="path336"
       inkscape:connector-curvature="0" />
    <path
       d="m 56140,33970 230,0"
       id="path338"
       inkscape:connector-curvature="0" />
    <path
       d="m 56220,33770 0,520 30,50 60,30 60,0"
       id="path340"
       inkscape:connector-curvature="0" />
    <path
       d="m 51140,36470 0,400"
       id="path342"
       inkscape:connector-curvature="0" />
    <path
       d="m 51140,36530 30,-30 60,-30 80,0 60,30 30,60 0,310"
       id="path344"
       inkscape:connector-curvature="0" />
    <path
       d="m 52000,36870 -350,0"
       id="path346"
       inkscape:connector-curvature="0" />
    <path
       d="m 51830,36870 0,-600 -60,90 -60,50 -60,30"
       id="path348"
       inkscape:connector-curvature="0" />
    <path
       d="m 54640,39220 0,400"
       id="path350"
       inkscape:connector-curvature="0" />
    <path
       d="m 54640,39280 30,-30 60,-30 80,0 60,30 30,60 0,310"
       id="path352"
       inkscape:connector-curvature="0" />
    <path
       d="m 55150,39080 30,-30 60,-30 140,0 60,30 30,30 30,60 0,50 -30,90 -340,340 370,0"
       id="path354"
       inkscape:connector-curvature="0" />
  </g>
  <g
     style="fill:#008400;fill-opacity:0;stroke:#008400;stroke-width:60;stroke-linecap:round;stroke-linejoin:round;stroke-opacity:1"
     id="g356"
     transform="matrix(3.9558957,0,0,3.9558957,-141222.73,-112266.58)">
    <path
       d="m 44000,37000 3500,0"
       id="path358"
       inkscape:connector-curvature="0" />
    <path
       d="m 49500,37000 3500,0"
       id="path360"
       inkscape:connector-curvature="0" />
  </g>
  <g
     style="fill:#008400;fill-opacity:0;stroke:#008400;stroke-width:0;stroke-linecap:round;stroke-linejoin:round;stroke-opacity:1"
     id="g362"
     transform="translate(-35697.253,28286.263)" />
  <g
     style="fill:#840000;fill-opacity:0;stroke:#840000;stroke-width:0;stroke-linecap:round;stroke-linejoin:round;stroke-opacity:1"
     id="g364"
     transform="translate(-35697.253,28286.263)" />
  <g
     style="fill:#840000;fill-opacity:0;stroke:#840000;stroke-width:100;stroke-linecap:round;stroke-linejoin:round;stroke-opacity:1"
     id="g366"
     transform="matrix(3.9558957,0,0,3.9558957,-141222.73,-112266.58)">
    <circle
       cx="39000"
       cy="37000"
       r="1000"
       id="circle368"
       sodipodi:cx="39000"
       sodipodi:cy="37000"
       sodipodi:rx="1000"
       sodipodi:ry="1000"
       d="m 40000,37000 c 0,552.285 -447.715,1000 -1000,1000 -552.285,0 -1000,-447.715 -1000,-1000 0,-552.285 447.715,-1000 1000,-1000 552.285,0 1000,447.715 1000,1000 z" />
    <polyline
       fill="none;"
       points="38750,37500 39250,37500 "
       id="polyline370" />
    <polyline
       fill="none;"
       points="39000,36750 39000,36250 "
       id="polyline372" />
    <polyline
       fill="none;"
       points="39250,36500 38750,36500 "
       id="polyline374" />
  </g>
  <g
     style="fill:#840000;fill-opacity:0;stroke:#840000;stroke-width:60;stroke-linecap:round;stroke-linejoin:round;stroke-opacity:1"
     id="g376"
     transform="matrix(3.9558957,0,0,3.9558957,-141222.73,-112266.58)">
    <path
       d="m 39000,36000 0,0"
       id="path378"
       inkscape:connector-curvature="0" />
    <path
       d="m 39000,38000 0,0"
       id="path380"
       inkscape:connector-curvature="0" />
  </g>
  <g
     style="fill:#008484;fill-opacity:0;stroke:#008484;stroke-width:60;stroke-linecap:round;stroke-linejoin:round;stroke-opacity:1"
     id="g382"
     transform="matrix(3.9558957,0,0,3.9558957,-141222.73,-112266.58)">
    <path
       d="m 39300,35230 160,500 170,-500"
       id="path384"
       inkscape:connector-curvature="0" />
    <path
       d="m 40060,35730 -280,0"
       id="path386"
       inkscape:connector-curvature="0" />
    <path
       d="m 39920,35730 0,-500 -50,70 -50,50 -40,20"
       id="path388"
       inkscape:connector-curvature="0" />
    <path
       d="m 39630,38790 -280,0"
       id="path390"
       inkscape:connector-curvature="0" />
    <path
       d="m 39490,38790 0,-500 -50,70 -50,50 -40,20"
       id="path392"
       inkscape:connector-curvature="0" />
    <path
       d="m 39830,38330 20,-20 50,-20 120,0 40,20 30,20 20,50 0,50 -20,70 -290,290 310,0"
       id="path394"
       inkscape:connector-curvature="0" />
    <path
       d="m 40260,38290 160,500 170,-500"
       id="path396"
       inkscape:connector-curvature="0" />
  </g>
  <g
     style="fill:#008400;fill-opacity:0;stroke:#008400;stroke-width:60;stroke-linecap:round;stroke-linejoin:round;stroke-opacity:1"
     id="g398"
     transform="matrix(3.9558957,0,0,3.9558957,-141222.73,-112266.58)">
    <path
       d="m 39000,36000 0,-7000"
       id="path400"
       inkscape:connector-curvature="0" />
  </g>
  <g
     style="fill:#008400;fill-opacity:0;stroke:#008400;stroke-width:0;stroke-linecap:round;stroke-linejoin:round;stroke-opacity:1"
     id="g402"
     transform="translate(-35697.253,28286.263)" />
  <g
     style="fill:#008400;fill-opacity:1;stroke:#008400;stroke-width:100;stroke-linecap:round;stroke-linejoin:round;stroke-opacity:1"
     id="g404"
     transform="matrix(3.9558957,0,0,3.9558957,-141222.73,-112266.58)">
    <circle
       cx="50500"
       cy="29000"
       r="200"
       id="circle406"
       sodipodi:cx="50500"
       sodipodi:cy="29000"
       sodipodi:rx="200"
       sodipodi:ry="200"
       d="m 50700,29000 c 0,110.457 -89.543,200 -200,200 -110.457,0 -200,-89.543 -200,-200 0,-110.457 89.543,-200 200,-200 110.457,0 200,89.543 200,200 z" />
  </g>
  <g
     style="fill:#008400;fill-opacity:1;stroke:#008400;stroke-width:60;stroke-linecap:round;stroke-linejoin:round;stroke-opacity:1"
     id="g408"
     transform="translate(-35697.253,28286.263)" />
  <g
     style="fill:#008400;fill-opacity:0;stroke:#008400;stroke-width:60;stroke-linecap:round;stroke-linejoin:round;stroke-opacity:1"
     id="g410"
     transform="matrix(3.9558957,0,0,3.9558957,-141222.73,-112266.58)">
    <path
       d="m 39000,38000 0,7000"
       id="path412"
       inkscape:connector-curvature="0" />
  </g>
  <g
     style="fill:#008400;fill-opacity:0;stroke:#008400;stroke-width:0;stroke-linecap:round;stroke-linejoin:round;stroke-opacity:1"
     id="g414"
     transform="translate(-35697.253,28286.263)" />
  <g
     style="fill:#008400;fill-opacity:1;stroke:#008400;stroke-width:100;stroke-linecap:round;stroke-linejoin:round;stroke-opacity:1"
     id="g416"
     transform="matrix(3.9558957,0,0,3.9558957,-141222.73,-112266.58)">
    <circle
       cx="50500"
       cy="45000"
       r="200"
       id="circle418"
       sodipodi:cx="50500"
       sodipodi:cy="45000"
       sodipodi:rx="200"
       sodipodi:ry="200"
       d="m 50700,45000 c 0,110.457 -89.543,200 -200,200 -110.457,0 -200,-89.543 -200,-200 0,-110.457 89.543,-200 200,-200 110.457,0 200,89.543 200,200 z" />
  </g>
  <g
     style="fill:#008400;fill-opacity:1;stroke:#008400;stroke-width:0;stroke-linecap:round;stroke-linejoin:round;stroke-opacity:1"
     id="g420"
     transform="translate(-35697.253,28286.263)" />
  <g
     style="fill:#840000;fill-opacity:1;stroke:#840000;stroke-width:0;stroke-linecap:round;stroke-linejoin:round;stroke-opacity:1"
     id="g422"
     transform="translate(-35697.253,28286.263)" />
  <g
     style="fill:#840000;fill-opacity:0;stroke:#840000;stroke-width:100;stroke-linecap:round;stroke-linejoin:round;stroke-opacity:1"
     id="g424"
     transform="matrix(3.9558957,0,0,3.9558957,-141222.73,-112266.58)">
    <path
       d="m 44000,39999.4 a 370,370 0 0 0 -740,0"
       id="path426"
       inkscape:connector-curvature="0" />
    <path
       d="m 44000,40000.6 a 370,370 0 0 0 740,0"
       id="path428"
       inkscape:connector-curvature="0" />
    <circle
       cx="44000"
       cy="40000"
       r="1000"
       id="circle430"
       sodipodi:cx="44000"
       sodipodi:cy="40000"
       sodipodi:rx="1000"
       sodipodi:ry="1000"
       d="m 45000,40000 c 0,552.285 -447.715,1000 -1000,1000 -552.285,0 -1000,-447.715 -1000,-1000 0,-552.285 447.715,-1000 1000,-1000 552.285,0 1000,447.715 1000,1000 z" />
  </g>
  <g
     style="fill:#840000;fill-opacity:0;stroke:#840000;stroke-width:60;stroke-linecap:round;stroke-linejoin:round;stroke-opacity:1"
     id="g432"
     transform="matrix(3.9558957,0,0,3.9558957,-141222.73,-112266.58)">
    <path
       d="m 44000,39000 0,0"
       id="path434"
       inkscape:connector-curvature="0" />
    <path
       d="m 44000,41000 0,0"
       id="path436"
       inkscape:connector-curvature="0" />
  </g>
  <g
     style="fill:#008484;fill-opacity:0;stroke:#008484;stroke-width:60;stroke-linecap:round;stroke-linejoin:round;stroke-opacity:1"
     id="g438"
     transform="matrix(3.9558957,0,0,3.9558957,-141222.73,-112266.58)">
    <path
       d="m 44550,38480 160,500 170,-500"
       id="path440"
       inkscape:connector-curvature="0" />
    <path
       d="m 45030,38520 20,-20 50,-20 120,0 40,20 30,20 20,50 0,50 -20,70 -290,290 310,0"
       id="path442"
       inkscape:connector-curvature="0" />
  </g>
  <g
     style="fill:#008484;fill-opacity:0;stroke:#008484;stroke-width:50;stroke-linecap:round;stroke-linejoin:round;stroke-opacity:1"
     id="g444"
     transform="matrix(3.9558957,0,0,3.9558957,-141222.73,-112266.58)">
    <path
       d="m 41200,41340 0,-300"
       id="path446"
       inkscape:connector-curvature="0" />
    <path
       d="m 41200,41320 -30,20 -60,0 -20,-20 -20,-10 -10,-30 0,-90 10,-30 20,-10 20,-10 60,0 30,10"
       id="path448"
       inkscape:connector-curvature="0" />
    <path
       d="m 41470,41320 -30,20 -60,0 -20,-20 -20,-10 -10,-30 0,-90 10,-30 20,-10 20,-10 60,0 30,10"
       id="path450"
       inkscape:connector-curvature="0" />
    <path
       d="m 41890,41040 30,0 30,10 10,10 10,30 20,60 0,70 -20,60 -10,30 -10,10 -30,20 -30,0 -30,-20 -10,-10 -20,-30 -10,-60 0,-70 10,-60 20,-30 10,-10 30,-10"
       id="path452"
       inkscape:connector-curvature="0" />
    <path
       d="m 42480,41340 0,-160 -10,-30 -30,-10 -60,0 -30,10"
       id="path454"
       inkscape:connector-curvature="0" />
    <path
       d="m 42480,41320 -30,20 -70,0 -30,-20 -10,-30 0,-30 10,-20 30,-20 70,0 30,-10"
       id="path456"
       inkscape:connector-curvature="0" />
    <path
       d="m 42750,41320 -30,20 -60,0 -20,-20 -20,-10 -10,-30 0,-90 10,-30 20,-10 20,-10 60,0 30,10"
       id="path458"
       inkscape:connector-curvature="0" />
    <path
       d="m 43270,41340 -170,0"
       id="path460"
       inkscape:connector-curvature="0" />
    <path
       d="m 43180,41340 0,-300 -30,40 -20,30 -30,10"
       id="path462"
       inkscape:connector-curvature="0" />
    <path
       d="m 43400,41310 20,10 -20,20 -10,-20 10,-10 0,30"
       id="path464"
       inkscape:connector-curvature="0" />
    <path
       d="m 43600,41040 30,0 30,10 10,10 10,30 20,60 0,70 -20,60 -10,30 -10,10 -30,20 -30,0 -30,-20 -10,-10 -20,-30 -10,-60 0,-70 10,-60 20,-30 10,-10 30,-10"
       id="path466"
       inkscape:connector-curvature="0" />
    <path
       d="m 44050,41320 30,20 50,0 30,-20 20,-30 0,-10 -20,-30 -30,-10 -40,0 -30,-20 -10,-30 0,-10 10,-30 30,-10 40,0 30,10"
       id="path468"
       inkscape:connector-curvature="0" />
    <path
       d="m 44300,41340 0,-200"
       id="path470"
       inkscape:connector-curvature="0" />
    <path
       d="m 44300,41040 -10,10 10,10 20,-10 -20,-10 0,20"
       id="path472"
       inkscape:connector-curvature="0" />
    <path
       d="m 44440,41140 0,200"
       id="path474"
       inkscape:connector-curvature="0" />
    <path
       d="m 44440,41160 20,-10 20,-10 50,0 30,10 10,30 0,160"
       id="path476"
       inkscape:connector-curvature="0" />
    <path
       d="m 44800,41450 -20,-10 -30,-50 -10,-30 -10,-40 -20,-70 0,-60 20,-70 10,-40 10,-30 30,-40 20,-20"
       id="path478"
       inkscape:connector-curvature="0" />
    <path
       d="m 44970,41040 30,0 30,10 10,10 10,30 20,60 0,70 -20,60 -10,30 -10,10 -30,20 -30,0 -30,-20 -10,-10 -20,-30 -10,-60 0,-70 10,-60 20,-30 10,-10 30,-10"
       id="path480"
       inkscape:connector-curvature="0" />
    <path
       d="m 45590,41340 -170,0"
       id="path482"
       inkscape:connector-curvature="0" />
    <path
       d="m 45500,41340 0,-300 -30,40 -20,30 -30,10"
       id="path484"
       inkscape:connector-curvature="0" />
    <path
       d="m 46110,41340 -170,0"
       id="path486"
       inkscape:connector-curvature="0" />
    <path
       d="m 46020,41340 0,-300 -30,40 -20,30 -30,10"
       id="path488"
       inkscape:connector-curvature="0" />
    <path
       d="m 46240,41340 0,-300"
       id="path490"
       inkscape:connector-curvature="0" />
    <path
       d="m 46270,41220 90,120"
       id="path492"
       inkscape:connector-curvature="0" />
    <path
       d="m 46360,41140 -120,110"
       id="path494"
       inkscape:connector-curvature="0" />
    <path
       d="m 46480,41340 0,-300"
       id="path496"
       inkscape:connector-curvature="0" />
    <path
       d="m 46480,41180 170,0"
       id="path498"
       inkscape:connector-curvature="0" />
    <path
       d="m 46650,41340 0,-300"
       id="path500"
       inkscape:connector-curvature="0" />
    <path
       d="m 46760,41140 160,0 -160,200 160,0"
       id="path502"
       inkscape:connector-curvature="0" />
    <path
       d="m 47000,41450 20,-10 30,-50 10,-30 10,-40 20,-70 0,-60 -20,-70 -10,-40 -10,-30 -30,-40 -20,-20"
       id="path504"
       inkscape:connector-curvature="0" />
  </g>
  <g
     style="fill:#008484;fill-opacity:0;stroke:#008484;stroke-width:60;stroke-linecap:round;stroke-linejoin:round;stroke-opacity:1"
     id="g506"
     transform="translate(-35697.253,28286.263)" />
  <g
     style="fill:#008400;fill-opacity:0;stroke:#008400;stroke-width:60;stroke-linecap:round;stroke-linejoin:round;stroke-opacity:1"
     id="g508"
     transform="matrix(3.9558957,0,0,3.9558957,-141222.73,-112266.58)">
    <path
       d="m 44000,39000 0,-2000"
       id="path510"
       inkscape:connector-curvature="0" />
    <path
       d="m 44000,41000 0,4000"
       id="path512"
       inkscape:connector-curvature="0" />
  </g>
  <g
     style="fill:#008400;fill-opacity:0;stroke:#008400;stroke-width:0;stroke-linecap:round;stroke-linejoin:round;stroke-opacity:1"
     id="g514"
     transform="translate(-35697.253,28286.263)" />
  <g
     style="fill:#008400;fill-opacity:1;stroke:#008400;stroke-width:100;stroke-linecap:round;stroke-linejoin:round;stroke-opacity:1"
     id="g516"
     transform="matrix(3.9558957,0,0,3.9558957,-141222.73,-112266.58)">
    <circle
       cx="44000"
       cy="45000"
       r="200"
       id="circle518"
       sodipodi:cx="44000"
       sodipodi:cy="45000"
       sodipodi:rx="200"
       sodipodi:ry="200"
       d="m 44200,45000 c 0,110.457 -89.543,200 -200,200 -110.457,0 -200,-89.543 -200,-200 0,-110.457 89.543,-200 200,-200 110.457,0 200,89.543 200,200 z" />
  </g>
  <g
     style="fill:#008400;fill-opacity:1;stroke:#008400;stroke-width:0;stroke-linecap:round;stroke-linejoin:round;stroke-opacity:1"
     id="g520"
     transform="translate(-35697.253,28286.263)" />
  <g
     style="fill:#840000;fill-opacity:1;stroke:#840000;stroke-width:0;stroke-linecap:round;stroke-linejoin:round;stroke-opacity:1"
     id="g522"
     transform="translate(-35697.253,28286.263)" />
  <g
     style="fill:#840000;fill-opacity:0;stroke:#840000;stroke-width:100;stroke-linecap:round;stroke-linejoin:round;stroke-opacity:1"
     id="g524"
     transform="matrix(3.9558957,0,0,3.9558957,-141222.73,-112266.58)">
    <polyline
       fill="none;"
       points="46750,47000 48250,47000 "
       id="polyline526" />
    <polyline
       fill="none;"
       points="47000,47250 48000,47250 "
       id="polyline528" />
    <polyline
       fill="none;"
       points="47250,47500 47750,47500 "
       id="polyline530" />
    <polyline
       fill="none;"
       points="47500,46000 47500,47000 "
       id="polyline532" />
  </g>
  <g
     style="fill:#840000;fill-opacity:0;stroke:#840000;stroke-width:60;stroke-linecap:round;stroke-linejoin:round;stroke-opacity:1"
     id="g534"
     transform="matrix(3.9558957,0,0,3.9558957,-141222.73,-112266.58)">
    <path
       d="m 47500,46000 0,0"
       id="path536"
       inkscape:connector-curvature="0" />
  </g>
  <g
     style="fill:#840000;fill-opacity:0;stroke:#840000;stroke-width:0;stroke-linecap:round;stroke-linejoin:round;stroke-opacity:1"
     id="g538"
     transform="translate(-35697.253,28286.263)" />
  <g
     style="fill:#840000;fill-opacity:0;stroke:#840000;stroke-width:100;stroke-linecap:round;stroke-linejoin:round;stroke-opacity:1"
     id="g540"
     transform="matrix(3.9558957,0,0,3.9558957,-141222.73,-112266.58)">
    <circle
       cx="37000"
       cy="29000"
       r="500"
       id="circle542"
       sodipodi:cx="37000"
       sodipodi:cy="29000"
       sodipodi:rx="500"
       sodipodi:ry="500"
       d="m 37500,29000 c 0,276.142 -223.858,500 -500,500 -276.142,0 -500,-223.858 -500,-500 0,-276.142 223.858,-500 500,-500 276.142,0 500,223.858 500,500 z" />
    <polyline
       fill="none;"
       points="37000,29250 37000,28750 "
       id="polyline544" />
    <polyline
       fill="none;"
       points="38000,29000 37500,29000 "
       id="polyline546" />
    <polyline
       fill="none;"
       points="37250,29000 36750,29000 "
       id="polyline548" />
  </g>
  <g
     style="fill:#840000;fill-opacity:0;stroke:#840000;stroke-width:60;stroke-linecap:round;stroke-linejoin:round;stroke-opacity:1"
     id="g550"
     transform="matrix(3.9558957,0,0,3.9558957,-141222.73,-112266.58)">
    <path
       d="m 38000,29000 0,0"
       id="path552"
       inkscape:connector-curvature="0" />
  </g>
  <g
     style="fill:#008484;fill-opacity:0;stroke:#008484;stroke-width:60;stroke-linecap:round;stroke-linejoin:round;stroke-opacity:1"
     id="g554"
     transform="matrix(3.9558957,0,0,3.9558957,-141222.73,-112266.58)">
    <path
       d="m 35730,29460 500,-160 -500,-170"
       id="path556"
       inkscape:connector-curvature="0" />
    <path
       d="m 36040,28960 0,-380"
       id="path558"
       inkscape:connector-curvature="0" />
    <path
       d="m 36230,28770 -380,0"
       id="path560"
       inkscape:connector-curvature="0" />
  </g>
  <g
     style="fill:#008484;fill-opacity:0;stroke:#008484;stroke-width:0;stroke-linecap:round;stroke-linejoin:round;stroke-opacity:1"
     id="g562"
     transform="translate(-35697.253,28286.263)" />
  <g
     style="fill:#008400;fill-opacity:0;stroke:#008400;stroke-width:0;stroke-linecap:round;stroke-linejoin:round;stroke-opacity:1"
     id="g564"
     transform="translate(-35697.253,28286.263)" />
  <g
     style="fill:#008400;fill-opacity:1;stroke:#008400;stroke-width:100;stroke-linecap:round;stroke-linejoin:round;stroke-opacity:1"
     id="g566"
     transform="matrix(3.9558957,0,0,3.9558957,-141222.73,-112266.58)">
    <circle
       cx="39000"
       cy="29000"
       r="200"
       id="circle568"
       sodipodi:cx="39000"
       sodipodi:cy="29000"
       sodipodi:rx="200"
       sodipodi:ry="200"
       d="m 39200,29000 c 0,110.457 -89.543,200 -200,200 -110.457,0 -200,-89.543 -200,-200 0,-110.457 89.543,-200 200,-200 110.457,0 200,89.543 200,200 z" />
  </g>
  <g
     style="fill:#008400;fill-opacity:1;stroke:#008400;stroke-width:60;stroke-linecap:round;stroke-linejoin:round;stroke-opacity:1"
     id="g570"
     transform="translate(-35697.253,28286.263)" />
  <g
     style="fill:#008400;fill-opacity:0;stroke:#008400;stroke-width:60;stroke-linecap:round;stroke-linejoin:round;stroke-opacity:1"
     id="g572"
     transform="matrix(3.9558957,0,0,3.9558957,-141222.73,-112266.58)">
    <path
       d="m 47500,46000 0,-1000"
       id="path574"
       inkscape:connector-curvature="0" />
  </g>
  <g
     style="fill:#008400;fill-opacity:0;stroke:#008400;stroke-width:0;stroke-linecap:round;stroke-linejoin:round;stroke-opacity:1"
     id="g576"
     transform="translate(-35697.253,28286.263)" />
  <g
     style="fill:#008400;fill-opacity:1;stroke:#008400;stroke-width:100;stroke-linecap:round;stroke-linejoin:round;stroke-opacity:1"
     id="g578"
     transform="matrix(3.9558957,0,0,3.9558957,-141222.73,-112266.58)">
    <circle
       cx="47500"
       cy="45000"
       r="200"
       id="circle580"
       sodipodi:cx="47500"
       sodipodi:cy="45000"
       sodipodi:rx="200"
       sodipodi:ry="200"
       d="m 47700,45000 c 0,110.457 -89.543,200 -200,200 -110.457,0 -200,-89.543 -200,-200 0,-110.457 89.543,-200 200,-200 110.457,0 200,89.543 200,200 z" />
  </g>
  <g
     style="fill:#008400;fill-opacity:1;stroke:#008400;stroke-width:60;stroke-linecap:round;stroke-linejoin:round;stroke-opacity:1"
     id="g582"
     transform="translate(-35697.253,28286.263)" />
  <g
     style="fill:#000000;fill-opacity:0;stroke:#000000;stroke-width:60;stroke-linecap:round;stroke-linejoin:round;stroke-opacity:1"
     id="g584"
     transform="matrix(3.9558957,0,0,3.9558957,-141222.73,-112266.58)">
    <path
       d="m 44590,28470 140,400 140,-400"
       id="path586"
       inkscape:connector-curvature="0" />
    <path
       d="m 45100,28640 460,0"
       id="path588"
       inkscape:connector-curvature="0" />
    <path
       d="m 45330,28870 0,-460"
       id="path590"
       inkscape:connector-curvature="0" />
    <path
       d="m 47760,44270 50,0 60,30 30,30 30,60 30,110 0,140 -30,120 -30,50 -30,30 -60,30 -50,0 -60,-30 -30,-30 -30,-50 -30,-120 0,-140 30,-110 30,-60 30,-30 60,-30"
       id="path592"
       inkscape:connector-curvature="0" />
  </g>
</svg>
